<svg width="138" height="143" viewBox="0 0 138 143" fill="none" xmlns="http://www.w3.org/2000/svg">
<g clip-path="url(#clip0_18118_2743)">
<path opacity="0.1" d="M24.1482 138.762C24.1482 139.567 19.1622 140.22 13.0158 140.22C6.86935 140.22 1.88342 139.567 1.88342 138.762C1.88342 137.957 6.86935 137.305 13.0158 137.305C19.1622 137.305 24.1482 137.957 24.1482 138.762Z" fill="black"/>
<path opacity="0.1" d="M47.0616 138.762C47.0616 139.567 42.0757 140.22 35.9292 140.22C29.7828 140.22 24.7969 139.567 24.7969 138.762C24.7969 137.957 29.7828 137.305 35.9292 137.305C42.0757 137.305 47.0616 137.957 47.0616 138.762Z" fill="black"/>
<path opacity="0.1" d="M118.052 138.141C118.052 138.946 113.067 139.598 106.92 139.598C100.774 139.598 95.7877 138.946 95.7877 138.141C95.7877 137.336 100.774 136.683 106.92 136.683C113.067 136.683 118.052 137.336 118.052 138.141Z" fill="black"/>
<path opacity="0.1" d="M138 138.101C138 138.906 133.014 139.559 126.868 139.559C120.721 139.559 115.735 138.906 115.735 138.101C115.735 137.296 120.721 136.644 126.868 136.644C133.014 136.644 138 137.296 138 138.101Z" fill="black"/>
<path d="M72.167 55.4509C78.4123 55.4509 83.4752 50.388 83.4752 44.1427C83.4752 37.8973 78.4123 32.8345 72.167 32.8345C65.9216 32.8345 60.8588 37.8973 60.8588 44.1427C60.8588 50.388 65.9216 55.4509 72.167 55.4509Z" fill="#F0A820"/>
<path d="M72.1669 54.9115C78.1145 54.9115 82.9359 50.0901 82.9359 44.1425C82.9359 38.195 78.1145 33.3735 72.1669 33.3735C66.2194 33.3735 61.3979 38.195 61.3979 44.1425C61.3979 50.0901 66.2194 54.9115 72.1669 54.9115Z" fill="#FCE00A"/>
<path d="M72.128 52.7117C76.9814 52.7117 80.9159 48.8349 80.9159 44.0527C80.9159 39.2705 76.9814 35.3938 72.128 35.3938C67.2746 35.3938 63.3401 39.2705 63.3401 44.0527C63.3401 48.8349 67.2746 52.7117 72.128 52.7117Z" fill="#F0A820"/>
<path d="M74.2615 41.7042H75.551L76.3442 40.5515H74.281C74.2068 40.0943 74.0388 39.6723 73.8004 39.2972H75.7307L76.3442 38.2734H68.6699L68.033 39.2972H71.0183C71.6513 39.5785 72.1358 40.024 72.3898 40.5515H68.7246L68.033 41.5479L67.9197 41.7003H72.5539C72.6008 41.7003 72.2335 42.4661 72.1905 42.5248C71.9795 42.8139 71.706 43.0484 71.4051 43.232C70.5103 43.7791 69.4944 43.7634 68.4784 43.7634V44.7989L72.929 49.9997H74.8672C74.5311 49.5973 74.1912 49.1948 73.8512 48.7923C73.1752 47.9913 72.5031 47.1903 71.8271 46.3853C71.327 45.7875 70.8229 45.1936 70.3228 44.5957C70.186 44.4316 70.9284 44.3769 71.0027 44.3691C72.4641 44.2401 73.7887 43.4313 74.2029 41.9582C74.2107 41.9347 74.2615 41.6964 74.2654 41.6964L74.2615 41.7042Z" fill="#C2871A"/>
<path opacity="0.1" d="M77.8641 35.0029C79.4466 36.8785 80.4 39.2972 80.4 41.9426C80.4 47.8898 75.5782 52.7116 69.631 52.7116C67.5366 52.7116 65.5868 52.1137 63.934 51.0782C65.9111 53.4188 68.8652 54.9115 72.167 54.9115C78.1142 54.9115 82.936 50.0897 82.936 44.1425C82.936 40.2858 80.908 36.9059 77.8641 35.0029Z" fill="black"/>
<path opacity="0.1" d="M75.8868 36.2224C77.0238 37.6838 77.7037 39.5086 77.7037 41.4897C77.7037 46.2724 73.7689 50.1486 68.9158 50.1486C67.5717 50.1486 66.2939 49.8477 65.153 49.3163C66.7589 51.3756 69.2831 52.708 72.1239 52.708C76.9769 52.708 80.9118 48.8318 80.9118 44.0491C80.9118 40.591 78.8564 37.6096 75.8868 36.2224Z" fill="black"/>
<path d="M104.294 120.917C110.54 120.917 115.603 115.854 115.603 109.608C115.603 103.363 110.54 98.3003 104.294 98.3003C98.0489 98.3003 92.9861 103.363 92.9861 109.608C92.9861 115.854 98.0489 120.917 104.294 120.917Z" fill="#F0A820"/>
<path d="M104.294 120.377C110.242 120.377 115.063 115.556 115.063 109.608C115.063 103.661 110.242 98.8394 104.294 98.8394C98.3468 98.8394 93.5254 103.661 93.5254 109.608C93.5254 115.556 98.3468 120.377 104.294 120.377Z" fill="#FCE00A"/>
<path d="M104.255 118.178C109.109 118.178 113.043 114.301 113.043 109.519C113.043 104.736 109.109 100.86 104.255 100.86C99.4018 100.86 95.4673 104.736 95.4673 109.519C95.4673 114.301 99.4018 118.178 104.255 118.178Z" fill="#F0A820"/>
<path d="M106.389 107.17H107.678L108.471 106.018H106.408C106.334 105.56 106.166 105.138 105.928 104.763H107.858L108.471 103.74H100.797L100.16 104.763H103.146C103.779 105.045 104.263 105.49 104.517 106.018H100.852L100.16 107.014L100.047 107.166H104.681C104.728 107.166 104.361 107.932 104.318 107.991C104.107 108.28 103.833 108.514 103.532 108.698C102.638 109.245 101.622 109.229 100.606 109.229V110.265L105.056 115.466H106.994C106.658 115.063 106.318 114.661 105.982 114.258C105.306 113.457 104.634 112.656 103.958 111.851C103.458 111.254 102.954 110.66 102.454 110.062C102.317 109.898 103.06 109.843 103.134 109.835C104.595 109.706 105.92 108.897 106.334 107.424C106.342 107.401 106.393 107.162 106.397 107.162L106.389 107.17Z" fill="#C2871A"/>
<path opacity="0.1" d="M109.991 100.469C111.574 102.345 112.527 104.763 112.527 107.409C112.527 113.356 107.706 118.178 101.758 118.178C99.664 118.178 97.7141 117.58 96.0613 116.544C98.0385 118.885 100.993 120.378 104.294 120.378C110.241 120.378 115.063 115.556 115.063 109.609C115.063 105.752 113.035 102.372 109.991 100.469Z" fill="black"/>
<path opacity="0.1" d="M108.014 101.692C109.151 103.153 109.831 104.978 109.831 106.963C109.831 111.746 105.896 115.622 101.043 115.622C99.6991 115.622 98.4214 115.321 97.2804 114.79C98.8864 116.849 101.411 118.181 104.251 118.181C109.104 118.181 113.039 114.305 113.039 109.522C113.039 106.064 110.984 103.083 108.014 101.696V101.692Z" fill="black"/>
<path d="M33.5377 105.478C39.7831 105.478 44.8459 100.415 44.8459 94.1698C44.8459 87.9244 39.7831 82.8616 33.5377 82.8616C27.2924 82.8616 22.2295 87.9244 22.2295 94.1698C22.2295 100.415 27.2924 105.478 33.5377 105.478Z" fill="#F0A820"/>
<path d="M33.5377 104.939C39.4852 104.939 44.3066 100.118 44.3066 94.1701C44.3066 88.2226 39.4852 83.4011 33.5377 83.4011C27.5901 83.4011 22.7687 88.2226 22.7687 94.1701C22.7687 100.118 27.5901 104.939 33.5377 104.939Z" fill="#FCE00A"/>
<path d="M33.4987 102.739C38.3521 102.739 42.2866 98.8623 42.2866 94.0801C42.2866 89.2979 38.3521 85.4211 33.4987 85.4211C28.6453 85.4211 24.7108 89.2979 24.7108 94.0801C24.7108 98.8623 28.6453 102.739 33.4987 102.739Z" fill="#F0A820"/>
<path d="M35.6322 91.7315H36.9217L37.7149 90.5788H35.6518C35.5775 90.1217 35.4095 89.6997 35.1711 89.3245H37.1014L37.7149 88.3008H30.0406L29.4037 89.3245H32.389C33.022 89.6059 33.5066 90.0513 33.7605 90.5788H30.0953L29.4037 91.5752L29.2904 91.7276H33.9247C33.9715 91.7276 33.6042 92.4935 33.5613 92.5521C33.3503 92.8413 33.0767 93.0757 32.7759 93.2594C31.8811 93.8064 30.8651 93.7908 29.8492 93.7908V94.8262L34.2998 100.027H36.2379C35.9018 99.6246 35.5619 99.2221 35.2258 98.8197C34.5499 98.0186 33.8778 97.2176 33.2018 96.4127C32.7016 95.8148 32.1976 95.2209 31.6974 94.6231C31.5606 94.4589 32.3031 94.4042 32.3773 94.3964C33.8387 94.2675 35.1633 93.4586 35.5775 91.9855C35.5853 91.9621 35.6361 91.7237 35.64 91.7237L35.6322 91.7315Z" fill="#C2871A"/>
<path opacity="0.1" d="M39.2348 85.0305C40.8173 86.9061 41.7708 89.3248 41.7708 91.9702C41.7708 97.9173 36.9489 102.739 31.0018 102.739C28.9074 102.739 26.9575 102.141 25.3047 101.106C27.2819 103.446 30.2359 104.939 33.5377 104.939C39.4849 104.939 44.3067 100.117 44.3067 94.1701C44.3067 90.3134 42.2787 86.9335 39.2348 85.0305Z" fill="black"/>
<path opacity="0.1" d="M37.2616 86.2537C38.3987 87.7151 39.0786 89.5398 39.0786 91.5209C39.0786 96.3037 35.1438 100.18 30.2907 100.18C28.9466 100.18 27.6688 99.879 26.5278 99.3476C28.1338 101.407 30.658 102.739 33.4988 102.739C38.3518 102.739 42.2866 98.8631 42.2866 94.0803C42.2866 90.6222 40.2313 87.6408 37.2616 86.2537Z" fill="black"/>
<path d="M94.885 34.3117C101.13 34.3117 106.193 29.2489 106.193 23.0035C106.193 16.7582 101.13 11.6953 94.885 11.6953C88.6396 11.6953 83.5768 16.7582 83.5768 23.0035C83.5768 29.2489 88.6396 34.3117 94.885 34.3117Z" fill="#F0A820"/>
<path d="M94.8851 33.7723C100.833 33.7723 105.654 28.9509 105.654 23.0034C105.654 17.0558 100.833 12.2344 94.8851 12.2344C88.9375 12.2344 84.1161 17.0558 84.1161 23.0034C84.1161 28.9509 88.9375 33.7723 94.8851 33.7723Z" fill="#FCE00A"/>
<path d="M94.846 31.572C99.6994 31.572 103.634 27.6953 103.634 22.9131C103.634 18.1309 99.6994 14.2542 94.846 14.2542C89.9926 14.2542 86.0581 18.1309 86.0581 22.9131C86.0581 27.6953 89.9926 31.572 94.846 31.572Z" fill="#F0A820"/>
<path d="M96.9794 20.565H98.2689L99.0621 19.4123H96.9989C96.9247 18.9552 96.7567 18.5331 96.5183 18.158H98.4486L99.0621 17.1343H91.3878L90.7509 18.158H93.7362C94.3692 18.4394 94.8537 18.8848 95.1077 19.4123H91.4425L90.7509 20.4087L90.6376 20.5611H95.2718C95.3187 20.5611 94.9514 21.327 94.9084 21.3856C94.6974 21.6748 94.4239 21.9092 94.123 22.0929C93.2282 22.6399 92.2123 22.6243 91.1963 22.6243V23.6597L95.6469 28.8606H97.585C97.249 28.4581 96.9091 28.0556 96.573 27.6532C95.897 26.8521 95.2249 26.0511 94.5489 25.2462C94.0488 24.6483 93.5447 24.0544 93.0446 23.4566C92.9078 23.2924 93.6502 23.2377 93.7245 23.2299C95.1859 23.101 96.5105 22.2921 96.9247 20.819C96.9325 20.7956 96.9833 20.5572 96.9872 20.5572L96.9794 20.565Z" fill="#C2871A"/>
<path opacity="0.1" d="M100.582 13.8635C102.165 15.7391 103.118 18.1578 103.118 20.8032C103.118 26.7503 98.2963 31.5722 92.3492 31.5722C90.2548 31.5722 88.305 30.9743 86.6521 29.9388C88.6293 32.2794 91.5833 33.7721 94.8851 33.7721C100.832 33.7721 105.654 28.9503 105.654 23.0031C105.654 19.1464 103.626 15.7665 100.582 13.8635Z" fill="black"/>
<path opacity="0.1" d="M98.6088 15.0828C99.7459 16.5442 100.426 18.3689 100.426 20.35C100.426 25.1328 96.491 29.009 91.6379 29.009C90.2937 29.009 89.016 28.7081 87.875 28.1767C89.481 30.2359 92.0052 31.5684 94.8459 31.5684C99.699 31.5684 103.634 27.6922 103.634 22.9094C103.634 19.4513 101.578 16.4699 98.6088 15.0828Z" fill="black"/>
<path d="M58.1979 23.0031C64.4432 23.0031 69.5061 17.9403 69.5061 11.6949C69.5061 5.44958 64.4432 0.386719 58.1979 0.386719C51.9525 0.386719 46.8896 5.44958 46.8896 11.6949C46.8896 17.9403 51.9525 23.0031 58.1979 23.0031Z" fill="#F0A820"/>
<path d="M58.1977 22.4637C64.1452 22.4637 68.9667 17.6423 68.9667 11.6948C68.9667 5.74722 64.1452 0.925781 58.1977 0.925781C52.2501 0.925781 47.4287 5.74722 47.4287 11.6948C47.4287 17.6423 52.2501 22.4637 58.1977 22.4637Z" fill="#FCE00A"/>
<path d="M58.1589 20.2642C63.0123 20.2642 66.9468 16.3874 66.9468 11.6052C66.9468 6.82303 63.0123 2.94629 58.1589 2.94629C53.3054 2.94629 49.371 6.82303 49.371 11.6052C49.371 16.3874 53.3054 20.2642 58.1589 20.2642Z" fill="#F0A820"/>
<path d="M60.2924 9.25668H61.5818L62.3751 8.10398H60.3119C60.2377 7.64681 60.0696 7.2248 59.8313 6.84968H61.7616L62.3751 5.82593H54.7008L54.0639 6.84968H57.0492C57.6822 7.13102 58.1667 7.57647 58.4207 8.10398H54.7555L54.0639 9.10038L53.9506 9.25278H58.5848C58.6317 9.25278 58.2644 10.0186 58.2214 10.0773C58.0104 10.3664 57.7369 10.6009 57.436 10.7845C56.5412 11.3315 55.5253 11.3159 54.5093 11.3159V12.3514L58.9599 17.5522H60.898C60.562 17.1498 60.222 16.7473 59.886 16.3448C59.21 15.5438 58.5379 14.7428 57.8619 13.9378C57.3618 13.34 56.8577 12.7461 56.3576 12.1482C56.2208 11.9841 56.9632 11.9294 57.0375 11.9216C58.4988 11.7965 59.8235 10.9838 60.2377 9.51067C60.2455 9.48722 60.2963 9.24887 60.3002 9.24887L60.2924 9.25668Z" fill="#C2871A"/>
<path opacity="0.1" d="M63.895 2.55542C65.4775 4.431 66.4309 6.84972 66.4309 9.49508C66.4309 15.4422 61.6091 20.2641 55.6619 20.2641C53.5675 20.2641 51.6177 19.6662 49.9648 18.6307C51.942 20.9713 54.8961 22.464 58.1979 22.464C64.145 22.464 68.9669 17.6421 68.9669 11.695C68.9669 7.83831 66.9389 4.45836 63.895 2.55542Z" fill="black"/>
<path opacity="0.1" d="M61.9178 3.77832C63.0548 5.23971 63.7347 7.0645 63.7347 9.04558C63.7347 13.8283 59.7999 17.7045 54.9468 17.7045C53.6027 17.7045 52.3249 17.4037 51.184 16.8722C52.7899 18.9315 55.3141 20.2639 58.1549 20.2639C63.008 20.2639 66.9428 16.3877 66.9428 11.605C66.9428 8.14687 64.8874 5.16547 61.9178 3.77832Z" fill="black"/>
<g filter="url(#filter0_d_18118_2743)">
<path d="M97.8976 100.387C97.3427 100.387 96.8699 99.9568 96.827 99.3941C96.1119 90.1295 81.9512 80.8102 81.8106 80.7204C81.3143 80.396 81.1737 79.7318 81.498 79.2355C81.8223 78.7393 82.4866 78.5986 82.9828 78.919C83.6041 79.3215 98.175 88.9182 98.9722 99.23C99.019 99.8201 98.5736 100.34 97.9836 100.383C97.9562 100.383 97.9289 100.383 97.9015 100.383L97.8976 100.387Z" fill="#7A4A20"/>
<path d="M59.2959 77.5946C57.4672 76.1371 55.6893 74.6093 53.9622 73.0307C52.0084 71.2489 45.4165 66.4974 49.2263 63.5629C52.1686 61.2965 57.7798 64.2779 60.4407 65.5635C61.1597 65.9113 61.867 66.2746 62.5703 66.6498C62.1132 66.4075 64.6647 62.8947 64.8953 62.6681C66.3606 61.2301 68.6113 60.7143 70.5767 61.2418C72.6985 61.8123 74.3631 63.8872 75.5666 65.6221C75.465 65.4775 78.9778 63.5824 79.2005 63.4808C82.471 61.9882 86.8279 61.4607 89.6412 64.1646C92.6187 67.0249 88.891 70.3736 86.5153 72.0694L77.1022 79.8453L59.2959 77.5946Z" fill="#258EC9"/>
<g opacity="0.1">
<path d="M78.5443 63.8247C78.5443 63.8247 78.5443 63.8247 78.54 63.8247C78.54 63.8247 78.54 63.829 78.5443 63.8333V63.8247Z" fill="black"/>
<path d="M62.2734 75.8085C60.4447 74.351 58.6668 72.8232 56.9397 71.2446C55.1969 69.6503 49.7538 65.6921 51.3285 62.7732C50.547 62.8553 49.832 63.0975 49.2263 63.5625C45.4165 66.497 52.0084 71.2485 53.9622 73.0303C55.6893 74.6089 57.4672 76.1367 59.2959 77.5942L77.1022 79.8449L79.3724 77.9693C76.0667 77.5512 62.2734 75.8085 62.2734 75.8085Z" fill="black"/>
</g>
<path d="M100.84 122.108C100.84 139.477 86.2925 140.219 68.9238 140.219C51.5551 140.219 36.4254 139.77 36.4254 122.401C36.4254 105.033 51.8247 81.1228 69.1973 81.1228C85.0734 81.1228 100.844 103.071 100.844 122.104L100.84 122.108Z" fill="#258EC9"/>
<path opacity="0.1" d="M80.2595 133.893C62.8908 133.893 47.7611 133.444 47.7611 116.075C47.7611 104.563 54.5249 90.184 64.1451 81.7908C48.949 85.7647 36.4294 106.74 36.4294 122.401C36.4294 139.77 51.5591 140.219 68.9278 140.219C81.6701 140.219 92.8962 139.821 97.9681 132.748C92.8728 133.791 86.7615 133.893 80.2595 133.893Z" fill="black"/>
<path d="M82.9028 82.1278C84.598 81.4215 85.3996 79.4746 84.6933 77.7794C83.9869 76.0842 82.0401 75.2825 80.3449 75.9889C78.6496 76.6952 77.848 78.6421 78.5543 80.3373C79.2607 82.0325 81.2075 82.8341 82.9028 82.1278Z" fill="#7A4A20"/>
<path opacity="0.75" d="M75.3165 103.915H78.8918L81.0917 100.723H75.3712C75.168 99.4606 74.703 98.2805 74.0349 97.2489H79.3881L81.0917 94.416H59.8156L58.0455 97.2489H66.3254C68.076 98.0304 69.4201 99.2613 70.1235 100.723H59.9602L58.0455 103.489L57.7251 103.915H70.5689C70.694 103.915 69.6819 106.033 69.5569 106.205C68.9786 107.002 68.2127 107.655 67.3765 108.17C64.8914 109.69 62.0741 109.643 59.2685 109.643V112.515L71.6083 126.93H76.9811C76.0433 125.816 75.1055 124.703 74.1716 123.585C72.3039 121.362 70.4322 119.139 68.5644 116.915C67.1734 115.262 65.7862 113.609 64.3951 111.957C64.0161 111.503 66.0714 111.343 66.2785 111.328C70.3267 110.976 74.0075 108.725 75.1485 104.642C75.168 104.579 75.3087 103.915 75.3204 103.915H75.3165Z" fill="#19417A"/>
<g filter="url(#filter1_d_18118_2743)">
<path d="M85.7728 84.8863C85.7728 85.3708 85.5735 85.8124 85.2531 86.1328C84.9327 86.4532 84.4912 86.6525 84.0067 86.6525H54.2278C54.1067 86.6525 53.9817 86.6407 53.8645 86.6134C53.759 86.5939 53.6613 86.5626 53.5675 86.5196C52.9188 86.2578 52.4617 85.6248 52.4617 84.8863C52.4617 84.4018 52.661 83.9602 52.9814 83.6398C53.3018 83.3194 53.7433 83.1201 54.2278 83.1201H84.0067C84.3818 83.1201 84.7295 83.2413 85.0148 83.4405C85.1007 83.4991 85.1789 83.5656 85.2531 83.6398C85.5735 83.9602 85.7728 84.4018 85.7728 84.8863Z" fill="#AA672C"/>
<path d="M55.8534 83.1196L53.8684 86.609C53.7629 86.5895 53.6652 86.5582 53.5714 86.5152L55.5056 83.1157H55.8573L55.8534 83.1196Z" fill="#7A4A20"/>
<path d="M58.2526 83.1196L56.0644 86.6481H55.705L57.8931 83.1196H58.2526Z" fill="#7A4A20"/>
<path d="M61.0153 83.1196L58.8271 86.6481H58.4677L60.6558 83.1196H61.0153Z" fill="#7A4A20"/>
<path d="M63.7778 83.1196L61.5896 86.6481H61.2301L63.4183 83.1196H63.7778Z" fill="#7A4A20"/>
<path d="M66.2316 83.1196L64.0434 86.6481H63.684L65.876 83.1196H66.2316Z" fill="#7A4A20"/>
<path d="M68.6895 83.1196L66.5013 86.6481H66.1418L68.33 83.1196H68.6895Z" fill="#7A4A20"/>
<path d="M71.1473 83.1196L68.9552 86.6481H68.5957L70.7878 83.1196H71.1473Z" fill="#7A4A20"/>
<path d="M73.9099 83.1196L71.7178 86.6481H71.3583L73.5504 83.1196H73.9099Z" fill="#7A4A20"/>
<path d="M76.0588 83.1196L73.8667 86.6481H73.5072L75.6993 83.1196H76.0588Z" fill="#7A4A20"/>
<path d="M78.204 83.1196L76.0159 86.6481H75.6564L77.8485 83.1196H78.204Z" fill="#7A4A20"/>
<path d="M80.6619 83.1196L78.4737 86.6481H78.1143L80.3024 83.1196H80.6619Z" fill="#7A4A20"/>
<path d="M83.4245 83.1196L81.2363 86.6481H80.8768L83.065 83.1196H83.4245Z" fill="#7A4A20"/>
<path d="M85.2531 83.6395L83.3854 86.6521H83.0259L85.0148 83.4402C85.1007 83.4988 85.1789 83.5652 85.2531 83.6395Z" fill="#7A4A20"/>
</g>
<g filter="url(#filter2_d_18118_2743)">
<path d="M83.0101 81.2008C83.0101 81.7283 82.7952 82.2089 82.4436 82.5528C82.0958 82.9044 81.6191 83.1194 81.0916 83.1194H57.4553C57.0177 83.1194 56.6113 82.9709 56.287 82.7169C56.201 82.6544 56.1229 82.584 56.0525 82.5059C55.7321 82.1659 55.5328 81.7049 55.5328 81.2008C55.5328 80.6967 55.7478 80.1927 56.0994 79.8488C56.4472 79.4971 56.9239 79.2822 57.4514 79.2822H81.0877C81.5839 79.2822 82.0372 79.4737 82.3771 79.7863C82.4553 79.8566 82.5295 79.9348 82.596 80.0207C82.8538 80.3451 83.0062 80.7593 83.0062 81.2008H83.0101Z" fill="#AA672C"/>
<path d="M58.2409 79.2822L56.2872 82.7169C56.2012 82.6544 56.1231 82.584 56.0527 82.5059L57.8892 79.2822H58.2409Z" fill="#7A4A20"/>
<path d="M58.2643 83.1194L60.6439 79.2822H60.2805L57.9009 83.1194H58.2643Z" fill="#7A4A20"/>
<path d="M63.4065 79.2822L61.0268 83.1194H60.6635L63.0431 79.2822H63.4065Z" fill="#7A4A20"/>
<path d="M66.1691 79.2822L63.7894 83.1194H63.426L65.8057 79.2822H66.1691Z" fill="#7A4A20"/>
<path d="M68.6229 79.2822L66.2472 83.1194H65.8838L68.2634 79.2822H68.6229Z" fill="#7A4A20"/>
<path d="M71.0807 79.2822L68.701 83.1194H68.3376L70.7173 79.2822H71.0807Z" fill="#7A4A20"/>
<path d="M73.5386 79.2822L71.1589 83.1194H70.7955L73.1752 79.2822H73.5386Z" fill="#7A4A20"/>
<path d="M76.301 79.2822L73.9214 83.1194H73.558L75.9376 79.2822H76.301Z" fill="#7A4A20"/>
<path d="M76.0707 83.1194L78.4503 79.2822H78.0869L75.7073 83.1194H76.0707Z" fill="#7A4A20"/>
<path d="M80.9041 79.2822L78.5244 83.1194H78.161L80.5407 79.2822H80.9041Z" fill="#7A4A20"/>
<path d="M82.6 80.0169L80.6736 83.1194H80.3102L82.3811 79.7864C82.4593 79.8567 82.5335 79.9349 82.6 80.0208V80.0169Z" fill="#7A4A20"/>
</g>
<g filter="url(#filter3_d_18118_2743)">
<path d="M79.8882 77.3013V77.7311C79.8882 78.5869 79.2435 79.3058 78.4151 79.4153C78.3409 79.427 78.2627 79.4348 78.1846 79.4348H59.9015C59.4326 79.4348 59.0028 79.2433 58.6902 78.9268C58.6121 78.8487 58.5456 78.7627 58.4831 78.6767C58.3034 78.4071 58.194 78.0828 58.194 77.7311V77.3013C58.194 76.3635 58.9598 75.5977 59.8976 75.5977H78.1807C78.2119 75.5977 78.2393 75.5977 78.2666 75.6055C78.3799 75.6055 78.4894 75.625 78.5949 75.6524C79.1263 75.7891 79.5561 76.1721 79.7554 76.6683C79.8062 76.7933 79.8452 76.9301 79.8609 77.0708C79.8726 77.1489 79.8804 77.2232 79.8804 77.3052L79.8882 77.3013Z" fill="#AA672C"/>
<path d="M60.5892 75.5977L58.6901 78.9268C58.612 78.8487 58.5456 78.7627 58.483 78.6767L60.2375 75.5977H60.5892Z" fill="#7A4A20"/>
<path d="M62.9767 75.5977L60.597 79.4348H60.2375L62.6172 75.5977H62.9767Z" fill="#7A4A20"/>
<path d="M63.3595 79.4348L65.7391 75.5977H65.3797L63 79.4348H63.3595Z" fill="#7A4A20"/>
<path d="M68.5018 75.5977L66.1222 79.4348H65.7627L68.1423 75.5977H68.5018Z" fill="#7A4A20"/>
<path d="M68.5797 79.4348L70.9594 75.5977H70.5999L68.2202 79.4348H68.5797Z" fill="#7A4A20"/>
<path d="M71.0338 79.4348L73.4135 75.5977H73.054L70.6743 79.4348H71.0338Z" fill="#7A4A20"/>
<path d="M73.4916 79.4348L75.8712 75.5977H75.5117L73.1321 79.4348H73.4916Z" fill="#7A4A20"/>
<path d="M76.2543 79.4348L78.5987 75.6485C78.4932 75.6211 78.3838 75.6055 78.2705 75.6016L75.8948 79.4309H76.2543V79.4348Z" fill="#7A4A20"/>
<path d="M78.4152 79.4152L79.8687 77.0668C79.8492 76.9261 79.814 76.7893 79.7632 76.6643L78.0439 79.4347L78.4152 79.4152Z" fill="#7A4A20"/>
</g>
</g>
<path d="M44.5022 109.342H25.5198V113.523H44.5022V109.342Z" fill="#F0A820"/>
<path d="M44.2053 109.608H25.7855V113.242H44.2053V109.608Z" fill="#FCE00A"/>
<path d="M26.7273 109.96H26.4772V112.973H26.7273V109.96Z" fill="#F0A820"/>
<path d="M27.9542 109.96H27.7041V112.973H27.9542V109.96Z" fill="#F0A820"/>
<path d="M29.185 109.96H28.9349V112.973H29.185V109.96Z" fill="#F0A820"/>
<path d="M30.4119 109.96H30.1619V112.973H30.4119V109.96Z" fill="#F0A820"/>
<path d="M31.6389 109.96H31.3888V112.973H31.6389V109.96Z" fill="#F0A820"/>
<path d="M32.8657 109.96H32.6156V112.973H32.8657V109.96Z" fill="#F0A820"/>
<path d="M34.0966 109.96H33.8466V112.973H34.0966V109.96Z" fill="#F0A820"/>
<path d="M35.3236 109.96H35.0735V112.973H35.3236V109.96Z" fill="#F0A820"/>
<path d="M36.5506 109.96H36.3005V112.973H36.5506V109.96Z" fill="#F0A820"/>
<path d="M37.7816 109.96H37.5315V112.973H37.7816V109.96Z" fill="#F0A820"/>
<path d="M39.0084 109.96H38.7583V112.973H39.0084V109.96Z" fill="#F0A820"/>
<path d="M40.2354 109.96H39.9854V112.973H40.2354V109.96Z" fill="#F0A820"/>
<path d="M41.4624 109.96H41.2123V112.973H41.4624V109.96Z" fill="#F0A820"/>
<path d="M42.6933 109.96H42.4432V112.973H42.6933V109.96Z" fill="#F0A820"/>
<path d="M43.9201 109.96H43.67V112.973H43.9201V109.96Z" fill="#F0A820"/>
<path d="M42.0445 105.154H23.062V109.335H42.0445V105.154Z" fill="#F0A820"/>
<path d="M41.7515 105.419H23.3317V109.053H41.7515V105.419Z" fill="#FCE00A"/>
<path d="M24.2734 105.771H24.0233V108.784H24.2734V105.771Z" fill="#F0A820"/>
<path d="M25.5003 105.771H25.2502V108.784H25.5003V105.771Z" fill="#F0A820"/>
<path d="M26.7274 105.771H26.4773V108.784H26.7274V105.771Z" fill="#F0A820"/>
<path d="M27.9542 105.771H27.7041V108.784H27.9542V105.771Z" fill="#F0A820"/>
<path d="M29.185 105.771H28.9349V108.784H29.185V105.771Z" fill="#F0A820"/>
<path d="M30.4119 105.771H30.1619V108.784H30.4119V105.771Z" fill="#F0A820"/>
<path d="M31.6389 105.771H31.3888V108.784H31.6389V105.771Z" fill="#F0A820"/>
<path d="M32.8658 105.771H32.6157V108.784H32.8658V105.771Z" fill="#F0A820"/>
<path d="M34.0968 105.771H33.8467V108.784H34.0968V105.771Z" fill="#F0A820"/>
<path d="M35.3236 105.771H35.0735V108.784H35.3236V105.771Z" fill="#F0A820"/>
<path d="M36.5506 105.771H36.3005V108.784H36.5506V105.771Z" fill="#F0A820"/>
<path d="M37.7816 105.771H37.5315V108.784H37.7816V105.771Z" fill="#F0A820"/>
<path d="M39.0085 105.771H38.7584V108.784H39.0085V105.771Z" fill="#F0A820"/>
<path d="M40.2354 105.771H39.9854V108.784H40.2354V105.771Z" fill="#F0A820"/>
<path d="M41.4624 105.771H41.2123V108.784H41.4624V105.771Z" fill="#F0A820"/>
<path d="M45.4206 117.728H26.4381V121.909H45.4206V117.728Z" fill="#F0A820"/>
<path d="M45.1276 117.994H26.7078V121.628H45.1276V117.994Z" fill="#FCE00A"/>
<path d="M27.6492 118.345H27.3992V121.358H27.6492V118.345Z" fill="#F0A820"/>
<path d="M28.8763 118.345H28.6262V121.358H28.8763V118.345Z" fill="#F0A820"/>
<path d="M30.1031 118.345H29.853V121.358H30.1031V118.345Z" fill="#F0A820"/>
<path d="M31.3341 118.345H31.084V121.358H31.3341V118.345Z" fill="#F0A820"/>
<path d="M32.5611 118.345H32.311V121.358H32.5611V118.345Z" fill="#F0A820"/>
<path d="M33.7879 118.345H33.5378V121.358H33.7879V118.345Z" fill="#F0A820"/>
<path d="M35.015 118.345H34.7649V121.358H35.015V118.345Z" fill="#F0A820"/>
<path d="M36.2458 118.345H35.9957V121.358H36.2458V118.345Z" fill="#F0A820"/>
<path d="M37.4727 118.345H37.2227V121.358H37.4727V118.345Z" fill="#F0A820"/>
<path d="M38.6997 118.345H38.4496V121.358H38.6997V118.345Z" fill="#F0A820"/>
<path d="M39.9266 118.345H39.6765V121.358H39.9266V118.345Z" fill="#F0A820"/>
<path d="M41.1574 118.345H40.9073V121.358H41.1574V118.345Z" fill="#F0A820"/>
<path d="M42.3844 118.345H42.1343V121.358H42.3844V118.345Z" fill="#F0A820"/>
<path d="M43.6113 118.345H43.3612V121.358H43.6113V118.345Z" fill="#F0A820"/>
<path d="M44.8421 118.345H44.592V121.358H44.8421V118.345Z" fill="#F0A820"/>
<path d="M42.9667 113.539H23.9843V117.72H42.9667V113.539Z" fill="#F0A820"/>
<path d="M42.6737 113.801H24.2539V117.435H42.6737V113.801Z" fill="#FCE00A"/>
<path d="M25.1916 114.153H24.9415V117.165H25.1916V114.153Z" fill="#F0A820"/>
<path d="M26.4226 114.153H26.1725V117.165H26.4226V114.153Z" fill="#F0A820"/>
<path d="M27.6494 114.153H27.3993V117.165H27.6494V114.153Z" fill="#F0A820"/>
<path d="M28.8764 114.153H28.6263V117.165H28.8764V114.153Z" fill="#F0A820"/>
<path d="M30.1033 114.153H29.8533V117.165H30.1033V114.153Z" fill="#F0A820"/>
<path d="M31.3342 114.153H31.0841V117.165H31.3342V114.153Z" fill="#F0A820"/>
<path d="M32.5612 114.153H32.3112V117.165H32.5612V114.153Z" fill="#F0A820"/>
<path d="M33.788 114.153H33.538V117.165H33.788V114.153Z" fill="#F0A820"/>
<path d="M35.0151 114.153H34.765V117.165H35.0151V114.153Z" fill="#F0A820"/>
<path d="M36.2458 114.153H35.9957V117.165H36.2458V114.153Z" fill="#F0A820"/>
<path d="M37.4727 114.153H37.2227V117.165H37.4727V114.153Z" fill="#F0A820"/>
<path d="M38.6997 114.153H38.4496V117.165H38.6997V114.153Z" fill="#F0A820"/>
<path d="M39.9266 114.153H39.6765V117.165H39.9266V114.153Z" fill="#F0A820"/>
<path d="M41.1575 114.153H40.9075V117.165H41.1575V114.153Z" fill="#F0A820"/>
<path d="M42.3846 114.153H42.1345V117.165H42.3846V114.153Z" fill="#F0A820"/>
<path d="M46.034 126.098H27.0515V130.279H46.034V126.098Z" fill="#F0A820"/>
<path d="M45.7411 126.364H27.3213V129.997H45.7411V126.364Z" fill="#FCE00A"/>
<path d="M28.2628 126.715H28.0127V129.728H28.2628V126.715Z" fill="#F0A820"/>
<path d="M29.4898 126.715H29.2397V129.728H29.4898V126.715Z" fill="#F0A820"/>
<path d="M30.7205 126.715H30.4705V129.728H30.7205V126.715Z" fill="#F0A820"/>
<path d="M31.9476 126.715H31.6975V129.728H31.9476V126.715Z" fill="#F0A820"/>
<path d="M33.1745 126.715H32.9244V129.728H33.1745V126.715Z" fill="#F0A820"/>
<path d="M34.4016 126.715H34.1515V129.728H34.4016V126.715Z" fill="#F0A820"/>
<path d="M35.6324 126.715H35.3823V129.728H35.6324V126.715Z" fill="#F0A820"/>
<path d="M36.8593 126.715H36.6093V129.728H36.8593V126.715Z" fill="#F0A820"/>
<path d="M38.0863 126.715H37.8362V129.728H38.0863V126.715Z" fill="#F0A820"/>
<path d="M39.3132 126.715H39.0631V129.728H39.3132V126.715Z" fill="#F0A820"/>
<path d="M40.5439 126.715H40.2938V129.728H40.5439V126.715Z" fill="#F0A820"/>
<path d="M41.7711 126.715H41.521V129.728H41.7711V126.715Z" fill="#F0A820"/>
<path d="M42.9979 126.715H42.7478V129.728H42.9979V126.715Z" fill="#F0A820"/>
<path d="M44.2249 126.715H43.9749V129.728H44.2249V126.715Z" fill="#F0A820"/>
<path d="M45.4558 126.715H45.2057V129.728H45.4558V126.715Z" fill="#F0A820"/>
<path d="M42.0445 121.909H23.062V126.09H42.0445V121.909Z" fill="#F0A820"/>
<path d="M41.7515 122.175H23.3317V125.809H41.7515V122.175Z" fill="#FCE00A"/>
<path d="M24.2734 122.526H24.0233V125.539H24.2734V122.526Z" fill="#F0A820"/>
<path d="M25.5003 122.526H25.2502V125.539H25.5003V122.526Z" fill="#F0A820"/>
<path d="M26.7274 122.526H26.4773V125.539H26.7274V122.526Z" fill="#F0A820"/>
<path d="M27.9542 122.526H27.7041V125.539H27.9542V122.526Z" fill="#F0A820"/>
<path d="M29.185 122.526H28.9349V125.539H29.185V122.526Z" fill="#F0A820"/>
<path d="M30.4119 122.526H30.1619V125.539H30.4119V122.526Z" fill="#F0A820"/>
<path d="M31.6389 122.526H31.3888V125.539H31.6389V122.526Z" fill="#F0A820"/>
<path d="M32.8658 122.526H32.6157V125.539H32.8658V122.526Z" fill="#F0A820"/>
<path d="M34.0968 122.526H33.8467V125.539H34.0968V122.526Z" fill="#F0A820"/>
<path d="M35.3236 122.526H35.0735V125.539H35.3236V122.526Z" fill="#F0A820"/>
<path d="M36.5506 122.526H36.3005V125.539H36.5506V122.526Z" fill="#F0A820"/>
<path d="M37.7816 122.526H37.5315V125.539H37.7816V122.526Z" fill="#F0A820"/>
<path d="M39.0085 122.526H38.7584V125.539H39.0085V122.526Z" fill="#F0A820"/>
<path d="M40.2354 122.526H39.9854V125.539H40.2354V122.526Z" fill="#F0A820"/>
<path d="M41.4624 122.526H41.2123V125.539H41.4624V122.526Z" fill="#F0A820"/>
<path d="M45.7293 134.483H26.7468V138.664H45.7293V134.483Z" fill="#F0A820"/>
<path d="M45.4362 134.749H27.0164V138.383H45.4362V134.749Z" fill="#FCE00A"/>
<path d="M27.9541 135.101H27.704V138.113H27.9541V135.101Z" fill="#F0A820"/>
<path d="M29.185 135.101H28.9349V138.113H29.185V135.101Z" fill="#F0A820"/>
<path d="M30.4119 135.101H30.1619V138.113H30.4119V135.101Z" fill="#F0A820"/>
<path d="M31.6389 135.101H31.3888V138.113H31.6389V135.101Z" fill="#F0A820"/>
<path d="M32.8657 135.101H32.6156V138.113H32.8657V135.101Z" fill="#F0A820"/>
<path d="M34.0966 135.101H33.8466V138.113H34.0966V135.101Z" fill="#F0A820"/>
<path d="M35.3236 135.101H35.0735V138.113H35.3236V135.101Z" fill="#F0A820"/>
<path d="M36.5505 135.101H36.3004V138.113H36.5505V135.101Z" fill="#F0A820"/>
<path d="M37.7816 135.101H37.5315V138.113H37.7816V135.101Z" fill="#F0A820"/>
<path d="M39.0084 135.101H38.7583V138.113H39.0084V135.101Z" fill="#F0A820"/>
<path d="M40.2354 135.101H39.9854V138.113H40.2354V135.101Z" fill="#F0A820"/>
<path d="M41.4624 135.101H41.2123V138.113H41.4624V135.101Z" fill="#F0A820"/>
<path d="M42.6932 135.101H42.4431V138.113H42.6932V135.101Z" fill="#F0A820"/>
<path d="M43.9201 135.101H43.67V138.113H43.9201V135.101Z" fill="#F0A820"/>
<path d="M45.1471 135.101H44.897V138.113H45.1471V135.101Z" fill="#F0A820"/>
<path d="M42.0445 130.294H23.062V134.475H42.0445V130.294Z" fill="#F0A820"/>
<path d="M41.7515 130.556H23.3317V134.19H41.7515V130.556Z" fill="#FCE00A"/>
<path d="M24.2734 130.908H24.0233V133.92H24.2734V130.908Z" fill="#F0A820"/>
<path d="M25.5003 130.908H25.2502V133.92H25.5003V130.908Z" fill="#F0A820"/>
<path d="M26.7274 130.908H26.4773V133.92H26.7274V130.908Z" fill="#F0A820"/>
<path d="M27.9542 130.908H27.7041V133.92H27.9542V130.908Z" fill="#F0A820"/>
<path d="M29.185 130.908H28.9349V133.92H29.185V130.908Z" fill="#F0A820"/>
<path d="M30.4119 130.908H30.1619V133.92H30.4119V130.908Z" fill="#F0A820"/>
<path d="M31.6389 130.908H31.3888V133.92H31.6389V130.908Z" fill="#F0A820"/>
<path d="M32.8658 130.908H32.6157V133.92H32.8658V130.908Z" fill="#F0A820"/>
<path d="M34.0968 130.908H33.8467V133.92H34.0968V130.908Z" fill="#F0A820"/>
<path d="M35.3236 130.908H35.0735V133.92H35.3236V130.908Z" fill="#F0A820"/>
<path d="M36.5506 130.908H36.3005V133.92H36.5506V130.908Z" fill="#F0A820"/>
<path d="M37.7816 130.908H37.5315V133.92H37.7816V130.908Z" fill="#F0A820"/>
<path d="M39.0085 130.908H38.7584V133.92H39.0085V130.908Z" fill="#F0A820"/>
<path d="M40.2354 130.908H39.9854V133.92H40.2354V130.908Z" fill="#F0A820"/>
<path d="M41.4624 130.908H41.2123V133.92H41.4624V130.908Z" fill="#F0A820"/>
<path opacity="0.1" d="M42.4002 130.521V134.221H46.0849V138.801L35.7966 138.66V138.375L35.8591 134.745V134.718L35.8669 134.483V134.225V134.19L35.9255 130.556V130.29L35.9333 130.279V130.036V129.993L35.9919 126.363V126.332L36.0037 126.098V126.09L36.0154 125.84V125.805L36.199 122.171V122.147L36.2108 121.905L36.2225 121.647V121.62L36.2381 121.354V121.342L36.4022 117.99V117.962L36.4179 117.728V117.708C36.4179 117.708 36.8203 117.708 37.2736 117.47C37.2931 117.462 37.3127 117.45 37.3322 117.435C37.7308 117.212 38.1684 116.806 38.4419 116.063C38.5591 115.747 38.649 115.372 38.692 114.926C38.7233 114.598 38.7311 114.223 38.7115 113.805C38.7115 113.793 38.7115 113.781 38.7115 113.77C38.7115 113.699 38.7037 113.625 38.6959 113.551V113.539C38.6959 113.539 38.6959 113.531 38.6959 113.527C38.6881 113.445 38.6803 113.363 38.6686 113.285C38.6686 113.269 38.6686 113.254 38.6607 113.242C38.5396 112.433 38.2153 111.789 37.7777 111.281C37.6995 111.187 37.6135 111.101 37.5276 111.015C37.2306 110.73 36.8985 110.491 36.5468 110.292C36.4647 110.245 36.3827 110.202 36.2967 110.159C35.7888 109.905 35.2652 109.729 34.7806 109.608C34.7376 109.6 34.6986 109.585 34.6556 109.577C33.9444 109.409 33.3349 109.358 33.0457 109.342C32.9246 109.335 32.8621 109.335 32.8621 109.335V109.085V109.049L32.9129 105.415V105.15L35.1245 104.892H42.3924V109.081H44.8502V113.762H43.3145V117.462H45.7723V122.143H42.3963V125.832H46.3858V130.513H42.3963L42.4002 130.521Z" fill="black"/>
<path d="M22.3586 117.474H3.3761V121.655H22.3586V117.474Z" fill="#F0A820"/>
<path d="M22.0656 117.74H3.64575V121.373H22.0656V117.74Z" fill="#FCE00A"/>
<path d="M4.58736 118.091H4.33728V121.104H4.58736V118.091Z" fill="#F0A820"/>
<path d="M5.81441 118.091H5.56433V121.104H5.81441V118.091Z" fill="#F0A820"/>
<path d="M7.04134 118.091H6.79126V121.104H7.04134V118.091Z" fill="#F0A820"/>
<path d="M8.27217 118.091H8.02209V121.104H8.27217V118.091Z" fill="#F0A820"/>
<path d="M9.4991 118.091H9.24902V121.104H9.4991V118.091Z" fill="#F0A820"/>
<path d="M10.726 118.091H10.476V121.104H10.726V118.091Z" fill="#F0A820"/>
<path d="M11.953 118.091H11.7029V121.104H11.953V118.091Z" fill="#F0A820"/>
<path d="M13.1839 118.091H12.9338V121.104H13.1839V118.091Z" fill="#F0A820"/>
<path d="M14.411 118.091H14.1609V121.104H14.411V118.091Z" fill="#F0A820"/>
<path d="M15.6378 118.091H15.3877V121.104H15.6378V118.091Z" fill="#F0A820"/>
<path d="M16.8647 118.091H16.6146V121.104H16.8647V118.091Z" fill="#F0A820"/>
<path d="M18.0957 118.091H17.8456V121.104H18.0957V118.091Z" fill="#F0A820"/>
<path d="M19.3225 118.091H19.0724V121.104H19.3225V118.091Z" fill="#F0A820"/>
<path d="M20.5495 118.091H20.2994V121.104H20.5495V118.091Z" fill="#F0A820"/>
<path d="M21.7764 118.091H21.5264V121.104H21.7764V118.091Z" fill="#F0A820"/>
<path d="M19.9048 113.285H0.922363V117.466H19.9048V113.285Z" fill="#F0A820"/>
<path d="M19.6117 113.551H1.19189V117.185H19.6117V113.551Z" fill="#FCE00A"/>
<path d="M2.12972 113.902H1.87964V116.915H2.12972V113.902Z" fill="#F0A820"/>
<path d="M3.36067 113.902H3.1106V116.915H3.36067V113.902Z" fill="#F0A820"/>
<path d="M4.58748 113.902H4.3374V116.915H4.58748V113.902Z" fill="#F0A820"/>
<path d="M5.81453 113.902H5.56445V116.915H5.81453V113.902Z" fill="#F0A820"/>
<path d="M7.04146 113.902H6.79138V116.915H7.04146V113.902Z" fill="#F0A820"/>
<path d="M8.27229 113.902H8.02222V116.915H8.27229V113.902Z" fill="#F0A820"/>
<path d="M9.49922 113.902H9.24915V116.915H9.49922V113.902Z" fill="#F0A820"/>
<path d="M10.7262 113.902H10.4761V116.915H10.7262V113.902Z" fill="#F0A820"/>
<path d="M11.9532 113.902H11.7031V116.915H11.9532V113.902Z" fill="#F0A820"/>
<path d="M13.184 113.902H12.934V116.915H13.184V113.902Z" fill="#F0A820"/>
<path d="M14.411 113.902H14.1609V116.915H14.411V113.902Z" fill="#F0A820"/>
<path d="M15.6379 113.902H15.3878V116.915H15.6379V113.902Z" fill="#F0A820"/>
<path d="M16.8648 113.902H16.6147V116.915H16.8648V113.902Z" fill="#F0A820"/>
<path d="M18.0958 113.902H17.8457V116.915H18.0958V113.902Z" fill="#F0A820"/>
<path d="M19.3227 113.902H19.0726V116.915H19.3227V113.902Z" fill="#F0A820"/>
<path d="M22.972 125.844H3.9895V130.025H22.972V125.844Z" fill="#F0A820"/>
<path d="M22.6791 126.109H4.25928V129.743H22.6791V126.109Z" fill="#FCE00A"/>
<path d="M5.20101 126.461H4.95093V129.474H5.20101V126.461Z" fill="#F0A820"/>
<path d="M6.42806 126.461H6.17798V129.474H6.42806V126.461Z" fill="#F0A820"/>
<path d="M7.65877 126.461H7.40869V129.474H7.65877V126.461Z" fill="#F0A820"/>
<path d="M8.8857 126.461H8.63562V129.474H8.8857V126.461Z" fill="#F0A820"/>
<path d="M10.1126 126.461H9.86255V129.474H10.1126V126.461Z" fill="#F0A820"/>
<path d="M11.3396 126.461H11.0895V129.474H11.3396V126.461Z" fill="#F0A820"/>
<path d="M12.5705 126.461H12.3204V129.474H12.5705V126.461Z" fill="#F0A820"/>
<path d="M13.7974 126.461H13.5474V129.474H13.7974V126.461Z" fill="#F0A820"/>
<path d="M15.0244 126.461H14.7743V129.474H15.0244V126.461Z" fill="#F0A820"/>
<path d="M16.2514 126.461H16.0013V129.474H16.2514V126.461Z" fill="#F0A820"/>
<path d="M17.4821 126.461H17.2321V129.474H17.4821V126.461Z" fill="#F0A820"/>
<path d="M18.7092 126.461H18.4591V129.474H18.7092V126.461Z" fill="#F0A820"/>
<path d="M19.936 126.461H19.6859V129.474H19.936V126.461Z" fill="#F0A820"/>
<path d="M21.163 126.461H20.913V129.474H21.163V126.461Z" fill="#F0A820"/>
<path d="M22.394 126.461H22.1439V129.474H22.394V126.461Z" fill="#F0A820"/>
<path d="M18.9826 121.655H0.00012207V125.836H18.9826V121.655Z" fill="#F0A820"/>
<path d="M18.6896 121.92H0.269775V125.554H18.6896V121.92Z" fill="#FCE00A"/>
<path d="M1.2115 122.272H0.961426V125.285H1.2115V122.272Z" fill="#F0A820"/>
<path d="M2.43843 122.272H2.18835V125.285H2.43843V122.272Z" fill="#F0A820"/>
<path d="M3.66536 122.272H3.41528V125.285H3.66536V122.272Z" fill="#F0A820"/>
<path d="M4.89217 122.272H4.64209V125.285H4.89217V122.272Z" fill="#F0A820"/>
<path d="M6.12312 122.272H5.87305V125.285H6.12312V122.272Z" fill="#F0A820"/>
<path d="M7.35005 122.272H7.09998V125.285H7.35005V122.272Z" fill="#F0A820"/>
<path d="M8.5771 122.272H8.32703V125.285H8.5771V122.272Z" fill="#F0A820"/>
<path d="M9.80391 122.272H9.55383V125.285H9.80391V122.272Z" fill="#F0A820"/>
<path d="M11.0349 122.272H10.7848V125.285H11.0349V122.272Z" fill="#F0A820"/>
<path d="M12.2618 122.272H12.0117V125.285H12.2618V122.272Z" fill="#F0A820"/>
<path d="M13.4887 122.272H13.2386V125.285H13.4887V122.272Z" fill="#F0A820"/>
<path d="M14.7157 122.272H14.4656V125.285H14.7157V122.272Z" fill="#F0A820"/>
<path d="M15.9466 122.272H15.6965V125.285H15.9466V122.272Z" fill="#F0A820"/>
<path d="M17.1737 122.272H16.9236V125.285H17.1737V122.272Z" fill="#F0A820"/>
<path d="M18.4005 122.272H18.1504V125.285H18.4005V122.272Z" fill="#F0A820"/>
<path d="M22.6674 134.229H3.68494V138.41H22.6674V134.229Z" fill="#F0A820"/>
<path d="M22.3743 134.495H3.95447V138.129H22.3743V134.495Z" fill="#FCE00A"/>
<path d="M4.89217 134.847H4.64209V137.859H4.89217V134.847Z" fill="#F0A820"/>
<path d="M6.123 134.847H5.87292V137.859H6.123V134.847Z" fill="#F0A820"/>
<path d="M7.34993 134.847H7.09985V137.859H7.34993V134.847Z" fill="#F0A820"/>
<path d="M8.57686 134.847H8.32678V137.859H8.57686V134.847Z" fill="#F0A820"/>
<path d="M9.80391 134.847H9.55383V137.859H9.80391V134.847Z" fill="#F0A820"/>
<path d="M11.0349 134.847H10.7848V137.859H11.0349V134.847Z" fill="#F0A820"/>
<path d="M12.2618 134.847H12.0117V137.859H12.2618V134.847Z" fill="#F0A820"/>
<path d="M13.4887 134.847H13.2386V137.859H13.4887V134.847Z" fill="#F0A820"/>
<path d="M14.7157 134.847H14.4656V137.859H14.7157V134.847Z" fill="#F0A820"/>
<path d="M15.9466 134.847H15.6965V137.859H15.9466V134.847Z" fill="#F0A820"/>
<path d="M17.1734 134.847H16.9233V137.859H17.1734V134.847Z" fill="#F0A820"/>
<path d="M18.4005 134.847H18.1504V137.859H18.4005V134.847Z" fill="#F0A820"/>
<path d="M19.6312 134.847H19.3811V137.859H19.6312V134.847Z" fill="#F0A820"/>
<path d="M20.8581 134.847H20.608V137.859H20.8581V134.847Z" fill="#F0A820"/>
<path d="M22.0852 134.847H21.8351V137.859H22.0852V134.847Z" fill="#F0A820"/>
<path d="M18.9826 130.041H0.00012207V134.222H18.9826V130.041Z" fill="#F0A820"/>
<path d="M18.6896 130.306H0.269775V133.94H18.6896V130.306Z" fill="#FCE00A"/>
<path d="M1.2115 130.658H0.961426V133.67H1.2115V130.658Z" fill="#F0A820"/>
<path d="M2.43843 130.658H2.18835V133.67H2.43843V130.658Z" fill="#F0A820"/>
<path d="M3.66536 130.658H3.41528V133.67H3.66536V130.658Z" fill="#F0A820"/>
<path d="M4.89217 130.658H4.64209V133.67H4.89217V130.658Z" fill="#F0A820"/>
<path d="M6.12312 130.658H5.87305V133.67H6.12312V130.658Z" fill="#F0A820"/>
<path d="M7.35005 130.658H7.09998V133.67H7.35005V130.658Z" fill="#F0A820"/>
<path d="M8.5771 130.658H8.32703V133.67H8.5771V130.658Z" fill="#F0A820"/>
<path d="M9.80391 130.658H9.55383V133.67H9.80391V130.658Z" fill="#F0A820"/>
<path d="M11.0349 130.658H10.7848V133.67H11.0349V130.658Z" fill="#F0A820"/>
<path d="M12.2618 130.658H12.0117V133.67H12.2618V130.658Z" fill="#F0A820"/>
<path d="M13.4887 130.658H13.2386V133.67H13.4887V130.658Z" fill="#F0A820"/>
<path d="M14.7157 130.658H14.4656V133.67H14.7157V130.658Z" fill="#F0A820"/>
<path d="M15.9466 130.658H15.6965V133.67H15.9466V130.658Z" fill="#F0A820"/>
<path d="M17.1737 130.658H16.9236V133.67H17.1737V130.658Z" fill="#F0A820"/>
<path d="M18.4005 130.658H18.1504V133.67H18.4005V130.658Z" fill="#F0A820"/>
<path opacity="0.1" d="M19.3419 130.271V133.971H23.0267V138.402H22.6672L15.9464 138.379C15.9385 138.293 15.9307 138.211 15.9112 138.129C15.8956 138.035 15.8721 137.949 15.8409 137.859C15.8057 137.746 15.7549 137.637 15.6963 137.527C15.4775 137.105 15.1297 136.718 14.7155 136.374C14.6374 136.308 14.5514 136.242 14.4654 136.179C14.1567 135.945 13.8207 135.734 13.4847 135.542C13.4026 135.495 13.3205 135.448 13.2346 135.405C12.8946 135.222 12.5586 135.065 12.2538 134.933C12.1835 134.901 12.1131 134.87 12.0467 134.843C11.6169 134.663 11.2769 134.546 11.1206 134.491C11.062 134.472 11.0269 134.46 11.0269 134.46L11.0347 134.225V134.218L11.0464 133.967V133.932L11.2066 130.302V130.291C11.2418 130.283 11.2691 130.279 11.3043 130.267C11.5856 130.205 11.8396 130.13 12.0662 130.033C12.0741 130.033 12.0858 130.025 12.0975 130.021C12.2733 129.951 12.4335 129.869 12.5781 129.779C12.5977 129.767 12.6211 129.755 12.6406 129.74C13.047 129.482 13.3362 129.165 13.5394 128.825C13.641 128.653 13.723 128.474 13.7894 128.298C14.0786 127.489 14.0083 126.633 13.9106 126.106C13.9106 126.098 13.9106 126.086 13.9106 126.078C13.891 125.988 13.8754 125.91 13.8598 125.844V125.836C13.8246 125.68 13.7933 125.586 13.7933 125.586V121.655C13.7933 121.655 14.4732 121.776 15.3876 121.655C15.3954 121.655 15.4032 121.655 15.4071 121.655C15.7705 121.604 16.0167 121.518 16.1691 121.401C16.1769 121.393 16.1886 121.385 16.2003 121.374C16.5637 121.057 16.2472 120.541 15.6338 119.979C15.5556 119.904 15.4696 119.83 15.3837 119.756C15.0906 119.51 14.7585 119.26 14.4029 119.017C14.3208 118.959 14.2388 118.904 14.1528 118.846C13.8246 118.627 13.4925 118.416 13.1721 118.22C13.1017 118.181 13.0314 118.138 12.965 118.095C12.754 117.97 12.5547 117.853 12.371 117.744C12.3515 117.736 12.3359 117.72 12.3163 117.712C12.1639 117.623 12.0233 117.548 11.8982 117.478C11.8982 117.478 11.8904 117.478 11.8865 117.47C11.6833 117.357 11.527 117.275 11.4332 117.22C11.402 117.204 11.3824 117.193 11.3629 117.185C11.3434 117.177 11.3355 117.169 11.3355 117.169L11.2379 113.555L11.23 113.289L11.2222 113.031H20.2524V117.22H22.7024L22.7102 117.267V121.901H19.3341V125.59H23.3237V130.271H19.3341H19.3419Z" fill="black"/>
<path d="M117.154 125.289H98.1713V129.47H117.154V125.289Z" fill="#F0A820"/>
<path d="M116.861 125.554H98.4409V129.188H116.861V125.554Z" fill="#FCE00A"/>
<path d="M99.3826 125.906H99.1326V128.919H99.3826V125.906Z" fill="#F0A820"/>
<path d="M100.61 125.906H100.359V128.919H100.61V125.906Z" fill="#F0A820"/>
<path d="M101.837 125.906H101.587V128.919H101.837V125.906Z" fill="#F0A820"/>
<path d="M103.067 125.906H102.817V128.919H103.067V125.906Z" fill="#F0A820"/>
<path d="M104.294 125.906H104.044V128.919H104.294V125.906Z" fill="#F0A820"/>
<path d="M105.521 125.906H105.271V128.919H105.521V125.906Z" fill="#F0A820"/>
<path d="M106.748 125.906H106.498V128.919H106.748V125.906Z" fill="#F0A820"/>
<path d="M107.979 125.906H107.729V128.919H107.979V125.906Z" fill="#F0A820"/>
<path d="M109.206 125.906H108.956V128.919H109.206V125.906Z" fill="#F0A820"/>
<path d="M110.433 125.906H110.183V128.919H110.433V125.906Z" fill="#F0A820"/>
<path d="M111.66 125.906H111.41V128.919H111.66V125.906Z" fill="#F0A820"/>
<path d="M112.891 125.906H112.641V128.919H112.891V125.906Z" fill="#F0A820"/>
<path d="M114.118 125.906H113.868V128.919H114.118V125.906Z" fill="#F0A820"/>
<path d="M115.345 125.906H115.095V128.919H115.345V125.906Z" fill="#F0A820"/>
<path d="M116.572 125.906H116.322V128.919H116.572V125.906Z" fill="#F0A820"/>
<path d="M113.164 121.1H94.1819V125.281H113.164V121.1Z" fill="#F0A820"/>
<path d="M112.871 121.366H94.4515V125H112.871V121.366Z" fill="#FCE00A"/>
<path d="M95.3931 121.718H95.1431V124.73H95.3931V121.718Z" fill="#F0A820"/>
<path d="M96.6202 121.718H96.3701V124.73H96.6202V121.718Z" fill="#F0A820"/>
<path d="M97.847 121.718H97.5969V124.73H97.847V121.718Z" fill="#F0A820"/>
<path d="M99.0741 121.718H98.824V124.73H99.0741V121.718Z" fill="#F0A820"/>
<path d="M100.305 121.718H100.055V124.73H100.305V121.718Z" fill="#F0A820"/>
<path d="M101.532 121.718H101.282V124.73H101.532V121.718Z" fill="#F0A820"/>
<path d="M102.759 121.718H102.509V124.73H102.759V121.718Z" fill="#F0A820"/>
<path d="M103.986 121.718H103.736V124.73H103.986V121.718Z" fill="#F0A820"/>
<path d="M105.217 121.718H104.967V124.73H105.217V121.718Z" fill="#F0A820"/>
<path d="M106.443 121.718H106.193V124.73H106.443V121.718Z" fill="#F0A820"/>
<path d="M107.67 121.718H107.42V124.73H107.67V121.718Z" fill="#F0A820"/>
<path d="M108.897 121.718H108.647V124.73H108.897V121.718Z" fill="#F0A820"/>
<path d="M110.128 121.718H109.878V124.73H110.128V121.718Z" fill="#F0A820"/>
<path d="M111.355 121.718H111.105V124.73H111.355V121.718Z" fill="#F0A820"/>
<path d="M112.582 121.718H112.332V124.73H112.582V121.718Z" fill="#F0A820"/>
<path d="M116.849 133.675H97.8666V137.856H116.849V133.675Z" fill="#F0A820"/>
<path d="M116.556 133.94H98.1361V137.574H116.556V133.94Z" fill="#FCE00A"/>
<path d="M99.0739 134.292H98.8239V137.305H99.0739V134.292Z" fill="#F0A820"/>
<path d="M100.305 134.292H100.055V137.305H100.305V134.292Z" fill="#F0A820"/>
<path d="M101.532 134.292H101.282V137.305H101.532V134.292Z" fill="#F0A820"/>
<path d="M102.759 134.292H102.508V137.305H102.759V134.292Z" fill="#F0A820"/>
<path d="M103.986 134.292H103.735V137.305H103.986V134.292Z" fill="#F0A820"/>
<path d="M105.216 134.292H104.966V137.305H105.216V134.292Z" fill="#F0A820"/>
<path d="M106.443 134.292H106.193V137.305H106.443V134.292Z" fill="#F0A820"/>
<path d="M107.67 134.292H107.42V137.305H107.67V134.292Z" fill="#F0A820"/>
<path d="M108.897 134.292H108.647V137.305H108.897V134.292Z" fill="#F0A820"/>
<path d="M110.128 134.292H109.878V137.305H110.128V134.292Z" fill="#F0A820"/>
<path d="M111.355 134.292H111.105V137.305H111.355V134.292Z" fill="#F0A820"/>
<path d="M112.582 134.292H112.332V137.305H112.582V134.292Z" fill="#F0A820"/>
<path d="M113.809 134.292H113.559V137.305H113.809V134.292Z" fill="#F0A820"/>
<path d="M115.04 134.292H114.79V137.305H115.04V134.292Z" fill="#F0A820"/>
<path d="M116.267 134.292H116.017V137.305H116.267V134.292Z" fill="#F0A820"/>
<path d="M113.164 129.486H94.1819V133.667H113.164V129.486Z" fill="#F0A820"/>
<path d="M112.871 129.751H94.4515V133.385H112.871V129.751Z" fill="#FCE00A"/>
<path d="M95.3931 130.103H95.1431V133.116H95.3931V130.103Z" fill="#F0A820"/>
<path d="M96.6202 130.103H96.3701V133.116H96.6202V130.103Z" fill="#F0A820"/>
<path d="M97.847 130.103H97.5969V133.116H97.847V130.103Z" fill="#F0A820"/>
<path d="M99.0741 130.103H98.824V133.116H99.0741V130.103Z" fill="#F0A820"/>
<path d="M100.305 130.103H100.055V133.116H100.305V130.103Z" fill="#F0A820"/>
<path d="M101.532 130.103H101.282V133.116H101.532V130.103Z" fill="#F0A820"/>
<path d="M102.759 130.103H102.509V133.116H102.759V130.103Z" fill="#F0A820"/>
<path d="M103.986 130.103H103.736V133.116H103.986V130.103Z" fill="#F0A820"/>
<path d="M105.217 130.103H104.967V133.116H105.217V130.103Z" fill="#F0A820"/>
<path d="M106.443 130.103H106.193V133.116H106.443V130.103Z" fill="#F0A820"/>
<path d="M107.67 130.103H107.42V133.116H107.67V130.103Z" fill="#F0A820"/>
<path d="M108.897 130.103H108.647V133.116H108.897V130.103Z" fill="#F0A820"/>
<path d="M110.128 130.103H109.878V133.116H110.128V130.103Z" fill="#F0A820"/>
<path d="M111.355 130.103H111.105V133.116H111.355V130.103Z" fill="#F0A820"/>
<path d="M112.582 130.103H112.332V133.116H112.582V130.103Z" fill="#F0A820"/>
<path opacity="0.1" d="M113.524 129.716V133.42H117.209V138.102H106.193V133.713C106.193 133.713 106.264 133.713 106.385 133.674C106.385 133.674 106.393 133.671 106.397 133.671C106.514 133.631 106.674 133.557 106.858 133.42C106.873 133.413 106.885 133.401 106.901 133.385C107.061 133.26 107.241 133.088 107.424 132.846C107.506 132.744 107.588 132.631 107.67 132.502C108.006 131.971 108.35 131.205 108.651 130.103C108.682 129.982 108.714 129.865 108.733 129.751C108.741 129.74 108.741 129.728 108.741 129.716C108.761 129.638 108.776 129.56 108.784 129.486C108.784 129.482 108.784 129.478 108.784 129.474C108.8 129.392 108.811 129.31 108.815 129.232C108.815 129.216 108.823 129.2 108.823 129.189C108.968 127.829 108.503 126.934 107.975 126.371C107.893 126.281 107.807 126.199 107.725 126.129C107.338 125.789 106.967 125.617 106.819 125.555C106.772 125.535 106.748 125.527 106.748 125.527V120.846H113.52V125.035H117.509V129.716H113.52H113.524Z" fill="black"/>
<path d="M136.371 133.714H117.388V137.895H136.371V133.714Z" fill="#F0A820"/>
<path d="M136.078 133.979H117.658V137.613H136.078V133.979Z" fill="#FCE00A"/>
<path d="M118.599 134.331H118.349V137.343H118.599V134.331Z" fill="#F0A820"/>
<path d="M119.826 134.331H119.576V137.343H119.826V134.331Z" fill="#F0A820"/>
<path d="M121.053 134.331H120.803V137.343H121.053V134.331Z" fill="#F0A820"/>
<path d="M122.284 134.331H122.034V137.343H122.284V134.331Z" fill="#F0A820"/>
<path d="M123.511 134.331H123.261V137.343H123.511V134.331Z" fill="#F0A820"/>
<path d="M124.738 134.331H124.488V137.343H124.738V134.331Z" fill="#F0A820"/>
<path d="M125.965 134.331H125.715V137.343H125.965V134.331Z" fill="#F0A820"/>
<path d="M127.196 134.331H126.946V137.343H127.196V134.331Z" fill="#F0A820"/>
<path d="M128.423 134.331H128.173V137.343H128.423V134.331Z" fill="#F0A820"/>
<path d="M129.65 134.331H129.4V137.343H129.65V134.331Z" fill="#F0A820"/>
<path d="M130.877 134.331H130.627V137.343H130.877V134.331Z" fill="#F0A820"/>
<path d="M132.108 134.331H131.858V137.343H132.108V134.331Z" fill="#F0A820"/>
<path d="M133.335 134.331H133.085V137.343H133.335V134.331Z" fill="#F0A820"/>
<path d="M134.562 134.331H134.312V137.343H134.562V134.331Z" fill="#F0A820"/>
<path d="M135.789 134.331H135.538V137.343H135.789V134.331Z" fill="#F0A820"/>
<path d="M136.371 129.493H117.388V133.674H136.371V129.493Z" fill="#F0A820"/>
<path d="M136.078 129.759H117.658V133.393H136.078V129.759Z" fill="#FCE00A"/>
<path d="M118.599 130.111H118.349V133.124H118.599V130.111Z" fill="#F0A820"/>
<path d="M119.826 130.111H119.576V133.124H119.826V130.111Z" fill="#F0A820"/>
<path d="M121.053 130.111H120.803V133.124H121.053V130.111Z" fill="#F0A820"/>
<path d="M122.284 130.111H122.034V133.124H122.284V130.111Z" fill="#F0A820"/>
<path d="M123.511 130.111H123.261V133.124H123.511V130.111Z" fill="#F0A820"/>
<path d="M124.738 130.111H124.488V133.124H124.738V130.111Z" fill="#F0A820"/>
<path d="M125.965 130.111H125.715V133.124H125.965V130.111Z" fill="#F0A820"/>
<path d="M127.196 130.111H126.946V133.124H127.196V130.111Z" fill="#F0A820"/>
<path d="M128.423 130.111H128.173V133.124H128.423V130.111Z" fill="#F0A820"/>
<path d="M129.65 130.111H129.4V133.124H129.65V130.111Z" fill="#F0A820"/>
<path d="M130.877 130.111H130.627V133.124H130.877V130.111Z" fill="#F0A820"/>
<path d="M132.108 130.111H131.858V133.124H132.108V130.111Z" fill="#F0A820"/>
<path d="M133.335 130.111H133.085V133.124H133.335V130.111Z" fill="#F0A820"/>
<path d="M134.562 130.111H134.312V133.124H134.562V130.111Z" fill="#F0A820"/>
<path d="M135.789 130.111H135.538V133.124H135.789V130.111Z" fill="#F0A820"/>
<path d="M136.382 125.285H117.4V129.466H136.382V125.285Z" fill="#F0A820"/>
<path d="M136.089 125.551H117.669V129.184H136.089V125.551Z" fill="#FCE00A"/>
<path d="M118.611 125.903H118.361V128.915H118.611V125.903Z" fill="#F0A820"/>
<path d="M119.838 125.903H119.588V128.915H119.838V125.903Z" fill="#F0A820"/>
<path d="M121.069 125.903H120.819V128.915H121.069V125.903Z" fill="#F0A820"/>
<path d="M122.296 125.903H122.046V128.915H122.296V125.903Z" fill="#F0A820"/>
<path d="M123.523 125.903H123.273V128.915H123.523V125.903Z" fill="#F0A820"/>
<path d="M124.75 125.903H124.5V128.915H124.75V125.903Z" fill="#F0A820"/>
<path d="M125.981 125.903H125.731V128.915H125.981V125.903Z" fill="#F0A820"/>
<path d="M127.207 125.903H126.957V128.915H127.207V125.903Z" fill="#F0A820"/>
<path d="M128.435 125.903H128.184V128.915H128.435V125.903Z" fill="#F0A820"/>
<path d="M129.661 125.903H129.411V128.915H129.661V125.903Z" fill="#F0A820"/>
<path d="M130.892 125.903H130.642V128.915H130.892V125.903Z" fill="#F0A820"/>
<path d="M132.119 125.903H131.869V128.915H132.119V125.903Z" fill="#F0A820"/>
<path d="M133.346 125.903H133.096V128.915H133.346V125.903Z" fill="#F0A820"/>
<path d="M134.573 125.903H134.323V128.915H134.573V125.903Z" fill="#F0A820"/>
<path d="M135.804 125.903H135.554V128.915H135.804V125.903Z" fill="#F0A820"/>
<path opacity="0.1" d="M136.742 125.027V129.708H136.73V138.141H128.173V125.027H136.742Z" fill="black"/>
</g>
<defs>
<filter id="filter0_d_18118_2743" x="36.4254" y="61.0398" width="66.7629" height="81.9147" filterUnits="userSpaceOnUse" color-interpolation-filters="sRGB">
<feFlood flood-opacity="0" result="BackgroundImageFix"/>
<feColorMatrix in="SourceAlpha" type="matrix" values="0 0 0 0 0 0 0 0 0 0 0 0 0 0 0 0 0 0 127 0" result="hardAlpha"/>
<feOffset dx="2.34448" dy="2.73523"/>
<feColorMatrix type="matrix" values="0 0 0 0 0 0 0 0 0 0 0 0 0 0 0 0 0 0 0.15 0"/>
<feBlend mode="normal" in2="BackgroundImageFix" result="effect1_dropShadow_18118_2743"/>
<feBlend mode="normal" in="SourceGraphic" in2="effect1_dropShadow_18118_2743" result="shape"/>
</filter>
<filter id="filter1_d_18118_2743" x="52.4617" y="83.1157" width="33.3112" height="4.45903" filterUnits="userSpaceOnUse" color-interpolation-filters="sRGB">
<feFlood flood-opacity="0" result="BackgroundImageFix"/>
<feColorMatrix in="SourceAlpha" type="matrix" values="0 0 0 0 0 0 0 0 0 0 0 0 0 0 0 0 0 0 127 0" result="hardAlpha"/>
<feOffset dy="0.922162"/>
<feColorMatrix type="matrix" values="0 0 0 0 0 0 0 0 0 0 0 0 0 0 0 0 0 0 0.1 0"/>
<feBlend mode="normal" in2="BackgroundImageFix" result="effect1_dropShadow_18118_2743"/>
<feBlend mode="normal" in="SourceGraphic" in2="effect1_dropShadow_18118_2743" result="shape"/>
</filter>
<filter id="filter2_d_18118_2743" x="55.5328" y="79.2822" width="27.4773" height="4.75932" filterUnits="userSpaceOnUse" color-interpolation-filters="sRGB">
<feFlood flood-opacity="0" result="BackgroundImageFix"/>
<feColorMatrix in="SourceAlpha" type="matrix" values="0 0 0 0 0 0 0 0 0 0 0 0 0 0 0 0 0 0 127 0" result="hardAlpha"/>
<feOffset dy="0.922162"/>
<feColorMatrix type="matrix" values="0 0 0 0 0 0 0 0 0 0 0 0 0 0 0 0 0 0 0.1 0"/>
<feBlend mode="normal" in2="BackgroundImageFix" result="effect1_dropShadow_18118_2743"/>
<feBlend mode="normal" in="SourceGraphic" in2="effect1_dropShadow_18118_2743" result="shape"/>
</filter>
<filter id="filter3_d_18118_2743" x="58.194" y="75.5977" width="21.6942" height="4.75932" filterUnits="userSpaceOnUse" color-interpolation-filters="sRGB">
<feFlood flood-opacity="0" result="BackgroundImageFix"/>
<feColorMatrix in="SourceAlpha" type="matrix" values="0 0 0 0 0 0 0 0 0 0 0 0 0 0 0 0 0 0 127 0" result="hardAlpha"/>
<feOffset dy="0.922162"/>
<feColorMatrix type="matrix" values="0 0 0 0 0 0 0 0 0 0 0 0 0 0 0 0 0 0 0.1 0"/>
<feBlend mode="normal" in2="BackgroundImageFix" result="effect1_dropShadow_18118_2743"/>
<feBlend mode="normal" in="SourceGraphic" in2="effect1_dropShadow_18118_2743" result="shape"/>
</filter>
<clipPath id="clip0_18118_2743">
<rect width="138" height="142.568" fill="white" transform="translate(0 0.386719)"/>
</clipPath>
</defs>
</svg>
