<svg width="138" height="143" viewBox="0 0 138 143" fill="none" xmlns="http://www.w3.org/2000/svg">
<g clip-path="url(#clip0_18118_2213)">
<path d="M134.533 96.6694C132.485 104.063 129.497 111.289 125.128 117.626C120.89 123.777 115.283 129.104 108.427 132.2C101.935 135.129 94.4646 136.216 87.4728 134.641C84.003 133.861 80.6837 132.393 77.8311 130.262C74.6561 127.888 72.1074 124.824 69.7676 121.655C65.134 115.376 60.8597 108.049 53.5394 104.552C45.8751 100.891 37.4124 104.235 29.4411 102.427C26.0757 101.662 23.1248 99.8198 20.9877 97.1115C18.9733 94.5568 17.7236 91.4739 16.9375 88.3388C16.0992 85.0102 15.7768 81.5803 15.697 78.1535C15.5957 73.9682 15.7799 69.7799 16.2313 65.6161C16.6489 61.7901 17.2968 57.9887 18.1627 54.2395C18.3439 53.088 18.5527 51.9396 18.786 50.7973C20.3736 42.9918 23.1433 35.4319 27.2057 28.5691C30.9242 22.2958 35.6714 16.6028 41.3152 11.9723C47.0573 7.262 53.7175 3.70622 60.8997 1.78708C68.5977 -0.27331 76.7318 -0.506678 84.5711 0.850538C92.4227 2.21082 99.9734 5.17705 106.649 9.53119C112.904 13.6121 118.382 18.8321 122.902 24.7676C127.452 30.7431 131.039 37.4462 133.535 44.5271C136.449 52.7963 137.874 61.5629 137.991 70.3203C138.114 79.2036 136.904 88.1115 134.533 96.6694Z" fill="#F4F3F4"/>
<path d="M24.9263 41.7015C25.1907 35.1744 20.1138 29.6688 13.5868 29.4044C7.05966 29.1399 1.55403 34.2168 1.2896 40.7439C1.02516 47.271 6.10205 52.7766 12.6291 53.0411C19.1562 53.3055 24.6619 48.2286 24.9263 41.7015Z" fill="#E8A03F"/>
<path d="M21.3655 46.595C24.3367 42.0336 23.0476 35.9273 18.4863 32.9561C13.925 29.9848 7.81864 31.2739 4.84741 35.8352C1.87618 40.3965 3.16522 46.5029 7.72655 49.4741C12.2879 52.4453 18.3942 51.1563 21.3655 46.595Z" fill="#ECB45E"/>
<path d="M41.8833 19.6826L40.0685 25.6304L38.6837 24.1473L32.4288 29.9815L29.9109 27.2824L25.5076 31.394L23.4626 29.2077L20.4565 32.0142L19.0992 30.5588L23.5609 26.3981L25.6028 28.5844L30.0092 24.4759L32.524 27.1719L37.3265 22.6918L35.8249 21.0859L41.8833 19.6826Z" fill="#F26E10"/>
<path d="M26.2538 59.1526L30.6909 63.0278C28.9068 63.9612 24.9365 66.2857 23.3582 69.1936L21.3132 65.079L15.5128 62.0206C15.5128 62.0206 7.59978 59.9019 7.15454 59.5242C6.7093 59.1373 4.15761 55.907 4.15761 55.907L0.00305176 52.517C1.86692 50.865 3.51278 52.1455 3.51278 52.1455C3.51278 52.1455 4.31114 51.5928 5.27224 51.8384C6.23028 52.0841 9.12895 54.3686 9.12895 54.3686L17.435 56.5273L12.8076 52.4249C13.6213 50.7729 15.1781 51.4392 15.1781 51.4392C15.1781 51.4392 23.4381 54.4638 24.2825 55.5416C25.1361 56.6194 26.26 59.1526 26.26 59.1526H26.2538Z" fill="#FFB17E"/>
<path d="M33.3224 64.2805C31.4309 64.4678 29.5455 64.6612 27.6602 64.8608C28.6182 64.1884 29.5517 63.6418 30.264 63.2549C30.869 63.1935 31.4831 63.129 32.0941 63.0737L33.3193 64.2805H33.3224Z" fill="#A0A8FB"/>
<path d="M71.6038 50.3457L71.1524 51.5924L71.005 50.3795C71.2046 50.3733 71.4042 50.358 71.6038 50.3457Z" fill="#7F85FA"/>
<path d="M113.119 66.7461L102.476 65.8218L101.638 71.4626L101.438 72.8075L99.6081 85.1882L99.4023 86.5455L98.6439 91.6796H98.6377V91.6918L97.9438 96.3684L98.604 103.28L98.7299 104.613L99.2365 109.974C99.2365 109.974 98.9049 110.146 98.2908 110.441C94.7872 112.133 82.1792 117.826 71.65 117.746C61.9806 117.672 53.7145 112.004 50.5825 109.548C49.7166 108.863 49.2437 108.43 49.2437 108.43L49.7565 104.978L49.9561 103.661L50.7299 98.4933C50.7299 98.4933 44.8036 98.8065 42.2703 95.7819C42.0185 95.4748 41.6101 94.9682 41.0973 94.3111C40.8179 93.958 40.5047 93.5526 40.1577 93.1043C37.2191 89.309 32.1864 82.6488 28.3082 77.4994C27.9827 77.0603 27.6633 76.6396 27.3501 76.2282C24.7647 72.7921 22.8947 70.2927 22.8947 70.2927C23.0083 69.9211 23.1679 69.5526 23.3614 69.1934C24.2795 67.4953 26.0175 65.9907 27.6633 64.8576C28.6214 64.1852 29.5548 63.6386 30.2672 63.2517C30.4208 63.1719 30.5589 63.092 30.694 63.0245C31.2468 62.7328 31.5937 62.5731 31.5937 62.5731L32.1004 63.0736L33.3256 64.2804L43.8762 74.6714C43.8762 74.6714 45.0431 69.1105 46.4801 63.0306C46.5814 62.5792 46.692 62.1248 46.7995 61.6734C47.5395 58.5966 48.3317 55.4861 49.0717 52.9743C49.213 52.4953 49.345 52.0409 49.477 51.6171C50.1035 49.6243 50.6684 48.1934 51.0953 47.7666C53.1342 45.7277 65.0021 42.8658 65.0021 42.8658C64.3297 45.3623 67.5661 50.4503 67.5661 50.4503C67.999 48.1135 70.3696 45.1166 70.3696 45.1166L71.0083 50.3858L71.1556 51.5987L71.607 50.352L73.1915 45.9825C73.1915 45.9825 74.3184 47.3275 75.1444 50.1524C75.2641 50.5577 75.3778 50.9907 75.476 51.4636C75.4883 51.5035 75.5037 51.5496 75.5098 51.5956C75.5098 51.5956 75.6173 51.5434 75.8015 51.4421C76.2621 51.2087 77.2263 50.6898 78.4392 49.9621C81.8414 47.9109 87.172 44.1862 88.4494 40.3111C88.4494 40.3111 88.2682 39.7184 87.8629 38.9262C89.7759 38.6007 91.9192 40.0439 91.9192 40.0439C91.9192 40.0439 98.8189 44.048 106.277 48.3684C106.978 48.7676 107.675 49.1729 108.375 49.5813C113.496 52.5383 118.597 55.4892 121.677 57.2394C122.644 57.7921 123.408 58.2312 123.915 58.5107C124.035 58.5782 124.142 58.6366 124.228 58.6826L113.119 66.743V66.7461Z" fill="#258EC9"/>
<path d="M98.2845 110.441L104.598 142.191H72.2026L70.3633 136.636L69.0522 142.191H42.2057L50.5762 109.55C53.7052 112.007 61.9713 117.675 71.6438 117.749C82.1729 117.829 94.7809 112.136 98.2845 110.444V110.441Z" fill="#222A40"/>
<path d="M87.8629 38.9263C88.2682 39.7185 88.4493 40.3112 88.4493 40.3112C86.5302 46.1269 75.5097 51.5927 75.5097 51.5927C74.7052 47.782 73.1914 45.9796 73.1914 45.9796C79.8854 41.6899 82.7564 37.4002 82.7564 37.4002L82.4555 34.9038C85.3541 34.9376 87.0583 37.3357 87.8629 38.9263Z" fill="#258EC9"/>
<path d="M80.9815 30.8597C78.9426 35.6346 74.1494 37.4862 73.1822 38.0266C72.522 38.3858 70.5168 38.6929 68.6653 38.7328C68.5332 38.739 68.3981 38.739 68.2661 38.739C66.9795 38.739 65.828 38.5977 65.3429 38.2385C64.1115 37.3449 61.9007 32.0696 61.2466 28.9621C60.7001 26.3582 60.8935 18.3992 60.9672 15.9089C64.3111 17.6991 69.6509 12.958 69.6509 12.958C69.6509 12.958 67.219 16.2006 69.0061 16.3418C70.7901 16.4831 77.478 12.958 77.478 12.958C77.478 16.9867 80.7605 19.6857 80.7605 19.6857C81.0399 18.8413 82.7441 18.0552 82.7441 18.0552C83.1709 17.9539 83.6223 17.9539 84.0552 18.0337C84.7952 18.1934 85.4524 18.6264 85.9467 19.2006C86.1064 19.3879 86.2477 19.5875 86.3674 19.7932C86.8526 20.653 87.0215 21.6847 86.9263 22.6643C86.7789 24.1105 86.0818 25.4831 85.001 26.4473C84.1166 27.2456 82.9682 27.7584 81.783 27.8935C81.7553 28.0993 81.7216 28.2988 81.6816 28.4984C81.5281 29.3582 81.2825 30.1443 80.9754 30.8628L80.9815 30.8597Z" fill="#FFB17E"/>
<path d="M82.4524 34.9035L82.7533 37.3999C82.7533 37.3999 79.8823 41.6896 73.1883 45.9793L71.1494 51.5924L70.3633 45.1133C70.3633 45.1133 68.739 43.796 68.2661 42.6753C80.4473 42.7213 80.9662 31.3047 80.9816 30.8595C81.2886 30.141 81.5343 29.3549 81.6878 28.4951L82.4524 34.9035Z" fill="#FFB17E"/>
<path d="M73.1822 38.0265C74.1464 37.486 78.9427 35.6344 80.9816 30.8596C80.9693 31.3049 80.4473 42.7214 68.2661 42.6754L68.6653 38.7327C70.5169 38.6928 72.522 38.3857 73.1822 38.0265Z" fill="#FFB17E"/>
<path d="M68.2662 42.6752C68.7391 43.793 70.3635 45.1133 70.3635 45.1133C70.3635 45.1133 67.9929 48.1102 67.56 50.447C67.56 50.447 64.3235 45.359 64.996 42.8595C64.996 42.8595 65.2816 40.1297 68.2662 38.9229V38.7356C68.3983 38.7356 68.5334 38.7356 68.6654 38.7295L68.2662 42.6722V42.6752Z" fill="#258EC9"/>
<path d="M85.9499 19.1975C85.4586 18.6233 84.7984 18.1904 84.0584 18.0307C83.6254 17.9509 83.174 17.9509 82.7472 18.0522C82.7472 18.0522 81.043 18.8383 80.7636 19.6827C80.7636 19.6827 77.4811 16.9867 77.4811 12.955C77.4811 12.955 70.7933 16.477 69.0092 16.3388C67.2252 16.1975 69.6541 12.955 69.6541 12.955C69.6541 12.955 64.3112 17.696 60.9703 15.9058C60.172 15.4729 59.478 14.6684 59.0113 13.3296C59.0113 13.3296 55.7226 7.63357 56.2354 5.55169C56.7298 3.5128 62.8281 6.11668 63.1075 6.23644C63.0614 6.04913 62.3091 3.27943 62.9141 2.40123C63.5466 1.50154 67.2958 3.58649 68.5026 3.42068C68.7298 3.3869 69.1689 3.30706 69.74 3.19959C72.218 2.72672 77.26 1.74719 78.912 2.174C80.9509 2.70829 81.3224 6.19652 81.3224 6.19652C81.3224 6.19652 85.4187 6.6172 86.3183 8.37359C87.2242 10.1331 85.953 19.1975 85.953 19.1975H85.9499Z" fill="#221F20"/>
<path d="M66.6111 28.7288C66.5865 28.7288 66.5589 28.7257 66.5343 28.7165C65.3951 28.3112 64.3756 27.6018 63.5834 26.6684C63.1167 26.1187 63.1228 25.2866 63.5988 24.694C65.0543 22.87 66.3193 20.8895 67.3603 18.8045C67.4156 18.6909 67.5568 18.6448 67.6704 18.7001C67.784 18.7584 67.8301 18.8966 67.7748 19.0102C66.7185 21.1228 65.4381 23.1341 63.9611 24.9795C63.6233 25.4033 63.6141 25.9867 63.9396 26.3705C64.6796 27.2426 65.6315 27.9058 66.694 28.2835C66.8137 28.3265 66.8751 28.4586 66.8321 28.5783C66.7984 28.6735 66.7093 28.7318 66.6141 28.7318L66.6111 28.7288Z" fill="#222A40"/>
<path d="M70.8271 20.3489C70.8947 21.2732 71.604 21.9764 72.4085 21.918C73.213 21.8597 73.8117 21.0613 73.7442 20.134C73.6766 19.2097 72.9673 18.5066 72.1628 18.5649C71.3583 18.6232 70.7595 19.4216 70.8271 20.3489Z" fill="#222A40"/>
<path d="M61.6551 21.0213C61.7227 21.9456 62.432 22.6487 63.2365 22.5904C64.041 22.532 64.6397 21.7337 64.5722 20.8064C64.5046 19.8821 63.7953 19.1789 62.9908 19.2373C62.1863 19.2956 61.5875 20.094 61.6551 21.0213Z" fill="#222A40"/>
<path d="M65.0787 31.7995C65.6775 32.7422 67.1422 34.4003 69.7522 33.7647C72.135 33.1936 72.568 30.9213 72.6171 29.7606C72.6386 29.4014 72.3009 29.1373 71.96 29.2294L65.3889 31.0349C65.048 31.1271 64.8914 31.517 65.0787 31.8026V31.7995Z" fill="white"/>
<path d="M125.466 87.7553C124.68 91.1729 123.006 93.8167 120.74 95.6867L119.263 93.3039C114.7 93.3224 111.746 96.0644 111.746 96.0644L112.207 99.046C110.607 99.2087 108.934 99.1688 107.229 98.9477C106.741 98.8894 106.241 98.8065 105.74 98.7082C105.458 98.6468 105.169 98.5946 104.88 98.5271L101.358 97.7195L99.8199 97.3633C100.001 97.262 100.17 97.1606 100.327 97.0624C100.428 97.001 100.526 96.9396 100.6 96.8597C101.561 96.0798 101.8 94.6765 101.131 93.5895L100.115 91.9406L98.7605 89.7482C94.2068 89.7727 91.2467 92.5209 91.2467 92.5209L91.6643 95.22C89.9325 94.5506 88.3634 93.6908 86.9724 92.6652C84.5589 90.8966 82.7257 88.6274 81.7278 85.9621C80.9509 83.8925 80.6776 81.5895 81.0185 79.1023C81.0891 78.6141 81.1812 78.1228 81.2948 77.6161C82.0164 74.4626 83.5579 71.6898 85.649 69.4943C86.0482 69.0675 86.4688 68.6652 86.911 68.2814C87.6111 67.6704 88.3573 67.1176 89.1433 66.6263C89.8803 66.1658 90.651 65.7543 91.4525 65.4073C94.7994 63.9334 98.6377 63.482 102.464 64.3633L112.207 66.5987C116.125 67.4923 119.447 69.6571 121.833 72.5434C122.441 73.2773 122.975 74.045 123.458 74.8679C125.671 78.6202 126.513 83.2016 125.466 87.7553Z" fill="#A1CBF1"/>
<path d="M121.63 97.1361C122.355 98.3183 122.005 99.8751 120.82 100.606C119.469 101.435 117.54 102.368 115.302 102.722C113.929 102.937 112.652 101.969 112.44 100.597L112.201 99.043L111.743 96.0614C111.743 96.0614 114.697 93.3193 119.257 93.2979L120.734 95.6868L121.627 97.1361H121.63Z" fill="#258EC9"/>
<path d="M124.618 72.6326C124.44 73.4617 124.047 74.2631 123.457 74.8619C122.975 74.0451 122.441 73.2713 121.833 72.5436C122.512 72.3593 123.135 71.9847 123.596 71.4596C124.231 70.7411 124.56 69.7677 124.483 68.8127C124.732 70.0748 124.891 71.3767 124.615 72.6295L124.618 72.6326Z" fill="#7C72FA"/>
<path d="M105.743 98.7052C106.241 98.8004 106.738 98.8802 107.229 98.9416C106.357 99.915 104.582 100.339 103.532 99.608C102.709 99.0338 101.985 98.3828 101.358 97.7134L104.88 98.521C105.166 98.5854 105.454 98.6469 105.743 98.7052Z" fill="#7C72FA"/>
<path d="M107.484 67.9101C107.484 67.9101 107.303 71.558 106.403 72.6266C105.507 73.7044 102.51 73.0043 102.51 73.0043L100.56 70.1333C100.56 70.1333 101.269 66.731 102.2 66.6972C103.136 66.6696 107.484 67.9101 107.484 67.9101Z" fill="#258EC9"/>
<path d="M101.134 93.5864C101.803 94.6704 101.564 96.0767 100.606 96.8597C100.523 96.9334 100.431 96.9948 100.329 97.0593C100.17 97.1606 100.001 97.2589 99.8197 97.3633C98.5086 98.1033 96.7737 98.871 94.8054 99.175C93.439 99.393 92.1585 98.4288 91.9497 97.0593L91.6703 95.2261H91.6642L91.2496 92.5209C91.2496 92.5209 94.2066 89.7727 98.7635 89.7512L100.115 91.9406L101.131 93.5895L101.134 93.5864Z" fill="#258EC9"/>
<path d="M98.2631 72.0307C99.0645 72.2149 99.519 73.2098 99.2795 74.2476C99.0399 75.2855 98.2017 75.9795 97.3972 75.7952C96.5957 75.611 96.1413 74.6223 96.3777 73.5844C96.6172 72.5465 97.4586 71.8464 98.26 72.0307H98.2631Z" fill="#222A40"/>
<path d="M95.5916 81.6571C95.5731 81.7891 95.5517 81.9242 95.524 82.0624C94.7932 85.2436 91.5261 85.351 87.7308 84.479C84.046 83.6346 81.2211 82.1791 81.7093 79.2006C81.7246 79.1054 81.7461 79.0071 81.7707 78.9058C82.3295 76.4739 84.0859 73.959 86.5916 73.3173C86.699 73.2835 86.8065 73.262 86.9171 73.2405C87.1074 73.2067 87.304 73.1791 87.5035 73.1668C88.0041 73.13 88.523 73.1729 89.0665 73.2958C92.6898 74.1279 95.9447 78.4698 95.5946 81.6202C95.5977 81.6356 95.5946 81.6479 95.5946 81.6602L95.5916 81.6571ZM90.6724 81.393C91.2712 81.5312 91.9498 80.7942 92.1893 79.7564C92.4258 78.7246 92.134 77.7666 91.5383 77.6284C90.9396 77.4902 90.261 78.2272 90.0245 79.2589C89.785 80.2968 90.0767 81.2548 90.6755 81.393H90.6724ZM86.1709 78.3961C86.4104 77.3582 86.1248 76.4002 85.5261 76.262C84.9273 76.1238 84.2487 76.8608 84.0092 77.8986C83.7697 78.9365 84.0644 79.8884 84.6601 80.0266C85.2589 80.1648 85.9283 79.434 86.1678 78.393L86.1709 78.3961Z" fill="#258EC9"/>
<path d="M92.1863 79.7564C91.9468 80.7943 91.2681 81.5312 90.6694 81.3931C90.0706 81.2549 89.782 80.2968 90.0184 79.259C90.2548 78.2272 90.9365 77.4903 91.5322 77.6285C92.131 77.7667 92.4196 78.7247 92.1832 79.7564H92.1863Z" fill="#222A40"/>
<path d="M86.9785 92.6655L85.2897 95.1158C84.5036 96.2581 82.9314 96.5652 81.7891 95.7791C79.9314 94.4864 78.6018 92.8006 77.7482 91.4649C77.002 90.298 77.3582 88.7412 78.5312 87.9951L81.7308 85.9592C82.7318 88.6245 84.5619 90.8937 86.9785 92.6655Z" fill="#258EC9"/>
<path d="M91.1637 62.9199C91.8884 63.2976 91.5506 64.9803 91.4524 65.4041C90.6571 65.751 89.8833 66.1656 89.1494 66.6231C88.3602 67.1175 87.6202 67.6671 86.9171 68.2782L86.8065 68.1553C86.7758 68.1492 85.133 67.7654 84.7983 66.4235C84.4606 65.0632 85.8792 61.707 85.8792 61.707C85.8792 61.707 90.3377 62.487 91.1637 62.9199Z" fill="#258EC9"/>
<path d="M88.4738 71.7636C88.4155 72.0123 88.3264 72.2395 88.2067 72.4422C87.4728 72.9304 86.917 73.2406 86.917 73.2406C86.8065 73.2621 86.699 73.2805 86.5915 73.3173C85.7901 73.1331 85.3356 72.1382 85.5751 71.1003C85.6795 70.6459 85.9006 70.259 86.1801 69.9826C86.5424 69.6264 87.003 69.4514 87.4574 69.5558C88.2589 69.74 88.7133 70.7288 88.4769 71.7667L88.4738 71.7636Z" fill="#222A40"/>
<path d="M85.526 76.2619C86.1248 76.4001 86.4073 77.355 86.1709 78.396C85.9314 79.4338 85.262 80.1646 84.6632 80.0295C84.0644 79.8914 83.7727 78.9395 84.0122 77.9016C84.2517 76.8637 84.9303 76.1268 85.5291 76.2649L85.526 76.2619Z" fill="#222A40"/>
<path d="M95.5917 81.8474C95.5917 81.8474 95.5733 81.8474 95.5672 81.8474C95.4413 81.832 95.3492 81.7184 95.3645 81.5925C95.7115 78.4574 92.4474 74.3059 89.0145 73.5198C88.5047 73.4031 88.0012 73.3602 87.5191 73.397C87.341 73.4093 87.1567 73.4308 86.9571 73.4676C86.8435 73.486 86.7361 73.4216 86.6992 73.3141C86.6624 73.2066 86.7115 73.0869 86.8128 73.0347C87.6603 72.5956 89.9602 71.2998 90.4208 70.5597C90.4884 70.4523 90.6296 70.4185 90.7371 70.4861C90.8446 70.5536 90.8783 70.6949 90.8108 70.8023C90.4024 71.4533 88.9592 72.3561 87.9735 72.9211C88.3481 72.9303 88.732 72.9794 89.1189 73.0684C92.7483 73.9006 96.1936 78.3069 95.8251 81.6416C95.8128 81.7583 95.7115 81.8474 95.5979 81.8474H95.5917Z" fill="#222A40"/>
<path d="M127.928 67.3909C127.855 67.7716 127.542 68.6437 127.084 69.8289C126.918 70.2496 126.737 70.701 126.531 71.1954C125.294 74.2384 123.448 78.5219 121.824 82.2312C121.612 82.7164 121.403 83.1831 121.204 83.6437V83.6498C119.625 87.2394 118.394 89.9845 118.394 89.9845C118.075 89.9385 117.762 89.8832 117.455 89.8187C113.644 88.9989 111.166 86.6283 110.14 85.4615C110.039 85.3479 109.953 85.2404 109.879 85.1544C109.692 84.9272 109.6 84.7952 109.6 84.7952L109.787 83.8371L112.072 72.1227L112.333 70.7778L113.119 66.7491L124.228 58.6887C127.839 60.6816 128.398 65.0818 127.931 67.3939L127.928 67.3909Z" fill="#258EC9"/>
<path d="M110.14 85.4614C111.166 86.6283 113.644 88.9988 117.455 89.8186C117.455 89.8186 112.179 100.956 110.681 100.934C109.182 100.922 103.216 100.474 102.596 99.7951C101.982 99.1165 101.764 97.6364 101.764 97.6364C101.764 97.6364 108.709 97.2035 108.709 97.05C108.709 96.8964 106.204 92.4809 106.204 92.4809C106.204 92.4809 101.607 93.574 100.13 93.4051C98.7329 93.2393 98.6377 91.8545 98.6316 91.6948V91.6825H98.6377L109.047 87.6201L110.14 85.4614Z" fill="#FFB17E"/>
<path d="M110.06 67.2865C110.023 67.3173 109.984 67.348 109.95 67.3756C109.772 67.5168 109.587 67.6489 109.397 67.7656L107.899 67.4186L103.216 66.3469L101.727 66.0061C101.598 65.8157 101.487 65.6161 101.389 65.4135C100.293 63.1443 100.83 60.3347 102.857 58.6458C105.242 56.656 108.792 56.9785 110.782 59.3674C112.769 61.7533 112.443 65.3029 110.06 67.2896V67.2865Z" fill="#E8A03F"/>
<path d="M109.459 66.5681C109.216 66.7677 108.958 66.9458 108.691 67.0809C108.433 67.2221 108.169 67.3388 107.899 67.4186L103.216 66.347C103.087 66.2272 102.967 66.1044 102.857 65.9662C102.786 65.8833 102.715 65.7943 102.654 65.6991C101.232 63.7216 101.555 60.9458 103.455 59.3644C105.445 57.7063 108.402 57.9765 110.06 59.9632C111.712 61.9499 111.448 64.9099 109.459 66.5681Z" fill="#ECB45E"/>
<path d="M103.914 52.6745C104.353 49.8081 102.386 47.128 99.5196 46.6884C96.6532 46.2487 93.9731 48.216 93.5335 51.0824C93.0938 53.9488 95.0611 56.6289 97.9275 57.0685C100.794 57.5082 103.474 55.5409 103.914 52.6745Z" fill="#E8A03F"/>
<path d="M102.476 49.6272C103.72 51.6968 103.047 54.3867 100.978 55.6303C98.908 56.8739 96.2181 56.2014 94.9745 54.1318C93.7309 52.0622 94.4033 49.3724 96.4729 48.1288C98.5425 46.8852 101.232 47.5576 102.476 49.6272Z" fill="#ECB45E"/>
<path d="M113.36 52.8219C115.405 52.1083 116.484 49.8723 115.77 47.8276C115.057 45.783 112.821 44.704 110.776 45.4176C108.731 46.1312 107.652 48.3672 108.366 50.4119C109.08 52.4565 111.316 53.5356 113.36 52.8219Z" fill="#E8A03F"/>
<path d="M114.866 47.4502C115.793 48.9947 115.293 51.0029 113.748 51.9302C112.204 52.8576 110.195 52.357 109.268 50.8125C108.341 49.268 108.841 47.2598 110.386 46.3325C111.93 45.4052 113.939 45.9057 114.866 47.4502Z" fill="#ECB45E"/>
</g>
<defs>
<clipPath id="clip0_18118_2213">
<rect width="138" height="142.422" fill="white"/>
</clipPath>
</defs>
</svg>
