<svg width="145" height="150" viewBox="0 0 145 150" fill="none" xmlns="http://www.w3.org/2000/svg">
<g clip-path="url(#clip0_18126_1641)">
<path d="M21.2464 97.0255C-7.08214 109.111 -7.08214 128.708 21.2464 140.794C49.575 152.88 95.5069 152.88 123.835 140.794C152.164 128.708 152.164 109.111 123.835 97.0255C95.5069 84.9398 49.575 84.9398 21.2464 97.0255Z" fill="#F4F3F4"/>
<path d="M69.6917 111.754L28.9148 135.298C28.5546 135.504 27.9291 135.478 27.5131 135.239L24.8342 133.693C24.4183 133.454 24.3757 133.09 24.7327 132.884L65.5095 109.34C65.8698 109.134 66.4953 109.16 66.9112 109.399L69.5902 110.945C70.0061 111.184 70.0487 111.548 69.6917 111.754Z" fill="#E0E0E0"/>
<path d="M65.0118 44.7183L27.5689 66.3103C27.1824 66.533 26.868 67.0766 26.868 67.522V132.508C26.868 132.953 27.1824 133.497 27.5689 133.716L27.7097 133.798C28.0962 134.021 28.725 134.017 29.1114 133.798L66.5543 112.18C66.9408 111.957 67.2552 111.413 67.2552 110.968V46.0119C67.2552 45.5665 66.9408 45.0229 66.5543 44.8002L66.4135 44.7183C66.0271 44.4956 65.3983 44.4989 65.0118 44.7183Z" fill="#003E61"/>
<path opacity="0.45" d="M65.0118 44.7183L27.5689 66.3103C27.1824 66.533 26.868 67.0766 26.868 67.522V132.508C26.868 132.953 27.1824 133.497 27.5689 133.716L27.7097 133.798C28.0962 134.021 28.725 134.017 29.1114 133.798L66.5543 112.18C66.9408 111.957 67.2552 111.413 67.2552 110.968V46.0119C67.2552 45.5665 66.9408 45.0229 66.5543 44.8002L66.4135 44.7183C66.0271 44.4956 65.3983 44.4989 65.0118 44.7183Z" fill="black"/>
<path d="M67.2584 111.014C67.2584 111.63 66.8261 112.023 66.2922 112.33L29.3832 133.638C28.8493 133.945 28.4138 133.697 28.4138 133.078V68.711C28.4138 68.0232 28.7806 67.3879 29.3766 67.0407L66.289 45.7238C66.718 45.4749 67.2584 45.7861 67.2584 46.2839V111.014Z" fill="#003E61"/>
<path opacity="0.3" d="M67.2584 111.014C67.2584 111.63 66.8261 112.023 66.2922 112.33L29.3832 133.638C28.8493 133.945 28.4138 133.697 28.4138 133.078V68.711C28.4138 68.0232 28.7806 67.3879 29.3766 67.0407L66.289 45.7238C66.718 45.4749 67.2584 45.7861 67.2584 46.2839V111.014Z" fill="black"/>
<path d="M67.2584 46.0088V46.2839C67.2584 45.7894 66.7181 45.4782 66.289 45.7271L29.3799 67.044C29.0819 67.2143 28.8396 67.4599 28.6758 67.7481C28.6693 67.7547 28.6693 67.7612 28.666 67.7711L27.0678 66.8475C27.1988 66.6248 27.3724 66.4283 27.5722 66.3137L65.0151 44.7217C65.4015 44.499 66.0303 44.499 66.4168 44.7217L66.5576 44.8036C66.944 45.023 67.2617 45.5667 67.2617 46.0153L67.2584 46.0088Z" fill="#003E61"/>
<path opacity="0.2" d="M67.2584 46.0088V46.2839C67.2584 45.7894 66.7181 45.4782 66.289 45.7271L29.3799 67.044C29.0819 67.2143 28.8396 67.4599 28.6758 67.7481C28.6693 67.7547 28.6693 67.7612 28.666 67.7711L27.0678 66.8475C27.1988 66.6248 27.3724 66.4283 27.5722 66.3137L65.0151 44.7217C65.4015 44.499 66.0303 44.499 66.4168 44.7217L66.5576 44.8036C66.944 45.023 67.2617 45.5667 67.2617 46.0153L67.2584 46.0088Z" fill="black"/>
<path opacity="0.25" d="M66.3446 108.178C66.3446 108.813 65.8992 109.216 65.349 109.534L30.4672 129.675C29.917 129.993 29.4716 129.737 29.4716 129.098V72.2807C29.4716 71.57 29.8482 70.915 30.4639 70.5613L65.3523 50.4136C65.7944 50.1582 66.3512 50.4791 66.3512 50.99V108.181L66.3446 108.178Z" fill="black"/>
<path d="M30.3592 71.3146L65.1166 51.2487C65.2804 51.1537 65.5489 51.1537 65.7127 51.2487L66.0467 51.4419C66.2105 51.5369 66.3447 51.7662 66.3447 51.9561V109.056C66.3447 109.245 66.2105 109.475 66.0467 109.57L31.2926 129.636C31.1288 129.73 30.8603 129.73 30.6965 129.636L30.3592 129.442C30.1954 129.347 30.0612 129.118 30.0612 128.928V71.832C30.0612 71.6421 30.1954 71.4128 30.3592 71.3178V71.3146Z" fill="#F5F5F5"/>
<path d="M31.2204 129.672C31.1844 129.685 31.1483 129.694 31.109 129.701C31.0894 129.701 31.0698 129.704 31.0534 129.708C30.9944 129.711 30.9322 129.708 30.8733 129.701C30.834 129.694 30.7979 129.685 30.7619 129.672C30.739 129.662 30.7161 129.652 30.6964 129.639L30.3624 129.446C30.1986 129.351 30.0643 129.121 30.0643 128.931V71.8353C30.0643 71.7403 30.0971 71.6322 30.1528 71.5405L31.0829 72.0776C31.0305 72.1726 30.9944 72.2774 30.9944 72.3724V129.468C30.9944 129.632 31.0894 129.711 31.2204 129.672Z" fill="#E0E0E0"/>
<path d="M66.0467 51.4419L65.7127 51.2487C65.5489 51.1537 65.2804 51.1537 65.1166 51.2487L30.3592 71.3146C30.1954 71.4095 30.0612 71.6388 30.0612 71.8287V79.5315L30.9913 80.0719L66.3415 59.6622V51.9561C66.3415 51.7662 66.2072 51.5369 66.0434 51.4419H66.0467Z" fill="#003E61"/>
<path opacity="0.4" d="M66.0467 51.4419L65.7127 51.2487C65.5489 51.1537 65.2804 51.1537 65.1166 51.2487L30.3592 71.3146C30.1954 71.4095 30.0612 71.6388 30.0612 71.8287V79.5315L30.9913 80.0719L66.3415 59.6622V51.9561C66.3415 51.7662 66.2072 51.5369 66.0434 51.4419H66.0467Z" fill="white"/>
<path d="M66.3349 51.8677C66.2989 51.7465 66.1842 51.7072 66.05 51.7858L31.2925 71.8517C31.2107 71.9008 31.1353 71.9794 31.0829 72.0744L30.1528 71.5373C30.2052 71.4423 30.2806 71.3604 30.3624 71.3146L65.1199 51.2487C65.2836 51.1537 65.5489 51.1537 65.7126 51.2487L66.05 51.4419C66.1908 51.5238 66.3054 51.7007 66.3349 51.8677Z" fill="#003E61"/>
<path opacity="0.6" d="M66.3349 51.8677C66.2989 51.7465 66.1842 51.7072 66.05 51.7858L31.2925 71.8517C31.2107 71.9008 31.1353 71.9794 31.0829 72.0744L30.1528 71.5373C30.2052 71.4423 30.2806 71.3604 30.3624 71.3146L65.1199 51.2487C65.2836 51.1537 65.5489 51.1537 65.7126 51.2487L66.05 51.4419C66.1908 51.5238 66.3054 51.7007 66.3349 51.8677Z" fill="white"/>
<path d="M30.0643 71.8319V79.5379L30.9944 80.075V72.369C30.9944 72.274 31.0272 72.1692 31.0829 72.0742L30.1528 71.5371C30.0971 71.6288 30.0643 71.7336 30.0643 71.8319Z" fill="#003E61"/>
<path d="M38.0421 82.4038L59.3328 70.0768C59.4278 70.0211 59.5031 70.0669 59.5031 70.175V70.3944C59.5031 70.5025 59.4278 70.6335 59.3328 70.6892L38.0421 83.0162C37.9472 83.0719 37.8718 83.0261 37.8718 82.918V82.6986C37.8718 82.5905 37.9472 82.4595 38.0421 82.4038Z" fill="#003E61"/>
<path d="M38.9068 91.5442V91.8554C38.9068 92.0224 39.0247 92.0912 39.1721 92.0093L53.2021 83.9168C53.3495 83.8316 53.4674 83.6286 53.4674 83.4583V83.1472C53.4674 82.9801 53.3495 82.9114 53.2021 82.9932L39.1721 91.0857C39.0247 91.1709 38.9068 91.3739 38.9068 91.5442Z" fill="#E0E0E0"/>
<path d="M38.9068 93.5026V93.8137C38.9068 93.9807 39.0247 94.0495 39.1721 93.9676L63.2727 80.0621C63.4201 79.9769 63.538 79.7739 63.538 79.6036V79.2924C63.538 79.1254 63.4201 79.0566 63.2727 79.1385L39.1721 93.0474C39.0247 93.1325 38.9068 93.3356 38.9068 93.5059V93.5026Z" fill="#E0E0E0"/>
<path d="M38.9068 95.3693V95.6804C38.9068 95.8474 39.0247 95.9162 39.1721 95.8343L63.2727 81.9288C63.4201 81.8436 63.538 81.6406 63.538 81.4703V81.1591C63.538 80.9921 63.4201 80.9233 63.2727 81.0052L39.1721 94.9141C39.0247 94.9992 38.9068 95.2023 38.9068 95.3726V95.3693Z" fill="#E0E0E0"/>
<path d="M33.4375 99.2633C33.4146 99.2633 33.3916 99.2568 33.3687 99.2437C33.3261 99.2208 33.2999 99.1749 33.2999 99.1258V94.626C33.2999 94.5768 33.3261 94.531 33.3687 94.5081L37.2397 92.2745C37.2823 92.2516 37.3347 92.2516 37.374 92.2745C37.4166 92.2974 37.4428 92.3433 37.4428 92.3924V96.8922C37.4428 96.9414 37.4166 96.9872 37.374 97.0101L33.5062 99.2437C33.4866 99.2568 33.4604 99.2633 33.4375 99.2633ZM33.5718 94.7078V98.8933L37.1677 96.8169V92.6315L33.5718 94.7078Z" fill="#455A64"/>
<path d="M35.3238 97.1577L34.4232 96.2931L34.7245 95.6544L35.2354 96.149L37.4558 91.4526L37.8422 91.826L35.3238 97.1577Z" fill="#003E61"/>
<path d="M38.9068 98.5887V98.8998C38.9068 99.0668 39.0247 99.1356 39.1721 99.0537L53.2021 90.9612C53.3495 90.8761 53.4674 90.673 53.4674 90.5027V90.1916C53.4674 90.0246 53.3495 89.9558 53.2021 90.0377L39.1721 98.1302C39.0247 98.2153 38.9068 98.4184 38.9068 98.5887Z" fill="#E0E0E0"/>
<path d="M38.9068 100.551V100.862C38.9068 101.029 39.0247 101.098 39.1721 101.016L63.2727 87.1102C63.4201 87.025 63.538 86.822 63.538 86.6517V86.3405C63.538 86.1735 63.4201 86.1047 63.2727 86.1866L39.1721 100.095C39.0247 100.181 38.9068 100.384 38.9068 100.554V100.551Z" fill="#E0E0E0"/>
<path d="M38.9068 102.414V102.725C38.9068 102.892 39.0247 102.961 39.1721 102.879L63.2727 88.9734C63.4201 88.8883 63.538 88.6852 63.538 88.5149V88.2038C63.538 88.0368 63.4201 87.968 63.2727 88.0499L39.1721 101.959C39.0247 102.044 38.9068 102.247 38.9068 102.417V102.414Z" fill="#E0E0E0"/>
<path d="M33.4375 106.308C33.4146 106.308 33.3916 106.301 33.3687 106.288C33.3261 106.265 33.2999 106.219 33.2999 106.17V101.67C33.2999 101.621 33.3261 101.575 33.3687 101.552L37.2397 99.3187C37.2823 99.2958 37.3347 99.2958 37.374 99.3187C37.4166 99.3416 37.4428 99.3875 37.4428 99.4366V103.936C37.4428 103.986 37.4166 104.031 37.374 104.054L33.5062 106.288C33.4866 106.301 33.4604 106.308 33.4375 106.308ZM33.5718 101.752V105.937L37.1677 103.861V99.6757L33.5718 101.752Z" fill="#455A64"/>
<path d="M35.3238 104.205L34.4232 103.337L34.7245 102.699L35.2354 103.193L37.4558 98.5002L37.8422 98.8703L35.3238 104.205Z" fill="#003E61"/>
<path d="M38.9068 105.633V105.944C38.9068 106.111 39.0247 106.18 39.1721 106.098L53.2021 98.0059C53.3495 97.9208 53.4674 97.7177 53.4674 97.5474V97.2363C53.4674 97.0693 53.3495 97.0005 53.2021 97.0824L39.1721 105.175C39.0247 105.26 38.9068 105.463 38.9068 105.633Z" fill="#E0E0E0"/>
<path d="M38.9068 107.595V107.906C38.9068 108.073 39.0247 108.142 39.1721 108.06L63.2727 94.1546C63.4201 94.0694 63.538 93.8664 63.538 93.6961V93.385C63.538 93.2179 63.4201 93.1492 63.2727 93.231L39.1721 107.14C39.0247 107.225 38.9068 107.428 38.9068 107.598V107.595Z" fill="#E0E0E0"/>
<path d="M38.9068 109.459V109.77C38.9068 109.937 39.0247 110.006 39.1721 109.924L63.2727 96.0181C63.4201 95.933 63.538 95.7299 63.538 95.5596V95.2485C63.538 95.0815 63.4201 95.0127 63.2727 95.0946L39.1721 109.003C39.0247 109.089 38.9068 109.292 38.9068 109.462V109.459Z" fill="#E0E0E0"/>
<path d="M33.4375 113.352C33.4146 113.352 33.3916 113.346 33.3687 113.333C33.3261 113.31 33.2999 113.264 33.2999 113.215V108.715C33.2999 108.666 33.3261 108.62 33.3687 108.597L37.2397 106.363C37.2823 106.34 37.3347 106.34 37.374 106.363C37.4166 106.386 37.4428 106.432 37.4428 106.481V110.981C37.4428 111.03 37.4166 111.076 37.374 111.099L33.5062 113.333C33.4866 113.346 33.4604 113.352 33.4375 113.352ZM33.5718 108.797V112.982L37.1677 110.906V106.72L33.5718 108.797Z" fill="#455A64"/>
<path d="M35.3238 111.25L34.4232 110.385L34.7245 109.746L35.2354 110.238L37.4558 105.545L37.8422 105.918L35.3238 111.25Z" fill="#003E61"/>
<path d="M38.9068 112.681V112.992C38.9068 113.159 39.0247 113.228 39.1721 113.146L53.2021 105.054C53.3495 104.968 53.4674 104.765 53.4674 104.595V104.284C53.4674 104.117 53.3495 104.048 53.2021 104.13L39.1721 112.222C39.0247 112.308 38.9068 112.511 38.9068 112.681Z" fill="#E0E0E0"/>
<path d="M38.9068 114.64V114.951C38.9068 115.118 39.0247 115.186 39.1721 115.105L63.2727 101.199C63.4201 101.114 63.538 100.911 63.538 100.741V100.429C63.538 100.262 63.4201 100.194 63.2727 100.275L39.1721 114.184C39.0247 114.269 38.9068 114.473 38.9068 114.643V114.64Z" fill="#E0E0E0"/>
<path d="M38.9068 116.506V116.817C38.9068 116.984 39.0247 117.053 39.1721 116.971L63.2727 103.066C63.4201 102.981 63.538 102.778 63.538 102.607V102.296C63.538 102.129 63.4201 102.06 63.2727 102.142L39.1721 116.051C39.0247 116.136 38.9068 116.339 38.9068 116.51V116.506Z" fill="#E0E0E0"/>
<path d="M33.4375 120.4C33.4146 120.4 33.3916 120.394 33.3687 120.381C33.3261 120.358 33.2999 120.312 33.2999 120.263V115.763C33.2999 115.714 33.3261 115.668 33.3687 115.645L37.2397 113.411C37.2823 113.389 37.3347 113.389 37.374 113.411C37.4166 113.434 37.4428 113.48 37.4428 113.529V118.029C37.4428 118.078 37.4166 118.124 37.374 118.147L33.5062 120.381C33.4866 120.394 33.4604 120.4 33.4375 120.4ZM33.5718 115.845V120.03L37.1677 117.954V113.768L33.5718 115.845Z" fill="#455A64"/>
<path d="M35.3238 118.294L34.4232 117.43L34.7245 116.791L35.2354 117.286L37.4558 112.589L37.8422 112.963L35.3238 118.294Z" fill="#003E61"/>
<path d="M33.3 88.0204V88.3316C33.3 88.4986 33.4179 88.5674 33.5653 88.4855L63.2727 71.3311C63.42 71.246 63.5379 71.0429 63.5379 70.8726V70.5615C63.5379 70.3945 63.42 70.3257 63.2727 70.4076L33.5653 87.5619C33.4179 87.6471 33.3 87.8501 33.3 88.0204Z" fill="#E0E0E0"/>
<path d="M33.2999 90.0019V90.313C33.2999 90.48 33.4178 90.5488 33.5652 90.4669L63.2726 73.3125C63.42 73.2274 63.5379 73.0243 63.5379 72.854V72.5429C63.5379 72.3759 63.42 72.3071 63.2726 72.389L33.5652 89.5434C33.4178 89.6285 33.2999 89.8316 33.2999 90.0019Z" fill="#E0E0E0"/>
<path d="M33.2999 91.9799V92.291C33.2999 92.458 33.4178 92.5268 33.5652 92.4449L63.2726 75.2906C63.42 75.2054 63.5379 75.0024 63.5379 74.8321V74.521C63.5379 74.3539 63.42 74.2852 63.2726 74.367L33.5652 91.5214C33.4178 91.6065 33.2999 91.8096 33.2999 91.9799Z" fill="#E0E0E0"/>
<path d="M33.3 123.027V123.338C33.3 123.505 33.4179 123.574 33.5653 123.492L63.2727 106.337C63.42 106.252 63.5379 106.049 63.5379 105.879V105.568C63.5379 105.401 63.42 105.332 63.2727 105.414L33.5653 122.568C33.4179 122.653 33.3 122.856 33.3 123.027Z" fill="#E0E0E0"/>
<path d="M33.2999 125.008V125.319C33.2999 125.486 33.4178 125.555 33.5652 125.473L63.2726 108.318C63.42 108.233 63.5379 108.03 63.5379 107.86V107.549C63.5379 107.382 63.42 107.313 63.2726 107.395L33.5652 124.549C33.4178 124.634 33.2999 124.837 33.2999 125.008Z" fill="#E0E0E0"/>
<path d="M33.6177 74.5012L45.7875 67.4698C45.9644 67.3683 46.1052 67.4502 46.1052 67.6532V67.7449C46.1052 67.948 45.9644 68.1936 45.7875 68.2951L33.6177 75.3265C33.4408 75.4281 33.3 75.3462 33.3 75.1431V75.0514C33.3 74.8484 33.4408 74.6028 33.6177 74.5012Z" fill="#FAFAFA"/>
<path d="M33.6177 76.1683L40.8587 71.9894C41.0355 71.8878 41.1763 71.9697 41.1763 72.1728V72.2645C41.1763 72.4675 41.0355 72.7131 40.8587 72.8147L33.6177 76.9936C33.4408 77.0951 33.3 77.0132 33.3 76.8102V76.7152C33.3 76.5121 33.4408 76.2665 33.6177 76.165V76.1683Z" fill="#FAFAFA"/>
<path d="M57.964 60.3401L63.3775 57.2125C63.4659 57.1633 63.5347 57.2026 63.5347 57.3042V57.5105C63.5347 57.612 63.4627 57.7332 63.3775 57.7856L57.964 60.9132C57.8755 60.9623 57.8068 60.923 57.8068 60.8215V60.6152C57.8068 60.5137 57.8788 60.3925 57.964 60.3401Z" fill="#003E61"/>
<path d="M57.964 62.8325L63.3775 59.7049C63.4659 59.6558 63.5347 59.6951 63.5347 59.7966V60.0029C63.5347 60.1045 63.4627 60.2256 63.3775 60.278L57.964 63.4056C57.8755 63.4548 57.8068 63.4155 57.8068 63.3139V63.1076C57.8068 63.0061 57.8788 62.8849 57.964 62.8325Z" fill="#003E61"/>
<path d="M59.0807 60.9363L63.3774 58.4571C63.4659 58.408 63.5346 58.4473 63.5346 58.5488V58.7551C63.5346 58.8567 63.4626 58.9778 63.3774 59.0302L59.0807 61.5094C58.9922 61.5585 58.9235 61.5192 58.9235 61.4177V61.2114C58.9235 61.1098 58.9955 60.9887 59.0807 60.9363Z" fill="#003E61"/>
<path d="M38.4548 81.4148C38.4286 81.4311 38.4056 81.4279 38.386 81.4115C38.3663 81.3918 38.3565 81.3624 38.3565 81.3231V77.7632C38.3565 77.7239 38.3663 77.6813 38.386 77.642C38.4056 77.6027 38.4286 77.5732 38.4548 77.5601L38.7462 77.3931C38.7724 77.3767 38.7954 77.38 38.815 77.3964C38.8347 77.416 38.8445 77.4455 38.8445 77.4848V81.0447C38.8445 81.084 38.8347 81.1266 38.815 81.1659C38.7954 81.2052 38.7724 81.2346 38.7462 81.2477L38.4548 81.4148Z" fill="#455A64"/>
<path d="M41.0257 79.9312C40.9864 79.9541 40.9537 79.9574 40.934 79.9344C40.9111 79.9148 40.898 79.8984 40.8882 79.8853L39.886 78.1725V80.442C39.886 80.4813 39.8762 80.5239 39.8566 80.5632C39.8369 80.6025 39.814 80.632 39.7878 80.6451L39.4963 80.8121C39.4701 80.8285 39.4472 80.8252 39.4275 80.8089C39.4079 80.7892 39.3981 80.7597 39.3981 80.7204V77.1605C39.3981 77.1212 39.4079 77.0786 39.4275 77.0393C39.4472 77 39.4701 76.9706 39.4963 76.9575L39.7452 76.8134C39.7845 76.7904 39.8173 76.7872 39.8369 76.8101C39.8598 76.8297 39.8729 76.8461 39.8828 76.8592L40.8849 78.572V76.3025C40.8849 76.2632 40.8947 76.2206 40.9144 76.1813C40.934 76.142 40.957 76.1125 40.9832 76.0994L41.2746 75.9324C41.3008 75.916 41.3238 75.9193 41.3434 75.9357C41.3631 75.9553 41.3729 75.9848 41.3729 76.0241V79.584C41.3729 79.6233 41.3631 79.6659 41.3434 79.7052C41.3238 79.7445 41.3008 79.774 41.2746 79.7871L41.0257 79.9312Z" fill="#455A64"/>
<path d="M42.7876 75.0023C42.948 74.9106 43.0889 74.8615 43.21 74.8582C43.3312 74.8549 43.4327 74.8779 43.5146 74.9303C43.5965 74.9827 43.6587 75.058 43.698 75.153C43.7406 75.2479 43.7635 75.3462 43.7668 75.451C43.7668 75.4936 43.7602 75.5361 43.7406 75.5754C43.7209 75.6147 43.698 75.6409 43.6718 75.6573L43.4229 75.8014C43.3836 75.8243 43.3509 75.8309 43.3312 75.8178C43.3116 75.8047 43.2919 75.785 43.2755 75.7523C43.2395 75.6802 43.1838 75.6311 43.1118 75.6082C43.0397 75.582 42.9317 75.6082 42.7876 75.6933C42.7253 75.7294 42.6664 75.7752 42.6107 75.8276C42.555 75.88 42.5059 75.939 42.4633 76.0012C42.4208 76.0634 42.388 76.1289 42.3651 76.1977C42.3422 76.2665 42.3291 76.3352 42.3291 76.4073C42.3291 76.4924 42.3422 76.5547 42.3618 76.594C42.3847 76.6333 42.424 76.6595 42.4764 76.666C42.5288 76.6726 42.6009 76.666 42.6893 76.6496C42.7777 76.6333 42.8858 76.6071 43.0201 76.5743C43.1642 76.5383 43.2854 76.5252 43.3902 76.5285C43.495 76.5317 43.5801 76.5612 43.6456 76.6136C43.7111 76.666 43.7602 76.7413 43.793 76.8396C43.8257 76.9378 43.8421 77.0623 43.8421 77.2129C43.8421 77.3767 43.8192 77.5437 43.7701 77.714C43.7209 77.8843 43.6554 78.0448 43.567 78.1954C43.4786 78.3461 43.3705 78.4902 43.2428 78.6244C43.1151 78.7587 42.971 78.8701 42.8105 78.9618C42.6762 79.0404 42.5485 79.0862 42.4273 79.1091C42.3061 79.1288 42.1981 79.119 42.1031 79.0797C42.0081 79.0404 41.9328 78.9716 41.8771 78.8733C41.8182 78.7751 41.7887 78.6474 41.7789 78.4869C41.7789 78.4443 41.7854 78.4017 41.8051 78.3657C41.8247 78.3264 41.8476 78.3002 41.8738 78.2838L42.1227 78.1397C42.162 78.1168 42.1948 78.1103 42.2177 78.1201C42.2406 78.1299 42.257 78.1529 42.2701 78.1889C42.2865 78.2282 42.3061 78.2642 42.3323 78.297C42.3553 78.3297 42.388 78.3559 42.4306 78.369C42.4699 78.3821 42.5223 78.3821 42.5812 78.369C42.6435 78.3592 42.7188 78.3264 42.8072 78.274C42.8793 78.2314 42.948 78.1856 43.0135 78.1299C43.079 78.0742 43.138 78.012 43.1904 77.9465C43.2395 77.8778 43.2821 77.809 43.3116 77.7337C43.3443 77.6583 43.3574 77.5797 43.3574 77.4946C43.3574 77.4094 43.341 77.357 43.3083 77.3243C43.2755 77.2915 43.2231 77.2784 43.1576 77.2817C43.0889 77.2817 43.007 77.2981 42.9055 77.321C42.8039 77.3472 42.6893 77.3701 42.5583 77.3931C42.4404 77.4193 42.3356 77.4258 42.2439 77.416C42.1555 77.4062 42.0802 77.3767 42.0212 77.321C41.9623 77.2653 41.9197 77.1867 41.8902 77.0852C41.8607 76.9837 41.8476 76.8494 41.8476 76.6824C41.8476 76.5154 41.8706 76.3516 41.9197 76.1846C41.9688 76.0176 42.0343 75.8604 42.1162 75.713C42.2013 75.5656 42.2996 75.4313 42.4142 75.3069C42.5288 75.1824 42.6533 75.0842 42.7876 75.0056V75.0023Z" fill="#455A64"/>
<path d="M46.1838 73.0962C46.21 73.0798 46.2329 73.0831 46.2526 73.0995C46.2722 73.1191 46.2821 73.1486 46.2821 73.1879V75.4477C46.2821 75.6769 46.2591 75.8931 46.2166 76.1027C46.174 76.3122 46.1085 76.5055 46.0234 76.6889C45.9382 76.869 45.8301 77.036 45.7024 77.1801C45.5747 77.3275 45.424 77.4487 45.2537 77.5469C45.0834 77.6452 44.9328 77.6976 44.8051 77.6976C44.6773 77.6976 44.5693 77.6583 44.4841 77.5764C44.399 77.4945 44.3335 77.3733 44.2942 77.2129C44.2516 77.0524 44.2319 76.8592 44.2319 76.6332V74.3735C44.2319 74.3342 44.2418 74.2916 44.2614 74.2523C44.2811 74.213 44.304 74.1835 44.3302 74.1704L44.6217 74.0034C44.6479 73.987 44.6708 73.9903 44.6904 74.0067C44.7101 74.0263 44.7199 74.0558 44.7199 74.0951V76.3254C44.7199 76.476 44.733 76.5972 44.7592 76.6889C44.7854 76.7806 44.8214 76.8461 44.8706 76.8854C44.9197 76.9247 44.9754 76.941 45.0409 76.9345C45.1064 76.9279 45.1817 76.9017 45.2603 76.8559C45.3389 76.81 45.4109 76.7544 45.4797 76.6823C45.5485 76.6135 45.6042 76.5284 45.6533 76.4334C45.7024 76.3385 45.7384 76.2304 45.7646 76.1059C45.7908 75.9848 45.8072 75.8472 45.8072 75.6966V73.4663C45.8072 73.427 45.817 73.3844 45.8367 73.3451C45.8563 73.3058 45.8793 73.2763 45.9055 73.2632L46.1904 73.0995L46.1838 73.0962Z" fill="#455A64"/>
<path d="M47.8409 72.1399C48.1389 71.9663 48.3649 71.9434 48.5221 72.0678C48.676 72.1923 48.7546 72.4412 48.7546 72.8211C48.7546 73.0896 48.7153 73.3418 48.6334 73.5776C48.5548 73.8134 48.4369 74.0197 48.2797 74.2031L48.7742 75.2773C48.7808 75.2937 48.7841 75.3133 48.7841 75.333C48.7841 75.3657 48.7775 75.3985 48.7611 75.4312C48.7448 75.464 48.7284 75.4869 48.7055 75.5L48.4009 75.6769C48.3518 75.7031 48.319 75.7063 48.2961 75.6867C48.2732 75.6638 48.2568 75.6408 48.247 75.6179L47.7786 74.6059L47.3038 74.881V76.1648C47.3038 76.2041 47.2939 76.2467 47.2743 76.286C47.2546 76.3253 47.2317 76.3548 47.2055 76.3679L46.914 76.5349C46.8878 76.5513 46.8649 76.548 46.8453 76.5316C46.8256 76.512 46.8158 76.4825 46.8158 76.4432V72.8833C46.8158 72.844 46.8256 72.8014 46.8453 72.7621C46.8649 72.7228 46.8878 72.6934 46.914 72.6803L47.8376 72.1464L47.8409 72.1399ZM47.3038 74.1835L47.8212 73.8854C47.9588 73.8068 48.0668 73.7086 48.1454 73.5874C48.2273 73.4662 48.2666 73.3058 48.2666 73.0994C48.2666 72.8931 48.2273 72.7785 48.1454 72.7556C48.0636 72.7327 47.9555 72.7621 47.8212 72.8375L47.3038 73.1355V74.1835Z" fill="#455A64"/>
<path d="M50.3955 70.6664C50.4348 70.6434 50.461 70.6434 50.4806 70.6664C50.5003 70.686 50.5167 70.7253 50.5298 70.7777L51.4075 73.7514C51.4075 73.7514 51.4107 73.7743 51.4107 73.7874C51.4107 73.8267 51.4009 73.8693 51.3813 73.9086C51.3616 73.9479 51.3387 73.9774 51.3125 73.9905L51.0538 74.1378C51.0046 74.164 50.9719 74.1706 50.9522 74.1477C50.9326 74.128 50.9195 74.1051 50.9129 74.0789L50.759 73.5549L49.6291 74.2066L49.4752 74.9075C49.4687 74.9402 49.4556 74.9795 49.4359 75.0221C49.4163 75.0647 49.3835 75.1007 49.3344 75.1269L49.0757 75.2743C49.0495 75.2906 49.0265 75.2874 49.0069 75.271C48.9872 75.2513 48.9774 75.2219 48.9774 75.1826C48.9774 75.1695 48.9774 75.1531 48.9807 75.1433L49.8584 71.1543C49.8715 71.0823 49.8911 71.0266 49.9075 70.984C49.9272 70.9415 49.9566 70.9087 49.9927 70.8891L50.3857 70.6631L50.3955 70.6664ZM50.592 72.972L50.199 71.6292L49.806 73.4272L50.592 72.972Z" fill="#455A64"/>
<path d="M53.3626 72.8081C53.3233 72.831 53.2906 72.8343 53.2677 72.8114C53.2447 72.7917 53.2316 72.7754 53.2218 72.7623L52.2197 71.0494V73.319C52.2197 73.3583 52.2098 73.4009 52.1902 73.4402C52.1705 73.4795 52.1476 73.509 52.1214 73.5221L51.8299 73.6891C51.8037 73.7055 51.7808 73.7022 51.7612 73.6858C51.7415 73.6662 51.7317 73.6367 51.7317 73.5974V70.0375C51.7317 69.9982 51.7415 69.9556 51.7612 69.9163C51.7808 69.877 51.8037 69.8475 51.8299 69.8344L52.0821 69.6903C52.1214 69.6674 52.1542 69.6641 52.1738 69.687C52.1967 69.7067 52.2098 69.7231 52.2197 69.7362L53.2218 71.449V69.1794C53.2218 69.1401 53.2316 69.0975 53.2513 69.0582C53.2709 69.0189 53.2939 68.9895 53.3201 68.9764L53.6115 68.8094C53.6377 68.793 53.6607 68.7962 53.6803 68.8126C53.7 68.829 53.7098 68.8617 53.7098 68.901V72.461C53.7098 72.5003 53.7 72.5428 53.6803 72.5821C53.6607 72.6214 53.6377 72.6509 53.6115 72.664L53.3626 72.8081Z" fill="#455A64"/>
<path d="M55.8057 70.175C55.809 70.1258 55.8221 70.08 55.8418 70.044C55.8614 70.0079 55.8844 69.985 55.9073 69.9686L56.1987 69.8016C56.2249 69.7852 56.2479 69.7852 56.2675 69.8016C56.2872 69.818 56.297 69.8475 56.2937 69.8933C56.2872 70.0472 56.261 70.2143 56.2217 70.3878C56.1791 70.5614 56.1169 70.735 56.0317 70.9053C55.9466 71.0756 55.8385 71.2393 55.7075 71.39C55.5765 71.5439 55.416 71.6716 55.2326 71.7797C55.0689 71.8747 54.9215 71.9205 54.7971 71.9172C54.6693 71.9172 54.5645 71.8714 54.4761 71.7895C54.3877 71.7077 54.3189 71.5865 54.2698 71.426C54.2207 71.2655 54.1912 71.0789 54.1814 70.866C54.1748 70.7284 54.1748 70.5778 54.1748 70.4075C54.1748 70.2372 54.1748 70.0833 54.1814 69.9424C54.1912 69.7165 54.2207 69.497 54.2698 69.2809C54.3189 69.0647 54.3877 68.865 54.4761 68.6816C54.5645 68.4982 54.6726 68.3311 54.7971 68.1805C54.9248 68.0331 55.0689 67.9119 55.2326 67.817C55.4193 67.7089 55.5765 67.6565 55.7075 67.6565C55.8385 67.6565 55.9466 67.6958 56.0317 67.7646C56.1169 67.8366 56.1824 67.9349 56.2217 68.0659C56.2642 68.1936 56.2872 68.3311 56.2937 68.472C56.2937 68.5145 56.2872 68.5571 56.2675 68.5964C56.2479 68.6357 56.2249 68.6619 56.1987 68.6783L55.9073 68.8453C55.8844 68.8584 55.8614 68.8617 55.8385 68.8486C55.8156 68.8355 55.8025 68.8093 55.7992 68.7634C55.7926 68.6947 55.7763 68.6324 55.7501 68.5768C55.7239 68.5211 55.6878 68.4818 55.642 68.4523C55.5961 68.4228 55.5405 68.413 55.4717 68.4163C55.4029 68.4228 55.3211 68.449 55.2294 68.5047C55.1377 68.5571 55.0558 68.6259 54.987 68.711C54.9182 68.7962 54.8593 68.8879 54.8134 68.9861C54.7676 69.0844 54.7316 69.1957 54.7054 69.3136C54.6792 69.4315 54.6661 69.5494 54.6595 69.6641C54.6562 69.8049 54.653 69.9621 54.653 70.1324C54.653 70.3027 54.653 70.4533 54.6595 70.5909C54.6628 70.7055 54.6792 70.807 54.7054 70.8922C54.7316 70.9773 54.7676 71.0461 54.8134 71.092C54.8593 71.1378 54.9182 71.164 54.987 71.1673C55.0558 71.1706 55.1377 71.1476 55.2294 71.092C55.3211 71.0396 55.4029 70.9741 55.4717 70.8987C55.5405 70.8234 55.5994 70.7448 55.6453 70.6629C55.6911 70.5811 55.7272 70.4992 55.7534 70.414C55.7796 70.3289 55.7959 70.247 55.8025 70.1717L55.8057 70.175Z" fill="#455A64"/>
<path d="M58.3798 69.222C58.406 69.2056 58.429 69.2088 58.4486 69.2252C58.4683 69.2449 58.4781 69.2743 58.4781 69.3136V69.7034C58.4781 69.7427 58.4683 69.7852 58.4486 69.8245C58.429 69.8638 58.406 69.8933 58.3798 69.9064L56.8078 70.8136C56.7816 70.83 56.7587 70.8267 56.7391 70.8103C56.7194 70.7907 56.7096 70.7612 56.7096 70.7219V67.162C56.7096 67.1227 56.7194 67.0801 56.7391 67.0408C56.7587 67.0015 56.7816 66.972 56.8078 66.9589L58.3504 66.0681C58.3766 66.0518 58.3995 66.055 58.4191 66.0714C58.4388 66.0911 58.4486 66.1205 58.4486 66.1598V66.5496C58.4486 66.5889 58.4388 66.6314 58.4191 66.6707C58.3995 66.71 58.3766 66.7395 58.3504 66.7526L57.1943 67.4207V68.2951L58.2718 67.6729C58.298 67.6565 58.3209 67.6598 58.3405 67.6794C58.3602 67.6991 58.37 67.7286 58.37 67.7679V68.1576C58.37 68.1969 58.3602 68.2395 58.3405 68.2788C58.3209 68.3181 58.298 68.3475 58.2718 68.3639L57.1943 68.9862V69.8999L58.3798 69.2154V69.222Z" fill="#455A64"/>
<g opacity="0.25">
<path d="M58.3046 53.7606V56.7474C58.3046 57.5039 57.7871 58.398 57.1321 58.7746L51.3485 62.1118C51.0636 62.2756 50.8998 62.6064 50.7262 62.9535C50.5985 63.209 50.4675 63.471 50.2808 63.6838C49.8322 64.1947 48.8529 64.7253 48.1619 64.9447C47.9294 65.02 47.6969 65.0724 47.4676 65.1052C47.3792 65.1183 47.2842 65.1314 47.1827 65.1445C46.5506 65.2296 45.7646 65.3377 45.3061 65.603L38.5367 69.51C38.3337 69.6279 38.1306 69.6869 37.9472 69.6869C37.8031 69.6869 37.6721 69.6541 37.551 69.5854C37.2759 69.4249 37.1219 69.1072 37.1219 68.6946V65.7078C37.1219 64.9513 37.6361 64.0572 38.2944 63.6806L40.5672 62.3673C40.5672 62.3673 40.5869 62.3575 40.6 62.3542C40.7081 62.3051 40.8391 62.3509 40.9013 62.4557C40.9635 62.5605 40.934 62.6948 40.8391 62.7636C40.8325 62.7734 40.8227 62.7799 40.8129 62.7865L38.54 64.0998C38.0389 64.3912 37.6099 65.1281 37.6099 65.7078V68.6946C37.6099 68.9238 37.6787 69.0941 37.7966 69.1629C37.9145 69.2317 38.0979 69.2055 38.2977 69.0908L45.0671 65.1838C45.6107 64.8694 46.4491 64.758 47.1205 64.6663C47.2187 64.6532 47.3137 64.6401 47.4021 64.627C47.6019 64.5976 47.8082 64.5517 48.0178 64.4829C48.6302 64.2897 49.544 63.7919 49.9206 63.3662C50.068 63.2024 50.1793 62.9764 50.2972 62.7406C50.4937 62.3444 50.6968 61.9317 51.1094 61.6959L56.893 58.3587C57.3941 58.0672 57.8231 57.3304 57.8231 56.7507V53.7639C57.8231 53.5347 57.7544 53.3644 57.6365 53.2956C57.5186 53.2268 57.3319 53.253 57.1354 53.3676L55.1638 54.5041C55.0983 54.3567 55.0132 54.2126 54.9149 54.0881L56.8898 52.9484C57.2467 52.7388 57.5972 52.7159 57.8755 52.8731C58.1506 53.0336 58.3046 53.3513 58.3046 53.7639V53.7606Z" fill="black"/>
</g>
<path d="M54.0864 53.8162C54.2436 53.7245 54.4565 53.7376 54.6956 53.8751C55.1704 54.1502 55.5536 54.8151 55.5536 55.3653C55.5536 55.6404 55.4554 55.8336 55.2982 55.922L41.576 63.8475L40.361 61.7417L54.0832 53.8195L54.0864 53.8162Z" fill="#37474F"/>
<path d="M40.9734 62.7997L55.3047 54.5238C55.1475 54.252 54.9347 54.0162 54.6956 53.8787C54.6661 53.8623 54.6399 53.8525 54.6137 53.8394L40.5051 61.9875L40.9734 62.7997Z" fill="#455A64"/>
<path d="M40.9735 61.8008C40.4986 61.5257 40.1154 61.7484 40.1154 62.2986C40.1154 62.8488 40.5019 63.5136 40.9735 63.7887C41.4483 64.0638 41.8315 63.8411 41.8315 63.2909C41.8315 62.744 41.4451 62.0759 40.9735 61.8008Z" fill="#263238"/>
<path d="M58.547 53.9738V56.9606C58.547 57.7171 58.0295 58.6111 57.3745 58.9878L51.5909 62.325C51.306 62.4887 51.1422 62.8195 50.9687 63.1666C50.841 63.4221 50.71 63.6841 50.5233 63.897C50.0746 64.4079 49.0954 64.9384 48.4044 65.1578C48.1718 65.2332 47.9393 65.2856 47.7101 65.3183C47.6216 65.3314 47.5267 65.3445 47.4251 65.3576C46.7931 65.4428 46.0071 65.5508 45.5486 65.8161L38.7792 69.7232C38.5761 69.8411 38.3731 69.9 38.1897 69.9C38.0456 69.9 37.9146 69.8673 37.7934 69.7985C37.5183 69.638 37.3644 69.3204 37.3644 68.9077V65.9209C37.3644 65.1644 37.8786 64.2703 38.5368 63.8937L40.8097 62.5804C40.8097 62.5804 40.8293 62.5706 40.8424 62.5673C40.9505 62.5182 41.0815 62.5641 41.1437 62.6689C41.2059 62.7737 41.1765 62.9079 41.0815 62.9767C41.0749 62.9865 41.0651 62.9931 41.0553 62.9996L38.7824 64.3129C38.2814 64.6044 37.8524 65.3412 37.8524 65.9209V68.9077C37.8524 69.137 37.9211 69.3072 38.039 69.376C38.1569 69.4448 38.3403 69.4186 38.5401 69.304L45.3095 65.3969C45.8531 65.0825 46.6915 64.9712 47.3629 64.8795C47.4612 64.8664 47.5561 64.8533 47.6446 64.8402C47.8443 64.8107 48.0507 64.7648 48.2603 64.6961C48.8727 64.5028 49.7864 64.005 50.163 63.5793C50.3104 63.4155 50.4218 63.1896 50.5397 62.9538C50.7362 62.5575 50.9392 62.1449 51.3518 61.9091L57.1355 58.5718C57.6365 58.2804 58.0656 57.5435 58.0656 56.9638V53.977C58.0656 53.7478 57.9968 53.5775 57.8789 53.5087C57.761 53.4399 57.5743 53.4661 57.3778 53.5808L55.4063 54.7172C55.3408 54.5698 55.2556 54.4257 55.1574 54.3013L57.1322 53.1616C57.4892 52.952 57.8396 52.929 58.118 53.0862C58.3931 53.2467 58.547 53.5644 58.547 53.977V53.9738Z" fill="#455A64"/>
<path d="M75.5243 80.3335C75.5374 80.0354 75.4654 79.8553 75.3311 79.7833L75.3114 79.7702C75.1706 79.7079 74.2405 79.1545 74.1095 79.0824L74.0931 79.0693C73.9523 79.0071 73.746 79.0693 73.4971 79.256C71.0146 81.1555 67.5988 81.6205 65.0018 80.4743C64.6448 80.209 64.314 79.9077 64.016 79.5638C63.9996 79.5475 63.9865 79.5278 63.9702 79.5114C63.885 79.4197 63.8031 79.351 63.718 79.3051C63.718 79.3051 62.5848 78.6468 62.4997 78.601L62.4571 78.5781C62.1787 78.4471 61.9233 78.5781 61.7563 78.994C59.4015 84.8497 54.3777 90.7807 51.0307 92.2642C50.7818 92.3756 50.5525 92.5459 50.3724 92.7555C50.1366 93.0273 49.9892 93.3646 50.0023 93.7151C50.0023 101.241 54.1255 113.27 61.9397 117.288C62.4014 117.59 62.8796 117.865 63.3741 118.107C74.1226 107.021 75.5243 89.2578 75.5243 80.34V80.3335Z" fill="#FFB17E"/>
<path opacity="0.4" d="M75.3149 79.7671C75.1741 79.7049 74.9677 79.7671 74.7188 79.9538C71.8303 82.1644 67.6711 82.433 65.0118 80.4745C67.6121 81.6142 71.0214 81.1524 73.5005 79.253C73.7494 79.063 73.9558 79.0041 74.0966 79.0663L74.113 79.0794C74.244 79.1514 75.1741 79.7016 75.3149 79.7671Z" fill="white"/>
<path d="M63.6788 79.276C63.4005 79.145 63.145 79.276 62.978 79.6919C60.6233 85.5476 55.5994 91.4786 52.2524 92.9622C52.0035 93.0735 51.7742 93.2438 51.5941 93.4534C51.4959 93.5713 51.4107 93.6958 51.3485 93.8301L50.1335 93.1292C50.1957 92.9949 50.2776 92.8639 50.3758 92.7526C50.556 92.543 50.7852 92.3727 51.0341 92.2613C54.3811 90.7778 59.4017 84.8468 61.7597 78.9911C61.9267 78.5785 62.1822 78.4442 62.4605 78.5752L62.5031 78.5981C62.5424 78.6178 62.7815 78.7586 63.0435 78.906C63.3022 79.0566 63.5773 79.2171 63.6788 79.276Z" fill="#FFB17E"/>
<path opacity="0.4" d="M63.6788 79.276C63.4005 79.145 63.145 79.276 62.978 79.6919C60.6233 85.5476 55.5994 91.4786 52.2524 92.9622C52.0035 93.0735 51.7742 93.2438 51.5941 93.4534C51.4959 93.5713 51.4107 93.6958 51.3485 93.8301L50.1335 93.1292C50.1957 92.9949 50.2776 92.8639 50.3758 92.7526C50.556 92.543 50.7852 92.3727 51.0341 92.2613C54.3811 90.7778 59.4017 84.8468 61.7597 78.9911C61.9267 78.5785 62.1822 78.4442 62.4605 78.5752L62.5031 78.5981C62.5424 78.6178 62.7815 78.7586 63.0435 78.906C63.3022 79.0566 63.5773 79.2171 63.6788 79.276Z" fill="white"/>
<path opacity="0.3" d="M61.9266 117.276C54.1223 113.254 50.0057 101.231 50.0057 93.7121C49.9991 93.509 50.0515 93.3125 50.1334 93.1292L51.3484 93.83C51.26 94.0134 51.2174 94.2066 51.224 94.4129C51.224 101.539 54.9116 112.691 61.9299 117.276H61.9266Z" fill="black"/>
<path d="M75.5243 80.3339C75.5243 89.255 74.1227 107.015 63.3741 118.101C55.4192 114.197 51.224 102.008 51.224 94.4131C51.2109 94.0627 51.3582 93.7253 51.594 93.4535C51.7741 93.2439 52.0034 93.0736 52.2523 92.9623C55.5993 91.4787 60.6199 85.5477 62.9779 79.692C63.1449 79.2794 63.4003 79.1451 63.6787 79.2761L63.7213 79.299C63.8064 79.3449 63.8883 79.4137 63.9735 79.5054C63.9735 79.5054 64.0029 79.5381 64.0193 79.5578C66.5181 82.4692 71.4339 82.4659 74.7187 79.954C74.9676 79.7641 75.1739 79.7051 75.3147 79.7674L75.3311 79.7805C75.4621 79.8525 75.5342 80.0359 75.5243 80.3307V80.3339Z" fill="#FFB17E"/>
<path opacity="0.1" d="M75.5243 80.3339C75.5243 89.255 74.1227 107.015 63.3741 118.101C55.4192 114.197 51.224 102.008 51.224 94.4131C51.2109 94.0627 51.3582 93.7253 51.594 93.4535C51.7741 93.2439 52.0034 93.0736 52.2523 92.9623C55.5993 91.4787 60.6199 85.5477 62.9779 79.692C63.1449 79.2794 63.4003 79.1451 63.6787 79.2761L63.7213 79.299C63.8064 79.3449 63.8883 79.4137 63.9735 79.5054C63.9735 79.5054 64.0029 79.5381 64.0193 79.5578C66.5181 82.4692 71.4339 82.4659 74.7187 79.954C74.9676 79.7641 75.1739 79.7051 75.3147 79.7674L75.3311 79.7805C75.4621 79.8525 75.5342 80.0359 75.5243 80.3307V80.3339Z" fill="white"/>
<path d="M63.6787 79.2758C63.4003 79.1448 63.1449 79.2758 62.9779 79.6917C60.6232 85.5474 55.5993 91.4784 52.2523 92.962C52.0034 93.0733 51.7741 93.2436 51.594 93.4532C51.3582 93.7251 51.2109 94.0624 51.224 94.4128C51.224 102.011 55.4225 114.197 63.3741 118.101C68.7189 97.4356 63.682 79.2758 63.682 79.2758H63.6787Z" fill="#FFB17E"/>
<path opacity="0.05" d="M63.6787 79.2758C63.4003 79.1448 63.1449 79.2758 62.9779 79.6917C60.6232 85.5474 55.5993 91.4784 52.2523 92.962C52.0034 93.0733 51.7741 93.2436 51.594 93.4532C51.3582 93.7251 51.2109 94.0624 51.224 94.4128C51.224 102.011 55.4225 114.197 63.3741 118.101C68.7189 97.4356 63.682 79.2758 63.682 79.2758H63.6787Z" fill="#C64A00"/>
<path d="M64.1077 105.505L58.7073 101.991L60.3218 99.5121L63.0368 101.277L68.7189 90.804L71.3192 92.2122L64.1077 105.505Z" fill="#F26E10"/>
<path d="M65.8075 96.1714L63.0369 101.28L60.3219 99.5119L58.7073 101.991L64.1078 105.508L65.7191 102.538C65.8337 100.308 65.8534 98.1757 65.8075 96.1714Z" fill="#F26E10"/>
<path d="M96.1993 121.209L94.9777 120.626L96.1764 120.286L96.1993 121.209Z" fill="#263238"/>
<path d="M84.1212 123.508C84.1212 123.508 98.4624 117.001 98.649 117.957C98.6883 118.167 98.6851 118.36 98.6458 118.533C98.6589 118.517 98.6719 118.501 98.685 118.481L98.4329 120.269C98.4329 120.269 97.4111 121.144 96.1993 121.209C96.1993 121.124 96.1862 120.59 96.1797 120.289C95.79 120.453 95.3904 120.649 94.9155 120.963C93.9986 121.573 93.4123 122.63 92.4397 123.862C91.7323 124.759 90.4648 125.185 88.5817 125.46C86.5578 125.758 84.7664 125.385 84.2587 124.851C83.8559 124.425 84.0491 123.636 84.1212 123.511V123.508Z" fill="#263238"/>
<path d="M84.5174 123.174C84.6549 123.03 85.1625 122.467 85.8536 121.854C86.4562 121.317 87.1603 120.642 87.9168 120.092C88.2181 119.873 88.6832 119.522 88.9419 119.244C89.1908 118.975 89.4299 118.7 89.6526 118.409C90.3403 117.505 90.897 116.516 91.3686 115.488C91.5913 115 91.8697 114.485 91.9647 113.955C92.0662 113.395 92.1219 112.828 92.1252 112.258C92.1252 109.694 92.0662 109.288 92.0433 107.336L98.1249 107.493C97.9317 108.577 97.6402 110.054 97.542 111.286C97.3946 113.156 97.3455 113.572 98.0987 115.432C98.3214 115.979 98.6489 116.506 98.6784 117.092C98.7308 118.049 97.9743 118.881 97.1293 119.352C96.4285 119.745 95.6163 119.915 94.9351 120.335C94.2179 120.773 93.6644 121.432 93.1568 122.083C92.6754 122.699 92.2922 123.423 91.6175 123.858C90.8676 124.34 90.1503 124.494 89.2792 124.674C88.2771 124.88 86.99 124.913 86.1319 124.851C84.6385 124.746 83.5218 124.215 84.5206 123.167L84.5174 123.174Z" fill="#FFBDA7"/>
<path d="M90.1144 120.21C89.0631 119.673 88.1166 119.902 87.8808 120.024C86.8263 120.859 85.9519 121.602 85.3362 122.123C84.5895 122.752 83.9345 123.328 83.9672 124.045C84.0196 125.169 88.4409 125.477 90.9004 124.396C92.1842 123.944 92.6361 122.876 92.6361 122.876C92.6361 122.876 92.2595 121.307 90.1144 120.21ZM98.4853 116.117C98.1021 115.396 97.958 115.029 97.958 115.029C97.1032 115.494 95.6262 117.623 96.3238 119.749C97.1032 119.542 97.863 119.241 98.4787 118.281C98.9438 117.554 98.8684 116.837 98.4853 116.117Z" fill="#37474F"/>
<path d="M109.659 116.951C109.26 117.596 109.764 120.013 109.666 121.739C109.578 123.305 109.152 126.036 109.623 127.582C110.18 129.413 111.32 131.538 113.462 129.809C114.788 128.738 115.554 127.359 115.744 125.103C115.875 123.534 115.266 121.369 114.742 119.45C114.13 117.207 113.901 116.008 113.901 116.008L109.663 116.948L109.659 116.951Z" fill="#263238"/>
<path d="M113.956 105.358C114.114 109.013 113.681 111.58 113.655 113.922C113.681 115.013 113.753 115.933 113.996 117.082C114.307 118.576 114.841 120.652 115.063 121.621C115.374 122.974 115.61 123.826 115.135 125.345C115.099 125.463 115.044 125.578 114.978 125.689C114.313 126.94 112.623 127.883 112.08 127.733C111.929 127.978 111.546 128.129 111.127 128.06C111.068 128.05 111.006 128.037 110.947 128.018C110.888 127.998 110.825 127.975 110.767 127.945C110.406 127.772 110.066 127.415 109.866 126.796C109.833 126.694 109.804 126.583 109.777 126.465C109.384 124.582 109.591 123.321 109.601 122.581C109.614 121.566 109.591 120.583 109.515 119.211C109.44 117.839 109.214 113.644 108.729 111.584C108.369 110.146 107.921 108.345 107.446 106.422L113.953 105.358H113.956Z" fill="#FFBDA7"/>
<path d="M115.391 123.383C114.058 122.807 110.19 122.725 109.574 124.572C109.558 126.311 109.548 127.49 110.668 129.003C112.155 131.014 114.094 128.882 114.841 127.53C115.584 126.177 115.574 124.32 115.394 123.383H115.391Z" fill="#37474F"/>
<path d="M108.913 57.6119C110.796 60.9262 112.316 63.7198 112.807 72.4771C113.36 82.3577 113.279 86.1207 113.328 87.3128C113.377 88.5049 114.159 90.6925 114.824 96.5646C115.489 102.437 114.788 116.673 114.788 116.673C114.788 116.673 114.317 117.633 112.031 117.849C109.922 118.049 108.68 117.321 108.68 117.321C108.68 117.321 105.327 98.6278 104.498 95.0941C103.67 91.5604 101.256 79.9375 101.256 79.9375L100.464 91.0299C100.464 91.0299 101.132 94.2688 100.526 99.4269C99.9199 104.585 98.3642 114.335 98.3642 114.335C98.3642 114.335 97.4669 115.225 94.7094 115.173C91.775 115.117 91.1625 114.315 91.1625 114.315C91.1625 114.315 90.5043 93.3486 90.4617 87.506C90.4191 81.6634 90.072 66.4969 91.8798 57.8346L108.913 57.6086V57.6119Z" fill="#455A64"/>
<path d="M106.683 64.9415C106.925 65.888 107.144 66.841 107.38 67.7908C107.609 68.7438 107.839 69.6968 108.088 70.6564C108.104 69.6641 108.006 68.6783 107.868 67.7024C107.731 66.7231 107.537 65.7537 107.302 64.7942C107.056 63.8379 106.774 62.8849 106.421 61.958C106.067 61.0312 105.654 60.1208 105.107 59.2856C105.415 60.2288 105.69 61.1655 105.949 62.1054C106.204 63.0486 106.453 63.9918 106.686 64.9415H106.683ZM108.359 63.1043C108.687 63.6741 108.998 64.2505 109.312 64.8269L110.243 66.5889C110.18 65.9175 110 65.2625 109.768 64.6304C109.538 63.9951 109.24 63.3892 108.916 62.803C108.579 62.22 108.212 61.6535 107.796 61.1229C107.383 60.5891 106.935 60.0847 106.424 59.6328C106.725 60.2387 107.056 60.8151 107.383 61.3882C107.708 61.9646 108.042 62.5312 108.359 63.1043Z" fill="#37474F"/>
<path d="M81.4849 12.984C84.5764 13.8126 87.3798 16.6847 88.8274 19.6126C95.2529 19.7632 103.116 22.5339 110.324 26.8765L117.578 5.40895C105.517 2.19947 93.4811 3.34244 81.4881 12.984H81.4849Z" fill="#007AB4"/>
<path d="M141.676 33.3182C138.715 32.1032 134.743 32.6862 131.818 34.137C126.617 30.3609 118.685 27.7933 110.321 26.8731L117.572 5.40552C129.106 10.1673 137.988 18.3777 141.673 33.3182H141.676Z" fill="#007AB4"/>
<path opacity="0.25" d="M141.676 33.3182C138.715 32.1032 134.743 32.6862 131.818 34.137C126.617 30.3609 118.685 27.7933 110.321 26.8731L117.572 5.40552C129.106 10.1673 137.988 18.3777 141.673 33.3182H141.676Z" fill="black"/>
<path d="M88.8242 19.6124C95.2464 19.7631 103.116 22.5337 110.321 26.8763L117.572 5.41209C109.159 4.36082 96.7627 9.58114 88.8242 19.6157V19.6124Z" fill="#007AB4"/>
<path opacity="0.15" d="M88.8242 19.6124C95.2464 19.7631 103.116 22.5337 110.321 26.8763L117.572 5.41209C109.159 4.36082 96.7627 9.58114 88.8242 19.6157V19.6124Z" fill="black"/>
<path opacity="0.15" d="M141.676 33.3182C137.988 18.3777 129.11 10.1706 117.575 5.40552C124.901 9.67282 131.592 21.3416 131.821 34.137C134.746 32.6862 138.719 32.1032 141.679 33.3182H141.676Z" fill="black"/>
<path d="M104.279 36.161C103.84 36.626 103.702 37.114 102.995 36.888C102.389 36.6948 101.944 36.2298 101.453 35.8466C100.811 35.3488 100.182 34.8379 99.5629 34.3106C98.3478 33.2725 97.1787 32.1753 96.0684 31.0258C95.4331 30.3676 94.6766 29.634 94.2901 28.7923C93.9168 27.9735 93.6646 27.0631 93.7465 26.1559C93.9168 24.2892 95.0729 21.8624 98.505 21.1681C101.364 20.5884 106.827 21.214 107.524 24.9245C107.56 25.1177 107.986 25.3797 108.107 25.5533C108.32 25.8579 108.497 26.1887 108.635 26.5358C108.913 27.2268 109.037 27.9801 108.985 28.7235C108.867 30.4363 107.878 31.9559 106.804 33.2987C106.008 34.2943 105.15 35.2375 104.279 36.1643V36.161Z" fill="#263238"/>
<path d="M89.4725 43.015C86.8427 46.0247 84.5076 48.4351 84.5076 48.4351C84.5142 48.4253 83.738 47.7867 83.6954 47.7474C82.8308 47.0072 81.9761 46.254 81.1573 45.4647C80.2207 44.5641 79.3626 43.6111 79.0482 42.2978C78.9794 42.0129 78.95 41.7181 78.9238 41.4267C78.8419 40.585 78.76 39.7466 78.6814 38.9049C78.6421 38.5021 78.5439 38.0632 78.5635 37.6604C78.5766 37.405 78.7109 37.0971 78.6618 36.8384C78.6061 36.5305 78.2131 36.4225 77.6695 36.9432C77.3321 37.2674 77.1979 37.7947 77.1029 38.1418C76.9948 38.525 76.9522 39.0228 76.818 39.0457C76.6837 39.0687 76.2383 38.6102 75.7438 38.299C75.246 37.9879 74.8497 37.5949 74.1914 37.5687C73.5331 37.5458 73.3759 38.1124 73.3858 38.3383C73.3956 38.5741 73.5823 38.8099 73.5823 38.8099C73.5823 38.8099 73.2842 38.6527 72.9469 38.7903C72.6096 38.9311 72.4131 39.5304 72.5768 39.8317C72.5768 39.8317 72.1969 39.6942 71.9775 40.0872C71.7941 40.418 71.7123 40.7848 72.0201 41.0435C72.0201 41.0435 71.7057 41.014 71.6271 41.1778C71.5518 41.3415 71.3291 41.8524 71.5551 42.1504C71.781 42.4484 72.4851 42.7334 72.4851 42.7334C72.4851 42.7334 72.495 42.8775 72.7734 43.1689C72.8716 43.2705 73.1762 43.9451 73.5692 44.3643C74.1063 44.9407 74.6335 45.1012 75.2656 45.4647C76.294 46.0575 77.4075 47.8947 78.5668 49.7091C79.9488 51.8706 81.1016 53.8192 82.5426 55.2078C84.3373 56.9403 85.513 56.77 87.7859 54.5069C90.5467 51.756 93.5597 47.957 93.5597 47.957L94.647 39.37C92.5936 39.6123 91.5849 40.5948 89.4758 43.0085L89.4725 43.015Z" fill="#FFBDA7"/>
<path d="M73.8052 42.1413C73.7986 42.2002 73.7691 42.2363 73.7462 42.2854C73.72 42.3443 73.684 42.3935 73.6414 42.4426C73.5792 42.5114 73.5137 42.5802 73.4318 42.626C73.3827 42.6555 73.327 42.6718 73.2713 42.6882C73.1043 42.7341 72.9439 42.7373 72.7736 42.7373C72.6753 42.7373 72.5803 42.7406 72.4821 42.7439C72.6065 42.793 72.7343 42.8258 72.8685 42.8421C73.0257 42.8585 73.196 42.8389 73.35 42.7996C73.386 42.7897 73.422 42.7799 73.458 42.7635C73.553 42.721 73.6349 42.6522 73.6971 42.567C73.7593 42.4819 73.8248 42.3607 73.8346 42.2526C73.8346 42.2428 73.8412 42.1446 73.8281 42.1446C73.9394 42.1544 74.0442 42.1446 74.149 42.1347C74.3062 42.1085 74.4831 42.1118 74.637 41.9939C74.7091 41.9317 74.7516 41.8662 74.7975 41.7876C74.8106 41.7647 74.8204 41.7352 74.8237 41.709L74.9874 41.5878C74.9874 41.5878 74.9383 41.9808 75.2036 42.6096C75.4689 43.2384 75.9863 43.615 75.9863 43.615C75.9863 43.615 75.6031 43.2843 75.3935 42.4688C75.2134 41.768 75.5704 40.9689 75.8717 40.6021C75.8815 40.6021 75.8913 40.6021 75.9012 40.6021C75.9732 40.5824 76.0223 40.5398 76.0616 40.5005C76.1501 40.4088 76.1861 40.2844 76.1894 40.173C76.1894 40.0584 76.1697 39.9503 76.1337 39.8488C75.9929 39.4362 75.6654 39.1381 75.3182 38.9187C75.3084 38.8205 75.2789 38.7353 75.2462 38.6534C75.2069 38.565 75.1577 38.4831 75.1021 38.4045C75.1479 38.4897 75.1839 38.5781 75.2167 38.6665C75.2462 38.755 75.2691 38.8499 75.2658 38.9384V38.9547L75.2789 38.9646C75.6064 39.2036 75.9012 39.5115 76.0191 39.8914C76.078 40.0715 76.0911 40.2942 75.9699 40.4121C75.8946 40.4809 75.8553 40.494 75.7669 40.4481C75.6817 40.4088 75.59 40.3499 75.4951 40.304C75.3051 40.2058 75.1119 40.137 74.9285 40.0486C74.7484 39.9602 74.5813 39.8488 74.4241 39.7178C74.2702 39.5868 74.1294 39.4362 73.982 39.2888C73.8379 39.1414 73.6938 38.994 73.5726 38.827C73.7855 39.184 74.0606 39.4984 74.3554 39.7931C74.506 39.9372 74.6796 40.0682 74.8695 40.1599C75.0562 40.2549 75.2527 40.3302 75.4296 40.4252C75.4656 40.4449 75.5016 40.4645 75.5376 40.4842C75.5868 40.5693 75.6064 40.6643 75.5868 40.756C75.5573 40.923 75.4165 41.0376 75.2527 41.0737C75.0824 41.1195 74.9121 41.1621 74.7451 41.1719C74.5748 41.1719 74.3914 41.1785 74.244 41.1228C73.9362 41.0049 73.6807 40.7331 73.4056 40.5136C73.1305 40.2877 72.8554 40.0617 72.5672 39.8521C72.8161 40.1108 73.0716 40.3532 73.3336 40.5988C73.4613 40.72 73.5956 40.8379 73.7331 40.9558C73.8707 41.0704 74.018 41.1883 74.2014 41.2538C74.3161 41.2833 74.4274 41.2964 74.542 41.2996C74.637 41.3684 74.7156 41.4536 74.7484 41.5584C74.7713 41.6271 74.7615 41.6992 74.7254 41.7581C74.6861 41.8171 74.6305 41.8859 74.5781 41.9219C74.4634 41.9939 74.2964 42.0038 74.1425 42.0201C73.9853 42.0332 73.8248 42.0398 73.6971 41.9874C73.5628 41.9383 73.458 41.8204 73.3205 41.7188C73.1862 41.6206 73.0421 41.5387 72.898 41.4699C72.6098 41.3226 72.3183 41.1883 72.017 41.0671C72.2921 41.2374 72.5705 41.3979 72.8456 41.5649C72.9799 41.6501 73.1207 41.7287 73.2419 41.8236C73.363 41.9153 73.4711 42.0496 73.6414 42.1216C73.6971 42.1413 73.7495 42.1511 73.8052 42.1577V42.1413ZM75.6031 40.5169C75.6031 40.5169 75.6031 40.5104 75.5999 40.5071C75.5999 40.5104 75.5999 40.5136 75.6031 40.5169Z" fill="#F0997A"/>
<path d="M84.5077 48.4355C85.3232 49.0577 86.3319 49.9714 86.4268 51.4812C86.6692 49.7749 85.726 48.4388 84.8876 47.9475L84.5077 48.4355Z" fill="#F28F8F"/>
<path d="M94.9418 39.2036C92.312 39.4885 91.3524 40.6741 89.168 43.1369C87.2521 45.2984 84.5077 48.1967 84.5077 48.1967L80.5188 44.8268C80.5188 44.8268 80.7546 45.6586 79.6116 46.985C78.6586 48.0887 77.2831 47.8594 77.2831 47.8594C77.2831 47.8594 78.8715 50.5416 80.9249 53.5677C83.0045 56.6364 84.6813 56.9409 86.1583 56.132C87.6353 55.3231 94.4964 48.0461 94.4964 48.0461L94.9418 39.2069V39.2036Z" fill="#37474F"/>
<path d="M84.5078 48.1965C85.8407 49.3133 86.6136 51.5042 86.774 52.7422C87 49.8897 85.1267 47.5415 85.1267 47.5415L84.5078 48.1965Z" fill="#263238"/>
<path d="M110.776 62.1346C111.877 61.2405 111.022 59.6358 110.413 55.1196C110.226 53.7277 111.12 50.2791 111.12 50.2791C111.12 50.2791 108.54 46.3885 109.375 39.6322L105.369 38.8822L98.8488 38.7839L95.099 39.4127C94.2344 40.1758 93.3829 41.5218 92.122 43.346C90.3077 45.9791 89.9802 49.5324 91.9386 51.6284C91.9681 52.0411 92.027 54.8576 91.8502 56.4852C91.6046 58.7417 90.347 60.9359 91.657 62.0494C95.4854 65.3015 105.579 65.5275 110.773 62.1313L110.776 62.1346Z" fill="#007AB4"/>
<path opacity="0.2" d="M110.776 62.1346C111.877 61.2405 111.022 59.6358 110.413 55.1196C110.226 53.7277 111.12 50.2791 111.12 50.2791C111.12 50.2791 108.54 46.3885 109.375 39.6322L105.369 38.8822L98.8488 38.7839L95.099 39.4127C94.2344 40.1758 93.3829 41.5218 92.122 43.346C90.3077 45.9791 89.9802 49.5324 91.9386 51.6284C91.9681 52.0411 92.027 54.8576 91.8502 56.4852C91.6046 58.7417 90.347 60.9359 91.657 62.0494C95.4854 65.3015 105.579 65.5275 110.773 62.1313L110.776 62.1346Z" fill="white"/>
<path d="M106.172 34.0189C106.925 34.1564 107.639 33.7929 108.094 33.3016C109.109 32.2078 109.204 31.0943 108.733 30.3509C108.346 29.7417 107.39 29.352 106.719 29.7614C106.001 30.2002 105.978 30.5605 105.707 31.0615C105.428 31.5724 104.741 31.1696 104.976 29.1686C104.567 28.9787 104.289 28.6282 104.092 28.232C104.046 28.1403 103.679 27.0137 103.689 27.0169C102.851 26.8466 102.098 26.303 101.672 25.5628C101.656 25.9296 101.737 26.303 101.908 26.6305C101.308 26.5945 100.699 26.5552 100.126 26.3783C99.553 26.2015 99.0028 25.8707 98.6785 25.3663C98.636 25.9231 98.7244 26.4897 98.934 27.0071C97.6535 26.7844 96.5793 25.6644 96.409 24.374C95.921 25.1633 95.4036 25.8772 95.1809 26.7877C94.968 27.6687 94.8599 28.5758 94.7748 29.4765C94.4374 33.1019 94.7551 34.9686 95.8424 35.9544C96.4286 36.4849 97.3915 37.058 98.9012 37.1072L98.8521 38.7938C98.8521 38.7938 95.1416 42.3177 99.9263 41.9705C103.512 41.7118 105.35 38.9543 105.35 38.9543L105.382 33.4556C105.382 33.4556 105.461 33.8944 106.175 34.0254L106.172 34.0189Z" fill="#FFBDA7"/>
<path d="M98.3119 33.3739C98.4265 33.9404 98.9898 34.3105 99.5662 34.1992C100.146 34.0878 100.519 33.5343 100.405 32.9678L98.3086 33.3771L98.3119 33.3739Z" fill="#B16668"/>
<path d="M100.414 33.3085C100.355 33.7408 100.028 34.1076 99.5694 34.1993C99.4416 34.2255 99.3139 34.2222 99.1927 34.2026C99.2812 33.6262 99.8281 33.2266 100.418 33.3085H100.414Z" fill="#F28F8F"/>
<path d="M100.703 27.6949L102.078 28.4154C102.297 28.0453 102.166 27.5868 101.787 27.3871C101.407 27.1873 100.922 27.3248 100.703 27.6949Z" fill="#263238"/>
<path d="M96.9821 27.5345L95.6066 28.255C95.3872 27.8849 95.5182 27.4264 95.8981 27.2267C96.278 27.0269 96.7627 27.1644 96.9821 27.5345Z" fill="#263238"/>
<path d="M101.469 29.3913C101.469 29.7057 101.214 29.9579 100.902 29.9579C100.591 29.9579 100.336 29.7024 100.336 29.3913C100.336 29.0802 100.591 28.8247 100.902 28.8247C101.214 28.8247 101.469 29.0802 101.469 29.3913Z" fill="#263238"/>
<path d="M97.0968 29.2177C97.0968 29.5321 96.8413 29.7843 96.5302 29.7843C96.2191 29.7843 95.9636 29.5288 95.9636 29.2177C95.9636 28.9066 96.2191 28.6511 96.5302 28.6511C96.8413 28.6511 97.0968 28.9066 97.0968 29.2177Z" fill="#263238"/>
<path d="M96.7234 30.9374L98.6622 31.956L99.2845 28.0227L96.7234 30.9374Z" fill="#F0997A"/>
<path d="M98.8981 37.101C100.771 37.0322 103.732 36.2462 104.587 34.1863C104.086 36.3674 102.258 37.1338 101.207 37.4252C99.9264 37.7789 98.9112 37.815 98.9112 37.815L98.8981 37.1043V37.101Z" fill="#F0997A"/>
<path d="M98.839 38.3125L98.8489 38.7841C98.8489 38.7841 96.206 40.7655 94.2508 43.988C92.2956 47.2106 92.8851 51.2454 92.7869 55.4014C92.6886 59.5573 92.908 68.3736 92.908 68.3736C92.908 68.3736 91.0642 68.0002 90.121 66.5887C90.121 64.2733 90.7793 56.3806 90.8219 53.908C90.8579 51.9102 90.7302 50.9081 90.406 49.0774C90.0817 47.2467 90.3667 43.6114 94.9418 39.2033L98.839 38.3125Z" fill="#263238"/>
<path d="M105.35 38.4304C105.35 38.4304 103.571 42.403 103.512 46.4541C103.454 50.502 105.114 70.1618 105.114 70.1618C105.114 70.1618 111.307 70.6563 114.264 68.0527C113.616 64.8628 112.155 60.1993 111.634 58.1917C111.114 56.1808 110.825 54.5499 111.307 52.4539C111.788 50.3612 112.217 48.9857 112.217 48.9857L109.843 39.4489L105.35 38.4337V38.4304Z" fill="#263238"/>
<path d="M116.193 9.50233C116.193 9.50233 116.249 9.51215 116.354 9.52853C116.403 9.53508 116.468 9.5449 116.54 9.558C116.593 9.56128 116.662 9.56783 116.704 9.56455C116.95 9.57438 116.891 9.44665 116.95 9.32875C117.032 9.08313 117.146 8.72943 117.284 8.30696C117.556 7.46201 117.899 6.32559 118.207 5.17935C118.365 4.60623 118.509 4.02983 118.633 3.48618C118.695 3.21436 118.764 2.95236 118.813 2.70346C118.866 2.45128 118.915 2.21549 118.964 1.99606C119.013 1.77664 119.046 1.57359 119.078 1.39346C119.111 1.21334 119.141 1.05614 119.16 0.928416C119.203 0.669692 119.223 0.519043 119.223 0.519043C119.223 0.519043 119.147 0.650042 119.026 0.882566C118.964 0.997191 118.889 1.13802 118.81 1.30176C118.728 1.46551 118.63 1.64564 118.538 1.84869C118.443 2.05174 118.338 2.27116 118.227 2.50041C118.116 2.72966 118.011 2.97856 117.896 3.23401C117.667 3.74163 117.431 4.28855 117.208 4.83875C116.76 5.93914 116.344 7.04936 116.046 7.88776C115.898 8.30696 115.777 8.65738 115.692 8.90301C115.669 9.03073 115.545 9.09623 115.748 9.24033C115.781 9.2698 115.84 9.30583 115.882 9.33531C115.948 9.37133 116.003 9.4008 116.049 9.427C116.141 9.47613 116.19 9.50233 116.19 9.50233H116.193Z" fill="#263238"/>
<path d="M102.111 49.4182L114.67 12.0964C114.769 11.8082 115.08 11.6543 115.368 11.7525C115.656 11.8508 115.81 12.1619 115.712 12.4501L103.152 49.7719C102.861 49.9749 102.166 49.726 102.111 49.4214V49.4182Z" fill="#E0E0E0"/>
<path d="M101.672 49.2511L100.182 53.0926C99.3925 55.2476 98.0989 55.5063 96.8675 55.0282C95.5902 54.5336 95.6983 52.4999 96.0225 51.6746C96.3468 50.8493 95.0695 49.9618 94.4407 51.0687C93.8119 52.1756 93.2093 55.5653 96.2714 56.7639C98.0105 57.4451 99.7822 56.7901 100.686 55.9714C101.095 55.598 101.479 55.1854 101.859 54.2127C102.235 53.24 103.506 49.9585 103.506 49.9585L101.669 49.2478L101.672 49.2511Z" fill="#455A64"/>
<path d="M102.052 49.0085C102.487 48.9201 103.08 49.1166 103.375 49.4473C103.67 49.7781 103.558 50.122 103.123 50.2104C102.687 50.2988 102.094 50.1023 101.8 49.7716C101.505 49.4408 101.616 49.0969 102.052 49.0085Z" fill="#455A64"/>
<path d="M113.554 17.3132C120.261 18.335 126.172 21.1416 131.288 25.7332C136.734 27.1021 139.96 29.7712 141.676 33.318C138.522 18.1647 128.713 9.17158 117.575 5.40534C106.434 1.64238 93.1798 2.8443 81.4849 12.9804C85.0022 11.2021 89.1844 11.035 94.3457 13.2489C101.197 12.6987 107.603 14.0546 113.554 17.3099V17.3132Z" fill="#007AB4"/>
<g opacity="0.2">
<path d="M113.554 17.3132C120.261 18.335 126.172 21.1416 131.288 25.7332C136.734 27.1021 139.96 29.7712 141.676 33.318C138.522 18.1647 128.713 9.17158 117.575 5.40534C106.434 1.64238 93.1798 2.8443 81.4849 12.9804C85.0022 11.2021 89.1844 11.035 94.3457 13.2489C101.197 12.6987 107.603 14.0546 113.554 17.3099V17.3132Z" fill="white"/>
</g>
<path d="M94.3425 13.2522C101.197 12.702 107.6 14.0579 113.55 17.3132L117.572 5.40862C104.845 1.10857 94.3392 13.2522 94.3392 13.2522H94.3425Z" fill="#007AB4"/>
<path opacity="0.1" d="M94.3425 13.2522C101.197 12.702 107.6 14.0579 113.55 17.3132L117.572 5.40862C104.845 1.10857 94.3392 13.2522 94.3392 13.2522H94.3425Z" fill="#19417A"/>
<path d="M131.288 25.7333C126.172 21.1384 120.258 18.3351 113.55 17.3133L117.572 5.40869C130.299 9.70875 131.288 25.7333 131.288 25.7333Z" fill="#258EC9"/>
<path d="M141.676 33.3182C138.522 18.1649 128.713 9.17175 117.575 5.40552C130.302 9.70557 131.288 25.7334 131.288 25.7334C136.734 27.1023 139.96 29.7714 141.676 33.3182Z" fill="#007AB4"/>
<path opacity="0.15" d="M141.676 33.3182C138.522 18.1649 128.713 9.17175 117.575 5.40552C130.302 9.70557 131.288 25.7334 131.288 25.7334C136.734 27.1023 139.96 29.7714 141.676 33.3182Z" fill="#00659B"/>
<path d="M118.925 59.4528C115.669 59.967 110.095 58.1068 106.221 57.8022C105.186 57.7236 104.302 57.8153 103.932 57.8218C102.536 57.8415 101.793 56.5643 100.856 55.8143C100.807 55.7783 100.761 55.7422 100.712 55.7062C100.513 55.5621 100.293 55.4377 100.051 55.346C99.4776 55.0414 99.3303 54.9726 99.16 54.7368C98.4657 55.3329 97.7583 55.2674 97.3489 55.1757C97.1 54.7925 96.9363 54.3798 97.0574 54.1473C97.1459 53.9836 97.29 53.9344 97.29 53.9344C97.29 53.9344 97.2376 53.846 97.1852 53.3941C97.1 52.7129 97.719 52.5753 98.1153 52.4247C98.1153 52.4247 97.9941 52.0448 98.2725 51.7599C98.5476 51.4749 98.8587 51.2653 100.349 50.6562C100.571 50.5645 100.791 50.4597 101.092 50.463C101.128 50.463 101.161 50.463 101.2 50.4662C101.492 50.4826 101.862 50.594 102.379 50.8854C102.517 50.964 102.704 51.0754 102.92 51.2064C102.946 51.2228 102.975 51.2391 103.005 51.2555C104.118 51.9203 106.024 52.9159 106.738 53.1517C107.613 53.4399 113.491 52.9421 113.491 52.9421L110.868 47.5449C110.868 47.5449 108.788 43.0222 109.768 39.9011C112.319 39.924 113.668 40.2712 115.352 42.3279C117.028 44.3748 120.84 53.7772 121.207 55.4573C121.617 57.3437 122.105 58.9484 118.925 59.4528Z" fill="#FFBDA7"/>
<path d="M113.2 52.3359L113.491 52.9451C114.998 52.9549 117.113 54.3828 117.641 55.0607C117.081 53.9178 115.859 52.3785 113.2 52.3359Z" fill="#F0997A"/>
<path d="M98.1184 52.4246L99.8672 51.6091L98.0954 52.1659C98.0889 52.2576 98.0954 52.3427 98.1184 52.4246Z" fill="#F0997A"/>
<path d="M97.2898 53.934L99.3367 53.1448L97.2276 53.6917C97.2374 53.7703 97.2604 53.8489 97.2898 53.9308V53.934Z" fill="#F0997A"/>
<path d="M109.843 39.449C112.368 39.521 114.536 40.1564 116.262 43.1563C117.985 46.1561 119.494 49.8372 120.644 53.086C121.793 56.3348 122.042 57.9297 121.109 58.7812C120.175 59.6327 118.548 59.9569 115.902 59.6622C113.255 59.3674 109.335 58.3686 109.335 58.3686C109.335 58.3686 110.003 57.1994 109.895 55.3752C109.787 53.5511 109.283 53.1908 109.283 53.1908L113.223 52.8502C113.223 52.8502 111.683 49.7193 110.642 47.5546C109.601 45.3865 108.893 40.6411 109.84 39.449H109.843Z" fill="#37474F"/>
<path d="M113.226 52.8504C114.88 52.7259 116.933 53.1812 117.873 54.4257C116.93 52.2445 114.058 52.0218 112.882 52.143L113.229 52.8471L113.226 52.8504Z" fill="#263238"/>
<path d="M82.8964 30.0205L81.3931 27.8656C83.0667 24.1714 81.8844 19.6879 78.4096 17.3496C74.5353 14.7427 69.2626 15.7743 66.6557 19.6453C64.0521 23.5197 65.0804 28.7891 68.9548 31.396C72.4295 33.7343 77.0276 33.1416 79.8179 30.2006L82.3855 30.7803C82.8243 30.8785 83.1551 30.3873 82.8964 30.0205ZM80.1552 28.7302C79.081 30.3284 77.5156 31.396 75.7929 31.8807L74.9218 32.0739C73.0321 32.3785 71.0311 31.9986 69.3215 30.8491C65.7518 28.4452 64.8021 23.5852 67.2059 20.0154C68.3554 18.3059 70.0682 17.2022 71.9317 16.7732L72.8127 16.6225C74.5877 16.4195 76.4414 16.8223 78.0396 17.8998C81.6093 20.3036 82.559 25.1604 80.1585 28.7302H80.1552Z" fill="#757172"/>
<path d="M78.0396 17.8998C76.4414 16.8224 74.5878 16.4228 72.8127 16.6226L71.9318 16.7732C70.0683 17.2023 68.3555 18.3092 67.206 20.0155C64.8021 23.5852 65.7519 28.4453 69.3216 30.8491C71.0312 31.9986 73.0322 32.3753 74.9218 32.074L75.793 31.8807C77.5156 31.3993 79.0811 30.3284 80.1553 28.7302C82.5591 25.1605 81.6061 20.3004 78.0364 17.8998H78.0396Z" fill="white"/>
<path d="M72.7177 28.3765C72.4197 28.3765 72.1348 28.2521 71.9284 28.0359L69.482 25.4225C69.0759 24.9869 69.0956 24.3024 69.5311 23.8963C69.9667 23.4869 70.6512 23.5099 71.0573 23.9454L72.6457 25.6419L76.4086 20.8768C76.7787 20.4085 77.4566 20.3299 77.9249 20.6967C78.3933 21.0667 78.4719 21.7447 78.1051 22.213L73.5659 27.9639C73.3727 28.2095 73.078 28.3601 72.7636 28.3732C72.7472 28.3732 72.7341 28.3732 72.7177 28.3732V28.3765Z" fill="#003E61"/>
</g>
<defs>
<clipPath id="clip0_18126_1641">
<rect width="145" height="149.359" fill="white" transform="translate(0 0.519043)"/>
</clipPath>
</defs>
</svg>
