<svg width="168" height="138" viewBox="0 0 168 138" fill="none" xmlns="http://www.w3.org/2000/svg">
<g clip-path="url(#clip0_18118_2102)">
<path d="M112.177 -3.09223C99.1287 -5.10156 85.6933 -2.91121 75.6467 5.24196C65.8788 13.1671 61.4365 26.4323 51.2414 33.7998C35.4781 45.1896 13.1329 41.4063 4.01309 61.8725C0.75834 69.1785 -0.0996987 77.3425 0.00891378 85.34C0.142869 95.3577 1.77568 105.491 6.10207 114.528C10.4285 123.564 17.6331 131.442 26.8507 135.36C40.4526 141.138 56.2195 137.688 69.8793 132.036C75.5127 129.705 81.1678 126.975 87.2573 126.656C94.9254 126.254 102.184 129.712 109.469 132.141C118.208 135.059 127.893 136.529 136.567 133.426C143.359 130.997 148.942 125.961 153.42 120.306C161.389 110.245 166.378 97.8486 167.598 85.0721C171.077 48.6363 152.276 3.08057 112.18 -3.09223H112.177Z" fill="#F4F3F4"/>
<path d="M87.8084 128.849L85.7749 131.899L81.7989 135.044V136.336H95.3866L94.9254 131.808V129.775C94.9254 129.775 89.3806 127.371 87.8084 128.849Z" fill="#263238" stroke="#263238" stroke-width="0.349389" stroke-miterlimit="10"/>
<path d="M95.2643 135.134H81.7989V136.336H95.3866L95.2643 135.134Z" fill="white" stroke="#263238" stroke-width="0.349389" stroke-miterlimit="10"/>
<path d="M110.242 128.849L112.409 131.899L116.643 135.044V136.336H102.161L102.654 131.808V129.775C102.654 129.775 108.565 127.371 110.239 128.849H110.242Z" fill="#263238" stroke="#263238" stroke-width="0.349389" stroke-miterlimit="10"/>
<path d="M102.294 135.134H116.647V136.336H102.165L102.294 135.134Z" fill="white" stroke="#263238" stroke-width="0.349389" stroke-miterlimit="10"/>
<path d="M81.7465 65.5888C81.7465 65.5888 84.919 101.394 85.1461 108.193C85.3732 114.992 87.5254 124.171 87.5254 124.171L86.5052 125.757L87.5254 129.268C87.5254 129.268 89.9047 128.702 91.1521 129.157C92.3994 129.611 94.6634 130.177 94.6634 130.177C94.6634 130.177 95.7954 127.116 95.9107 125.757C96.0225 124.398 94.5516 121.11 94.5516 121.11L94.3245 80.2073H96.3649L101.578 123.49L101.351 126.096L102.371 130.173C102.371 130.173 108.377 128.926 108.831 128.814C109.285 128.702 109.851 128.926 109.851 128.926C109.851 128.926 110.533 127.452 110.533 127.001C110.533 126.55 109.628 123.94 109.628 123.94L109.401 103.658V65.2464L81.7535 64.6804V65.5853L81.7465 65.5888Z" fill="#3B3939" stroke="#263238" stroke-width="0.349389" stroke-miterlimit="10"/>
<path d="M93.3917 25.636L89.7895 26.7261L86.7708 65.4383L102.692 65.6899L103.531 25.8875L93.3917 25.636Z" fill="white" stroke="#263238" stroke-width="0.349389" stroke-miterlimit="10"/>
<path d="M92.1129 24.1161H91.2638L90.8376 25.2202L91.0088 34.5698L96.2776 31.1703L101.462 36.1001L102.144 24.9686C102.144 24.9686 102.399 24.4585 101.634 24.1196C100.869 23.7807 100.613 23.6934 100.613 23.6934L92.1163 24.1196L92.1129 24.1161Z" fill="white" stroke="#263238" stroke-width="0.349389" stroke-miterlimit="10"/>
<path d="M91.6027 21.398L91.8578 25.2238C91.8578 25.2238 94.321 30.5765 95.9351 31.3416C97.5493 32.1068 101.288 24.9688 101.288 24.9688L101.033 20.7202H91.5154L91.5992 21.4015L91.6027 21.398Z" fill="white" stroke="#263238" stroke-width="0.349389" stroke-miterlimit="10"/>
<path d="M89.9887 15.7066C89.9887 15.7066 88.5108 14.4977 88.3116 16.1748C88.109 17.8518 90.2577 19.3961 90.2577 19.3961L89.9887 15.7066Z" fill="#FFCCC1" stroke="#263238" stroke-width="0.349389" stroke-miterlimit="10"/>
<path d="M101.976 15.7066C101.976 15.7066 103.454 14.4977 103.653 16.1748C103.856 17.8518 101.707 19.3961 101.707 19.3961L101.976 15.7066Z" fill="#FFCCC1" stroke="#263238" stroke-width="0.349389" stroke-miterlimit="10"/>
<path d="M89.7232 15.9089C89.7232 15.9089 90.5268 20.6047 91.2011 21.4782C91.8719 22.3516 93.9508 25.3703 95.8969 25.9084C97.843 26.4465 100.862 22.687 101.466 21.4118C102.071 20.1365 102.27 14.5009 102.27 14.5009L102.203 11.4822C102.203 11.4822 102.001 9.26703 101.131 8.06164C100.257 6.85276 96.5013 6.04916 94.0172 6.98902C91.533 7.92887 89.4542 12.2892 89.4542 13.1627C89.4542 14.0362 89.7232 15.9124 89.7232 15.9124V15.9089Z" fill="#FFCCC1" stroke="#263238" stroke-width="0.349389" stroke-miterlimit="10"/>
<path d="M94.15 10.6752C94.15 10.6752 92.0711 13.0895 91.1313 13.5611C90.1914 14.0328 89.9224 14.232 89.9224 14.232L90.0552 17.0515L88.9825 13.2257C88.9825 13.2257 87.6409 9.1309 87.9099 7.32106C88.179 5.51123 94.2863 3.76429 96.4315 3.09346C98.5803 2.42264 99.3838 3.76429 100.792 4.83691C102.2 5.90953 103.678 6.71662 103.475 8.52645C103.273 10.3363 102.535 12.216 102.535 12.216C102.535 12.216 102.2 17.2472 102.2 17.4498C102.2 17.6525 101.595 12.485 101.595 12.485C101.595 12.485 100.523 12.2824 100.254 11.0071C99.9848 9.73184 99.9184 8.32381 99.9184 8.32381C99.9184 8.32381 99.0449 10.1371 98.175 11.0071C97.3015 11.8806 95.1562 12.6842 94.8208 12.6178C94.4854 12.5514 95.1562 10.9407 95.1562 10.9407L93.9474 12.0797L94.15 10.6717V10.6752Z" fill="#263238" stroke="#263238" stroke-width="0.349389" stroke-miterlimit="10"/>
<path d="M94.6878 20.0669C94.6878 20.0669 95.2922 20.605 95.8268 20.7377C96.3649 20.8705 97.3047 20.0669 97.5703 19.8643" stroke="#263238" stroke-width="0.349389" stroke-miterlimit="10"/>
<path d="M94.4851 21.9465C94.4851 21.9465 96.0294 23.1554 98.1083 21.7439L94.4851 21.9465Z" fill="white"/>
<path d="M94.4851 21.9465C94.4851 21.9465 96.0294 23.1554 98.1083 21.7439" stroke="#263238" stroke-width="0.349389" stroke-miterlimit="10"/>
<path d="M93.4475 17.6526C93.6887 17.6526 93.8843 17.3226 93.8843 16.9154C93.8843 16.5083 93.6887 16.1782 93.4475 16.1782C93.2063 16.1782 93.0108 16.5083 93.0108 16.9154C93.0108 17.3226 93.2063 17.6526 93.4475 17.6526Z" fill="#263238"/>
<path d="M98.5451 17.6526C98.7863 17.6526 98.9819 17.3226 98.9819 16.9154C98.9819 16.5083 98.7863 16.1782 98.5451 16.1782C98.3039 16.1782 98.1084 16.5083 98.1084 16.9154C98.1084 17.3226 98.3039 17.6526 98.5451 17.6526Z" fill="#263238"/>
<path d="M97.5072 14.5673C97.5072 14.5673 98.8489 13.7637 100.191 14.9691" stroke="#263238" stroke-width="0.349389" stroke-miterlimit="10"/>
<path d="M93.9506 14.4975C93.9506 14.4975 92.7417 13.7603 91.8018 14.8329" stroke="#263238" stroke-width="0.349389" stroke-miterlimit="10"/>
<path d="M90.9215 33.8882L90.1564 70.5984L81.4042 70.1722L80.8941 69.152C80.8941 69.152 79.7027 69.152 79.535 68.2156C79.3638 67.2793 80.7264 46.7142 80.7264 46.7142L73.2495 46.0329L78.2632 36.2605C78.2632 36.2605 79.7935 29.4614 80.1324 28.9513C80.4713 28.4412 91.0962 24.7866 91.0962 24.7866L90.925 33.8812L90.9215 33.8882Z" fill="#258EC9" stroke="#263238" stroke-width="0.349389" stroke-miterlimit="10"/>
<path d="M101.801 24.5706L100.554 70.6864L111.773 70.5746L112.227 68.8765L113.359 68.0834V64.4568C113.359 62.6434 111.207 49.4994 111.207 49.4994C111.207 49.4994 116.874 48.7063 116.986 47.5743C117.098 46.4423 114.606 29.3327 113.247 28.0854C111.888 26.8381 101.805 24.5741 101.805 24.5741L101.801 24.5706Z" fill="#258EC9" stroke="#263238" stroke-width="0.349389" stroke-miterlimit="10"/>
<path d="M104.614 50.8652L106.106 55.1627C106.106 55.1627 106.969 53.0908 106.839 51.7806C106.71 50.4739 106.71 50.0791 106.315 50.0127C105.924 49.9463 104.68 49.6843 104.614 50.8617V50.8652Z" fill="white" stroke="#263238" stroke-width="0.349389" stroke-miterlimit="10"/>
<path d="M89.7091 39.7026L94.4818 49.1885L99.5199 46.7008L95.2679 36.6943L89.7091 39.7026Z" fill="#FFB17E" stroke="#263238" stroke-width="0.349389" stroke-miterlimit="10"/>
<path d="M97.9897 46.3231C97.8884 45.9702 98.0456 45.6138 98.3426 45.5335C98.3705 45.5265 98.3985 45.523 98.4299 45.5195L95.2994 38.1509C95.2365 38.2906 95.1247 38.3989 94.978 38.4409C94.7683 38.5003 94.5447 38.4024 94.398 38.2173L91.0753 40.0131C91.1137 40.076 91.1487 40.1459 91.1696 40.2228C91.257 40.5302 91.1487 40.8377 90.925 40.9669L94.2268 47.525C94.2862 47.4621 94.3595 47.4097 94.4469 47.3852C94.7124 47.3118 94.9954 47.4796 95.1212 47.773L98.0002 46.3545C98.0002 46.3545 97.9932 46.3371 97.9897 46.3266V46.3231ZM95.1527 44.625C94.5447 44.7962 93.8844 44.3455 93.6782 43.6153C93.4721 42.8851 93.797 42.1549 94.405 41.9802C95.0129 41.809 95.6732 42.2597 95.8794 42.9899C96.0855 43.7201 95.7606 44.4504 95.1527 44.625Z" fill="white" stroke="#263238" stroke-width="0.349389" stroke-miterlimit="10"/>
<path d="M91.7496 38.5353L94.3001 48.8457L99.7645 47.539L97.8394 36.8337L91.7496 38.5353Z" fill="#FFB17E" stroke="#263238" stroke-width="0.349389" stroke-miterlimit="10"/>
<path d="M98.3566 46.8263C98.3391 46.4595 98.5697 46.1485 98.8772 46.1345C98.9051 46.1345 98.9366 46.1345 98.9645 46.1415L97.546 38.2593C97.4517 38.3816 97.3189 38.462 97.1687 38.4689C96.9521 38.4794 96.7564 38.3362 96.6551 38.123L93.018 39.1398C93.0424 39.2096 93.0599 39.283 93.0634 39.3634C93.0808 39.6813 92.9061 39.9608 92.6581 40.0342L94.4225 47.1617C94.4959 47.1128 94.5762 47.0779 94.6671 47.0744C94.9431 47.0604 95.1807 47.2875 95.2401 47.602L98.3601 46.8543C98.3601 46.8543 98.3566 46.8333 98.3566 46.8228V46.8263ZM95.9668 44.5378C95.3344 44.5693 94.7928 43.9823 94.7509 43.2241C94.7125 42.4659 95.1911 41.8266 95.8235 41.7916C96.4559 41.7602 96.9975 42.3472 97.0394 43.1053C97.0778 43.8635 96.5992 44.5029 95.9668 44.5378Z" fill="white" stroke="#263238" stroke-width="0.349389" stroke-miterlimit="10"/>
<path d="M94.7718 37.7354L94.1848 48.3393L99.7925 48.6957L101.092 37.8996L94.7718 37.7354Z" fill="#FFB17E" stroke="#263238" stroke-width="0.349389" stroke-miterlimit="10"/>
<path d="M98.6535 47.6022C98.7443 47.2458 99.0553 47.0187 99.3523 47.0921C99.3802 47.0991 99.4082 47.1096 99.4326 47.1235L100.39 39.1749C100.264 39.2658 100.114 39.3042 99.9672 39.2658C99.7541 39.2134 99.6108 39.0177 99.5759 38.7836L95.799 38.6858C95.8025 38.7592 95.799 38.836 95.778 38.9129C95.7012 39.2239 95.4531 39.437 95.1945 39.437L94.7892 46.7671C94.8731 46.7427 94.9605 46.7357 95.0478 46.7567C95.3133 46.8231 95.4741 47.113 95.4426 47.4275L98.6465 47.6301C98.6465 47.6301 98.6465 47.6092 98.65 47.5987L98.6535 47.6022ZM97.0393 44.7127C96.4244 44.559 96.0785 43.8393 96.2637 43.1021C96.4488 42.3649 97.0952 41.8932 97.7101 42.0469C98.3251 42.2006 98.671 42.9204 98.4858 43.6576C98.3006 44.3948 97.6542 44.8665 97.0393 44.7127Z" fill="white" stroke="#263238" stroke-width="0.349389" stroke-miterlimit="10"/>
<path d="M106.316 48.1192C106.316 48.1192 104.747 47.8571 104.485 47.7278C104.223 47.5986 102.326 46.9417 100.82 46.1591C99.314 45.3765 98.0736 46.1591 95.9144 46.5504C93.7552 46.9417 93.1682 47.0745 93.1682 47.5986C93.1682 48.1227 94.2793 48.2519 94.2793 48.2519C94.2793 48.2519 93.2311 48.3812 93.7552 49.1009C94.2793 49.8207 94.999 50.0163 94.999 50.0163C94.999 50.0163 95.4567 50.8025 96.1101 51.2602C96.7634 51.7179 97.2211 52.1092 97.2211 52.1092C97.2211 52.1092 97.8745 52.9582 98.7899 53.2202C99.7053 53.4823 104.873 51.9135 104.873 51.9135C104.873 51.9135 106.441 52.3712 106.836 51.5222C107.228 50.6732 106.312 48.1192 106.312 48.1192H106.316Z" fill="white" stroke="#263238" stroke-width="0.349389" stroke-linecap="round" stroke-linejoin="round"/>
<path d="M94.2791 48.2484C94.2791 48.2484 98.2027 48.1192 99.4465 47.7244" stroke="#263238" stroke-width="0.349389" stroke-linecap="round" stroke-linejoin="round"/>
<path d="M94.999 50.0164C94.999 50.0164 97.0918 50.3449 98.2692 50.2785C99.4467 50.2121 100.1 49.7544 100.1 49.7544" stroke="#263238" stroke-width="0.349389" stroke-linecap="round" stroke-linejoin="round"/>
<path d="M96.634 51.6514C96.634 51.6514 98.9225 52.3711 100.495 51.847" stroke="#263238" stroke-width="0.349389" stroke-linecap="round" stroke-linejoin="round"/>
<path d="M108.258 36.9214L109.506 46.6658L105.994 47.686C105.994 47.686 106.56 50.6314 106.333 51.9905C106.106 53.3496 106.106 55.163 106.106 55.163C106.106 55.163 109.96 53.9156 112.451 53.6885C114.942 53.4614 117.098 52.3294 117.776 50.5161C118.457 48.7028 116.301 42.4697 116.301 42.4697" fill="#258EC9"/>
<path d="M108.258 36.9214L109.506 46.6658L105.994 47.686C105.994 47.686 106.56 50.6314 106.333 51.9905C106.106 53.3496 106.106 55.163 106.106 55.163C106.106 55.163 109.96 53.9156 112.451 53.6885C114.942 53.4614 117.098 52.3294 117.776 50.5161C118.457 48.7028 116.301 42.4697 116.301 42.4697" stroke="#263238" stroke-width="0.349389" stroke-miterlimit="10"/>
<path d="M87.3507 46.442C87.3507 46.442 86.5646 42.9761 86.2397 42.3193C85.9148 41.6624 84.1469 43.4967 84.0141 44.0872C83.8848 44.6776 86.8267 46.5084 87.3507 46.442Z" fill="white" stroke="#263238" stroke-width="0.349389" stroke-miterlimit="10"/>
<path d="M85.6421 39.1573L83.951 41.1418C83.951 41.1418 84.4088 44.0208 84.8001 44.1501C85.1914 44.2793 87.8747 42.1865 87.8747 42.1865L85.6421 39.1538V39.1573Z" fill="white" stroke="#263238" stroke-width="0.349389" stroke-miterlimit="10"/>
<path d="M88.7832 35.1639C88.7832 35.1639 85.8378 38.0428 85.6422 39.1539C85.4465 40.2649 87.5393 42.3578 87.8014 42.5569C88.0634 42.7561 89.9606 41.2502 90.027 40.9882C90.0934 40.7261 88.7832 38.6997 88.7832 38.6997C88.7832 38.6997 90.3519 39.4858 90.5511 39.6814C90.7467 39.8771 91.9906 41.645 92.4483 41.5122C92.906 41.3795 92.7103 40.5305 92.4483 39.7443C92.1862 38.9582 89.3736 36.3413 89.3736 36.3413L91.2708 36.799C91.2708 36.799 93.4964 38.9582 94.017 38.9582C94.5376 38.9582 94.279 38.4341 93.9506 37.9764C93.6222 37.5187 92.0534 35.6879 91.6621 35.2302C91.2708 34.7725 89.7649 34.5105 89.5693 34.5105C89.3736 34.5105 88.7832 35.1639 88.7832 35.1639Z" fill="white" stroke="#263238" stroke-width="0.349389" stroke-linecap="round" stroke-linejoin="round"/>
<path d="M88.7832 38.6999L87.8678 37.781" stroke="#263238" stroke-width="0.349389" stroke-linecap="round" stroke-linejoin="round"/>
<path d="M86.6904 38.8953L89.0452 41.7742" stroke="#263238" stroke-width="0.349389" stroke-linecap="round" stroke-linejoin="round"/>
<path d="M83.8848 40.8137C83.8848 40.8137 84.3425 42.3825 84.6046 43.3643C84.8666 44.346 87.3507 46.4389 87.3507 46.4389C87.3507 46.4389 83.8184 50.1669 80.6774 51.802C77.5364 53.4371 73.8469 52.6161 72.7358 51.3094C71.6248 50.0026 72.0825 46.2083 72.9979 45.4222C73.9133 44.636 79.2379 43.6263 80.5481 42.9066C81.8549 42.1868 83.8848 40.8137 83.8848 40.8137Z" fill="#258EC9" stroke="#263238" stroke-width="0.349389" stroke-miterlimit="10"/>
<path d="M0.174744 136.535H167.301" stroke="#263238" stroke-width="0.349389" stroke-linecap="round" stroke-linejoin="round"/>
</g>
<defs>
<clipPath id="clip0_18118_2102">
<rect width="168" height="137.163" fill="white" transform="translate(0 0.693115)"/>
</clipPath>
</defs>
</svg>
