<svg width="108" height="71" viewBox="0 0 108 71" fill="none" xmlns="http://www.w3.org/2000/svg">
<path d="M31.1678 0.958984L36.9664 12.0671C32.3758 13.7951 29.1141 16.1402 27.1812 19.1023C25.4899 22.0645 24.6443 23.5456 24.6443 23.5456C24.6443 23.5456 25.8523 23.7924 28.2685 24.2862C30.6846 24.533 33.3423 25.397 36.2416 26.8781C39.3825 28.3591 42.1611 30.7042 44.5772 33.9132C46.9933 36.8754 48.2013 41.0718 48.2013 46.5025C48.2013 53.4143 45.7852 59.3386 40.953 64.2756C36.3624 68.9657 30.8054 71.1873 24.2819 70.9405C17.5168 70.6936 11.7181 67.9783 6.88591 62.7945C2.2953 57.3638 0 50.8223 0 43.1701C0 33.543 2.89933 25.0267 8.69799 17.6213C14.4966 9.96895 21.9866 4.41486 31.1678 0.958984ZM90.9664 0.958984L96.7651 12.0671C92.1745 13.7951 88.9128 16.1402 86.9799 19.1023C85.2886 22.0645 84.443 23.5456 84.443 23.5456C84.443 23.5456 85.651 23.7924 88.0671 24.2862C90.4832 24.533 93.1409 25.397 96.0403 26.8781C99.1812 28.3591 101.96 30.7042 104.376 33.9132C106.792 36.8754 108 41.0718 108 46.5025C108 53.4143 105.584 59.3386 100.752 64.2756C96.1611 68.9657 90.604 71.1873 84.0805 70.9405C77.3154 70.6936 71.5168 67.9783 66.6846 62.7945C62.094 57.3638 59.7987 50.8223 59.7987 43.1701C59.7987 33.543 62.698 25.0267 68.4966 17.6213C74.2953 9.96895 81.7852 4.41486 90.9664 0.958984Z" fill="#00427E"/>
</svg>
